<svg width="295" height="400" viewBox="0 0 295 400" fill="none" xmlns="http://www.w3.org/2000/svg">
<path d="M37.9395 113.696C54.4093 95.4282 71.7723 89.6335 95.347 91.201C115.225 92.5226 126.876 120.828 133.447 136.49C143.291 159.951 141.145 186.74 149.942 209.943C155.432 224.424 155.058 239.388 142.309 250.548C121.31 268.928 75.9439 275.336 55.0881 251.509C40.2758 234.587 40.0346 209.712 34.3754 189.287C29.3112 171.009 23.5455 148.256 23.7531 129.197C23.8008 124.817 22.5604 95.8645 37.3812 111.1C42.8677 116.74 46.3659 135.359 45.9123 142.182C44.1079 169.321 53.1497 195.207 57.2415 221.869C61.1076 247.061 69.4483 266.097 91.0147 280.026C109.968 292.269 151.59 279.066 162.927 261.968C176.189 241.969 164.712 200.661 151.125 181.153C148.18 176.924 147.152 154.426 152.223 150.894C162.586 143.677 164.335 181.037 164.564 187.893C165.242 208.269 182.54 258.279 166.131 274.24C157.687 282.454 151.627 288.714 142.644 294.97C135.8 299.737 148.367 317.984 151.587 322.607C156.268 329.329 153.04 344.422 157.728 351.154C162.712 358.31 186.849 356.975 192.898 352.579C205.62 343.336 254.139 343.86 270.38 349.691C286.176 355.362 273.307 354.653 261.687 359.528C245.363 357.712 235.192 363.613 220.551 362.64C193.169 360.82 168.009 361.827 141.334 364.134C125.808 365.476 110.144 364.959 95.0808 367.271C81.6778 369.328 67.3527 364.355 88.094 359.68C99.3884 357.135 119.022 359.503 128.793 354.895C130.939 353.883 143.107 354.447 138.943 350.636C136.323 348.238 136.078 337.908 134.392 333.889C125.294 312.205 125.985 293.863 96.8016 291.923C70.9871 290.206 51.2757 280.953 39.9297 256.896C34.9344 246.305 22.4508 196.574 4.85162 226.608C-6.32056 245.674 28.0691 268.649 42.355 256.144C49.2986 250.066 47.8151 235.536 46.6188 227.741C45.0654 217.618 33.7197 200.539 44.0222 220.077C55.7548 242.326 50.9574 270.644 68.9687 290.072C82.4165 304.578 122.936 288.573 126.53 311.988C130.423 337.357 97.4298 341.298 80.4381 340.169C68.9299 339.403 60.192 333.503 50.0323 327.549C38.1856 320.607 26.5342 320.14 12.945 319.236C-1.967 318.245 -13.2773 324.765 -26.4433 329.042C-41.8151 334.036 -43.068 338.871 -47.2255 353.059C-53.7922 375.467 1.88277 391.578 4.36802 371.289C6.47493 354.089 -19.4699 363.126 -29.7603 362.442C-46.3751 361.337 -62.9899 360.233 -79.6048 359.128C-95.178 358.093 -109.574 367.002 -125.191 365.964C-140.168 364.968 -155.146 363.972 -170.124 362.976C-199.966 360.992 -224.819 349.473 -253.879 347.541" stroke="#646363" stroke-width="0.5" stroke-linecap="round" stroke-linejoin="round"/>
<path d="M136.072 90.6527C142.86 80.5541 149.587 68.6146 157.703 59.5064C161.227 55.5523 162.522 48.6737 166.771 46.2001" stroke="#646363" stroke-width="0.75" stroke-linecap="round" stroke-linejoin="round"/>
<path d="M154.537 115.349C166.949 101.753 184.418 88.4127 200.282 79.1786" stroke="#646363" stroke-width="0.75" stroke-linecap="round" stroke-linejoin="round"/>
<path d="M99.4462 79.2545C101.126 60.7854 103.906 36.724 100.054 18.2368" stroke="#646363" stroke-width="0.75" stroke-linecap="round" stroke-linejoin="round"/>
</svg>
