<svg width="282" height="43" viewBox="0 0 282 43" fill="none" xmlns="http://www.w3.org/2000/svg">
<path fill-rule="evenodd" clip-rule="evenodd" d="M63.1103 30.85L65.4009 28.1461C67.4748 29.9281 69.5488 30.9411 72.2419 30.9411C74.5966 30.9411 76.0823 29.8661 76.0823 28.2384V28.1765C76.0823 26.6424 75.2145 25.8115 71.1896 24.8908C66.5763 23.7854 63.9768 22.4347 63.9768 18.4711V18.4091C63.9768 14.7251 67.0724 12.1741 71.3754 12.1741C74.5338 12.1741 77.0411 13.1265 79.2394 14.8781L77.1962 17.7338C75.2465 16.292 73.2956 15.5231 71.3139 15.5231C69.0848 15.5231 67.7851 16.6588 67.7851 18.0715V18.1334C67.7851 19.7927 68.7759 20.5301 72.9239 21.5127C77.5051 22.6168 79.8893 24.2445 79.8893 27.8084V27.8717C79.8893 31.8934 76.7014 34.2901 72.1509 34.2901C68.8374 34.2901 65.7098 33.1531 63.1103 30.85ZM82.3901 28.0854V17.7654H86.1381V26.9801C86.1381 29.4968 87.4071 30.9411 89.6362 30.9411C91.8038 30.9411 93.3214 29.4361 93.3214 26.9193V17.7654H97.0669V33.9827H93.3214V32.3108C92.0037 33.5654 90.7514 34.3204 88.2121 34.3204C84.5282 34.3204 82.3927 31.8631 82.3927 28.0854H82.3901ZM101.071 17.7654H104.817V20.4681C105.838 18.0411 107.727 17.3341 110.607 17.4581V20.7526H110.389C107.107 20.7526 104.817 22.9279 104.817 27.8097V33.9815H101.071V17.7667V17.7654ZM111.944 17.7654H115.969L120.365 29.0491L124.793 17.7654H128.724L122.037 34.1054H118.662L111.944 17.7654ZM140.856 24.7377C140.609 22.3411 139.185 20.4681 136.708 20.4681C134.417 20.4681 132.807 22.2184 132.466 24.7377H140.856ZM128.751 25.9354V25.8722C128.751 21.2358 132.064 17.4277 136.738 17.4277C141.94 17.4277 144.571 21.4824 144.571 26.1491C144.571 26.4881 144.54 26.8258 144.51 27.1951H132.496C132.899 29.8358 134.788 31.3104 137.203 31.3104C139.029 31.3104 140.331 30.635 141.631 29.3754L143.829 31.3104C142.28 33.1531 140.144 34.3508 137.14 34.3508C132.404 34.3508 128.751 30.9411 128.751 25.9354ZM164.426 12.4827H168.482L175.076 23.4503L181.671 12.4827H185.726V33.9827H181.919V18.5647L175.076 29.5006H174.953L168.172 18.6241V33.9827H164.426V12.4827ZM202.094 25.9658V25.9038C202.094 23.0481 200.019 20.6831 197.078 20.6831C194.075 20.6831 192.156 23.0165 192.156 25.8431V25.9038C192.156 28.7304 194.23 31.127 197.14 31.127C200.175 31.127 202.094 28.762 202.094 25.967V25.9658ZM188.411 25.967V25.9038C188.411 21.2661 192.125 17.4277 197.14 17.4277C202.157 17.4277 205.841 21.2054 205.841 25.8431V25.9038C205.841 30.5124 202.123 34.3495 197.078 34.3495C192.093 34.3495 188.411 30.5731 188.411 25.9658V25.967ZM226.795 11.5595H230.541V24.9527L237.322 17.7654H241.873L235.373 24.3684L242.089 33.9827H237.757L232.835 26.9801L230.541 29.345V33.9827H226.795V11.5595Z" fill="#00BF6F"/>
<path fill-rule="evenodd" clip-rule="evenodd" d="M253.89 24.7375C253.644 22.3409 252.22 20.4679 249.743 20.4679C247.451 20.4679 245.843 22.2182 245.502 24.7375H253.891H253.89ZM241.786 25.9352V25.872C241.786 21.2356 245.099 17.4275 249.774 17.4275C254.974 17.4275 257.606 21.4822 257.606 26.1489C257.606 26.4879 257.575 26.8256 257.546 27.1948H245.532C245.935 29.8356 247.824 31.3102 250.238 31.3102C252.066 31.3102 253.366 30.6348 254.667 29.3752L256.864 31.3102C255.315 33.1529 253.18 34.3505 250.176 34.3505C245.44 34.3505 241.786 30.9409 241.786 25.9352ZM157.729 17.7652L153.206 28.8238L148.71 17.7652H144.81L151.249 33.6069L147.889 41.825H151.789L161.63 17.7652H157.729ZM278.83 17.6261C279.28 17.6261 279.722 17.7437 280.148 17.9739C280.58 18.199 280.918 18.5303 281.157 18.9578C281.399 19.3815 281.518 19.8267 281.518 20.2946C281.518 20.7524 281.399 21.1938 281.159 21.6162C280.929 22.0323 280.584 22.3756 280.164 22.6065C279.757 22.8358 279.297 22.9565 278.828 22.9565C278.359 22.9565 277.899 22.8358 277.492 22.6065C277.071 22.3765 276.725 22.033 276.495 21.6162C276.264 21.2127 276.142 20.7577 276.141 20.2946C276.141 19.8267 276.259 19.3815 276.504 18.9578C276.747 18.5303 277.077 18.199 277.507 17.9739C277.911 17.7495 278.366 17.6298 278.83 17.6261ZM278.83 18.0662C278.452 18.0662 278.084 18.1636 277.73 18.3533C277.368 18.5468 277.089 18.8212 276.884 19.1753C276.689 19.5141 276.586 19.897 276.586 20.2867C276.585 20.6764 276.687 21.0595 276.882 21.3987C277.083 21.749 277.357 22.026 277.719 22.2208C278.073 22.4168 278.446 22.5142 278.83 22.5142C279.22 22.5142 279.589 22.4168 279.945 22.2208C280.302 22.026 280.577 21.749 280.776 21.3987C280.969 21.0446 281.069 20.6753 281.069 20.2946C281.069 19.9089 280.969 19.5358 280.768 19.1753C280.576 18.8262 280.285 18.5403 279.93 18.3533C279.593 18.1685 279.215 18.0698 278.83 18.0662Z" fill="#00BF6F"/>
<path fill-rule="evenodd" clip-rule="evenodd" d="M278.994 20.2783C279.372 20.2783 279.613 20.0823 279.613 19.7787V19.7699C279.613 19.4499 279.383 19.2754 278.989 19.2754H278.22V20.2783H278.994ZM277.691 18.7973H279.033C279.411 18.7973 279.708 18.9074 279.902 19.0958C280.068 19.2697 280.158 19.5016 280.152 19.7408V19.7496C280.152 20.2404 279.854 20.5338 279.436 20.6539L280.25 21.7846H279.622L278.883 20.7437H278.219V21.7846H277.691V18.7973ZM270.766 17.7653L266.243 28.8239L261.747 17.7653H257.847L264.287 33.607L260.926 41.8251H264.826L274.667 17.7653H270.766ZM222.976 23.6626V33.9826H219.229V24.768C219.229 22.25 217.96 20.8069 215.731 20.8069C213.565 20.8069 212.047 22.3119 212.047 24.8287V33.9826H208.301V17.7653H212.047V19.4373C213.364 18.1827 214.616 17.4264 217.155 17.4264C220.839 17.4264 222.976 19.885 222.976 23.6614V23.6626ZM48.7809 30.1569C48.2874 30.1569 47.8375 29.9697 47.4991 29.6687C47.6144 28.6823 47.6913 27.6857 47.7041 26.6714C48.0118 26.4665 48.3835 26.3426 48.7809 26.3426C49.8384 26.3426 50.7036 27.1988 50.7036 28.2535C50.7044 28.5032 50.6553 28.7506 50.5591 28.9814C50.4628 29.2123 50.3213 29.4222 50.1427 29.599C49.9641 29.7759 49.7518 29.9162 49.5182 30.0119C49.2845 30.1076 49.0339 30.1569 48.7809 30.1569V30.1569ZM6.39115 30.1569C6.13811 30.1569 5.88756 30.1076 5.65387 30.0119C5.42017 29.9162 5.20793 29.7759 5.0293 29.599C4.85068 29.4222 4.70918 29.2123 4.61293 28.9814C4.51669 28.7506 4.46757 28.5032 4.46842 28.2535C4.46842 27.1988 5.33365 26.3413 6.39115 26.3413C6.78851 26.3413 7.16024 26.4678 7.46787 26.6714C7.48069 27.6857 7.5576 28.6823 7.67296 29.6687C7.32154 29.9822 6.86489 30.1561 6.39115 30.1569ZM48.6553 21.7846C48.1143 21.7846 47.5952 21.8579 47.0966 21.9781C45.1815 14.4632 38.9596 8.64806 31.1866 7.27332C30.8405 7.21009 30.5265 7.16582 30.174 7.12156C30.2317 5.23841 30.3214 3.06185 33.1132 1.10409L32.671 0C32.671 0 27.2309 1.677 26.6003 6.29571C26.3285 5.03859 23.7918 3.46656 22.5356 3.16809L21.9114 4.16721C21.9114 4.16721 23.5765 4.99432 23.9815 7.27332C16.2112 8.65059 9.99049 14.4644 8.07545 21.9781C7.56517 21.8524 7.04141 21.7879 6.51548 21.7858C2.92383 21.7858 0 24.6795 0 28.2535C0 31.82 2.92383 34.72 6.51548 34.72C7.35764 34.72 8.16005 34.553 8.8971 34.2672C9.45307 35.6437 10.1633 36.9545 11.0147 38.1751L16.4239 34.5581L16.3778 34.4974C14.9473 32.6737 14.0718 29.9874 13.9257 27.3139C13.7629 24.3671 14.4884 21.438 16.3868 19.7168C20.2989 16.4134 24.5584 17.9184 27.2271 21.0864H27.9449C30.6137 17.9184 34.8731 16.4134 38.7865 19.7168C40.6836 21.438 41.4091 24.3671 41.2476 27.3151C41.1002 29.9874 40.2247 32.6737 38.7942 34.4986L38.7481 34.5568L44.1574 38.1751C45.0085 36.9543 45.7187 35.6436 46.2749 34.2672C47.0326 34.5641 47.8401 34.7177 48.6553 34.72C52.2482 34.72 55.172 31.82 55.172 28.2535C55.172 24.6782 52.2482 21.7846 48.6553 21.7846Z" fill="#00BF6F"/>
</svg>
