<svg width="170" height="59" viewBox="0 0 170 59" fill="none" xmlns="http://www.w3.org/2000/svg">
<g clip-path="url(#clip0_0_107)">
<path d="M72.2449 32.2389C71.2071 32.2389 70.2028 32.0715 69.2654 31.7032C68.328 31.335 67.4911 30.7993 66.7546 30.0963C66.0181 29.3933 65.449 28.5228 65.0137 27.485C64.5785 26.4472 64.3442 25.2755 64.3442 23.9364C64.3442 22.5973 64.5785 21.4256 65.0137 20.3878C65.449 19.3499 66.0516 18.4795 66.7881 17.7765C67.5246 17.0735 68.3615 16.5378 69.3324 16.1696C70.2698 15.8013 71.2406 15.6339 72.2449 15.6339C73.1488 15.6339 73.9858 15.7678 74.7558 16.0022C75.5258 16.2365 76.1953 16.5713 76.7979 17.0065C77.4005 17.4417 77.9027 17.9774 78.3044 18.6134C78.7061 19.2495 79.0409 19.9525 79.2418 20.6891L77.1996 21.3921C76.8983 20.1869 76.3292 19.2495 75.4923 18.6134C74.6553 17.9774 73.5506 17.6426 72.2449 17.6426C71.5419 17.6426 70.8389 17.7765 70.1358 18.0443C69.4663 18.3121 68.8637 18.7139 68.328 19.216C67.7924 19.7517 67.3572 20.3878 67.0559 21.1912C66.7546 21.9612 66.5872 22.8986 66.5872 23.9364C66.5872 24.9742 66.7546 25.8781 67.0559 26.6816C67.3572 27.485 67.7924 28.1211 68.328 28.6568C68.8637 29.1924 69.4663 29.5941 70.1358 29.862C70.8054 30.1298 71.5084 30.2637 72.2449 30.2637C72.9145 30.2637 73.5171 30.1633 74.0862 29.9624C74.6553 29.7615 75.124 29.4937 75.5592 29.1589C75.9944 28.8241 76.3292 28.4224 76.6305 27.9537C76.9318 27.485 77.1662 26.9829 77.3001 26.4472L79.2418 27.1503C79.0409 27.8868 78.7061 28.5898 78.3044 29.2259C77.8692 29.862 77.367 30.3976 76.7979 30.8328C76.2288 31.268 75.5258 31.6363 74.7558 31.9041C73.9858 32.105 73.1488 32.2389 72.2449 32.2389Z" fill="black"/>
<path d="M82.9578 31.8706H80.8487V15.6339H82.9578V22.3629C83.3595 21.7938 83.8282 21.3921 84.4308 21.1577C84.9999 20.9234 85.636 20.7895 86.2386 20.7895C86.8747 20.7895 87.4438 20.8899 87.946 21.1243C88.4481 21.3586 88.8498 21.6264 89.1511 22.0282C89.4859 22.3964 89.7203 22.8651 89.8542 23.4007C90.0216 23.9364 90.0885 24.472 90.0885 25.0746V31.9376H87.9794V25.4094C87.9794 25.0412 87.9459 24.6729 87.8455 24.3381C87.7786 24.0033 87.6112 23.7355 87.4103 23.4677C87.2094 23.2334 86.9416 23.0325 86.6403 22.8986C86.3055 22.7647 85.9373 22.6977 85.4686 22.6977C85.0669 22.6977 84.6986 22.7647 84.3973 22.9321C84.096 23.066 83.8282 23.2668 83.6273 23.5347C83.4265 23.8025 83.2591 24.1038 83.1586 24.4386C83.0582 24.7733 82.9912 25.1416 82.9578 25.5768V31.8706Z" fill="black"/>
<path d="M91.7959 28.9917C91.7959 28.5231 91.8629 28.0878 92.0303 27.6861C92.1977 27.3179 92.432 26.9831 92.6998 26.7153C93.0011 26.4474 93.3359 26.2131 93.7376 26.0792C94.1394 25.9118 94.5746 25.7779 95.0433 25.7109L97.9558 25.2757C98.2906 25.2422 98.4915 25.1418 98.6254 24.9744C98.7258 24.8405 98.7928 24.6396 98.7928 24.4723C98.7928 23.9366 98.6254 23.5014 98.2571 23.0997C97.8889 22.6979 97.2863 22.5305 96.4828 22.5305C95.7463 22.5305 95.1437 22.7314 94.742 23.1331C94.3402 23.5349 94.1059 24.0705 94.0389 24.7066L92.0303 24.2379C92.0972 23.7357 92.2311 23.2671 92.499 22.8318C92.7333 22.3966 93.0681 22.0284 93.4698 21.7271C93.8716 21.4258 94.3068 21.1914 94.8424 21.024C95.3446 20.8567 95.9137 20.7562 96.4828 20.7562C97.2863 20.7562 97.9893 20.8567 98.5584 21.091C99.1276 21.2919 99.5962 21.5932 99.9645 21.9614C100.333 22.3297 100.601 22.7314 100.734 23.2336C100.902 23.7023 100.969 24.2044 100.969 24.7401V30.1635C100.969 30.6322 100.969 31.0339 101.002 31.3017C101.036 31.5695 101.069 31.8039 101.103 31.9378H99.0271C98.9936 31.8039 98.9602 31.6365 98.9602 31.4021C98.9267 31.1678 98.9267 30.8665 98.9267 30.4648C98.7928 30.6656 98.6589 30.8665 98.458 31.0674C98.2571 31.2682 98.0228 31.4691 97.755 31.6365C97.4872 31.8039 97.1524 31.9713 96.7506 32.0717C96.3489 32.1721 95.9472 32.2391 95.445 32.2391C94.8759 32.2391 94.4072 32.1387 93.9385 31.9713C93.5033 31.8039 93.1016 31.5695 92.8003 31.2682C92.499 30.9669 92.2312 30.6322 92.0638 30.2304C91.8629 29.8287 91.7959 29.427 91.7959 28.9917ZM95.7128 30.4648C96.148 30.4648 96.5498 30.3978 96.9515 30.2974C97.3198 30.1969 97.6545 29.9961 97.9558 29.7617C98.2571 29.5274 98.458 29.1926 98.6254 28.7574C98.7928 28.3557 98.8597 27.8535 98.8597 27.2509V26.7487L95.5454 27.2509C95.1102 27.3179 94.7085 27.4852 94.4072 27.7531C94.1059 28.0209 93.972 28.3891 93.972 28.8578C93.972 29.2596 94.1394 29.6278 94.4407 29.9626C94.742 30.2974 95.1772 30.4648 95.7128 30.4648Z" fill="black"/>
<path d="M103.379 31.8708V21.091H105.388V22.5305C105.723 21.9279 106.191 21.4927 106.827 21.1914C107.43 20.9236 108.066 20.7562 108.669 20.7562C109.338 20.7562 109.974 20.9236 110.577 21.2584C111.18 21.5932 111.615 22.0953 111.916 22.7984C112.351 22.0284 112.887 21.4927 113.523 21.1914C114.159 20.8901 114.829 20.7562 115.532 20.7562C116 20.7562 116.469 20.8232 116.904 20.9906C117.339 21.158 117.741 21.3923 118.109 21.7271C118.478 22.0619 118.746 22.4971 118.946 22.9992C119.147 23.5014 119.248 24.1375 119.248 24.8405V31.8374H117.172V25.1083C117.172 24.4053 117.005 23.8027 116.636 23.334C116.268 22.8653 115.699 22.631 114.896 22.631C114.159 22.631 113.556 22.8988 113.088 23.401C112.619 23.9031 112.418 24.5727 112.418 25.3427V31.8708H110.309V25.1083C110.309 24.4053 110.142 23.8027 109.773 23.334C109.405 22.8653 108.836 22.631 108.033 22.631C107.263 22.631 106.66 22.8988 106.191 23.401C105.723 23.9031 105.522 24.5727 105.522 25.3762V31.9043H103.379V31.8708Z" fill="black"/>
<path d="M121.658 36.1557V21.0907H123.7V22.7646C124.002 22.2289 124.47 21.7603 125.073 21.392C125.675 21.0237 126.445 20.8229 127.316 20.8229C128.119 20.8229 128.856 20.9568 129.458 21.2581C130.061 21.5594 130.597 21.9611 130.998 22.4633C131.4 22.9655 131.735 23.5681 131.936 24.2711C132.137 24.9741 132.271 25.7106 132.271 26.4806C132.271 27.2841 132.17 28.0541 131.936 28.7236C131.701 29.4267 131.367 30.0293 130.931 30.5314C130.496 31.0336 129.961 31.4688 129.358 31.7366C128.755 32.0044 128.019 32.1718 127.249 32.1718C126.412 32.1718 125.675 32.0044 125.106 31.6697C124.504 31.3349 124.069 30.8997 123.767 30.431V36.1557H121.658ZM130.128 26.4806C130.128 25.945 130.061 25.4428 129.894 24.9741C129.76 24.5054 129.525 24.1037 129.258 23.7689C128.99 23.4341 128.655 23.1663 128.253 22.9655C127.852 22.7646 127.416 22.6642 126.914 22.6642C126.445 22.6642 126.01 22.7646 125.608 22.9655C125.207 23.1663 124.872 23.4341 124.571 23.7689C124.303 24.1037 124.069 24.5054 123.935 24.9741C123.801 25.4428 123.7 25.9115 123.7 26.4806C123.7 27.0497 123.767 27.5519 123.935 28.0206C124.069 28.4893 124.303 28.891 124.571 29.2258C124.839 29.5606 125.207 29.8284 125.608 29.9958C126.01 30.1966 126.445 30.2636 126.914 30.2636C127.416 30.2636 127.852 30.1632 128.253 29.9958C128.655 29.7949 128.99 29.5606 129.258 29.2258C129.525 28.891 129.76 28.4893 129.894 28.0206C130.061 27.5519 130.128 27.0163 130.128 26.4806Z" fill="black"/>
<path d="M133.643 16.9731C133.643 16.5379 133.777 16.1696 134.078 15.8683C134.38 15.567 134.714 15.4331 135.15 15.4331C135.585 15.4331 135.953 15.567 136.254 15.8683C136.556 16.1696 136.69 16.5379 136.69 16.9731C136.69 17.4083 136.556 17.7431 136.254 18.0444C135.953 18.3457 135.585 18.4796 135.15 18.4796C134.714 18.4796 134.38 18.3457 134.078 18.0444C133.777 17.7765 133.643 17.4083 133.643 16.9731ZM134.112 31.8707V21.0908H136.187V31.9042H134.112V31.8707Z" fill="black"/>
<path d="M143.519 20.7562C144.323 20.7562 145.059 20.8901 145.729 21.1914C146.398 21.4927 147.001 21.8945 147.469 22.3966C147.972 22.8988 148.34 23.5014 148.608 24.2044C148.876 24.9075 149.009 25.6775 149.009 26.4809C149.009 27.2844 148.876 28.0544 148.608 28.7574C148.34 29.4604 147.972 30.063 147.469 30.5652C146.967 31.0674 146.398 31.4691 145.729 31.7704C145.059 32.0717 144.323 32.2056 143.519 32.2056C142.716 32.2056 141.979 32.0717 141.31 31.7704C140.64 31.4691 140.037 31.0674 139.569 30.5652C139.067 30.063 138.698 29.4604 138.43 28.7574C138.163 28.0544 138.029 27.2844 138.029 26.4809C138.029 25.6775 138.163 24.9075 138.43 24.2044C138.698 23.5014 139.067 22.8988 139.569 22.3966C140.071 21.8945 140.64 21.4927 141.31 21.1914C141.979 20.8901 142.716 20.7562 143.519 20.7562ZM143.519 30.3309C143.954 30.3309 144.39 30.2639 144.791 30.0965C145.193 29.9291 145.561 29.6948 145.863 29.36C146.164 29.0252 146.432 28.6235 146.599 28.1548C146.766 27.6861 146.867 27.117 146.867 26.4809C146.867 25.8448 146.766 25.3092 146.599 24.8405C146.432 24.3718 146.164 23.9701 145.863 23.6353C145.561 23.3005 145.193 23.0662 144.791 22.8988C144.39 22.7314 143.954 22.6645 143.519 22.6645C143.084 22.6645 142.649 22.7314 142.247 22.8988C141.845 23.0662 141.477 23.3005 141.176 23.6353C140.874 23.9701 140.607 24.3718 140.439 24.8405C140.272 25.3092 140.171 25.8783 140.171 26.4809C140.171 27.0835 140.272 27.6526 140.439 28.1548C140.607 28.6235 140.874 29.0252 141.176 29.36C141.477 29.6948 141.845 29.9291 142.247 30.0965C142.649 30.2639 143.084 30.3309 143.519 30.3309Z" fill="black"/>
<path d="M152.96 31.8708H150.851V21.091H152.926V22.631C153.328 21.9614 153.797 21.4927 154.399 21.1914C155.002 20.9236 155.605 20.7562 156.241 20.7562C156.877 20.7562 157.446 20.8567 157.948 21.091C158.45 21.3253 158.852 21.5932 159.153 21.9949C159.488 22.3632 159.722 22.8318 159.856 23.3675C160.024 23.9031 160.091 24.4388 160.091 25.0414V31.9043H157.981V25.4096C157.981 25.0414 157.948 24.6731 157.848 24.3383C157.781 24.0036 157.613 23.7357 157.412 23.4679C157.211 23.2336 156.944 23.0327 156.642 22.8988C156.308 22.7649 155.939 22.6979 155.471 22.6979C155.035 22.6979 154.701 22.7649 154.366 22.9323C154.065 23.0997 153.797 23.3005 153.596 23.5684C153.395 23.8362 153.228 24.1375 153.127 24.5057C153.027 24.874 152.96 25.2422 152.96 25.644V31.8708Z" fill="black"/>
<path d="M163.572 28.3892C163.639 28.9583 163.907 29.427 164.309 29.8287C164.744 30.2304 165.313 30.3978 166.083 30.3978C166.686 30.3978 167.154 30.2639 167.456 29.9626C167.757 29.6613 167.924 29.3265 167.924 28.9583C167.924 28.6235 167.79 28.3222 167.556 28.0879C167.322 27.8535 166.987 27.6861 166.518 27.5857L164.677 27.184C163.807 27.0166 163.17 26.6483 162.702 26.1127C162.233 25.577 161.999 24.9075 161.999 24.171C161.999 23.7023 162.099 23.2671 162.3 22.8653C162.501 22.4636 162.769 22.0953 163.103 21.7606C163.438 21.4593 163.873 21.1914 164.342 21.024C164.811 20.8567 165.313 20.7562 165.849 20.7562C166.585 20.7562 167.188 20.8567 167.69 21.0575C168.192 21.2584 168.594 21.5262 168.929 21.8275C169.23 22.1288 169.464 22.4636 169.632 22.7984C169.799 23.1331 169.899 23.401 169.966 23.6688L168.092 24.3718C168.058 24.2379 168.025 24.0705 167.924 23.8697C167.857 23.6688 167.723 23.4679 167.556 23.2671C167.389 23.0662 167.154 22.9323 166.886 22.7984C166.585 22.6645 166.25 22.5975 165.815 22.5975C165.28 22.5975 164.844 22.7314 164.51 23.0327C164.175 23.334 164.007 23.6688 164.007 24.037C164.007 24.7401 164.409 25.1753 165.246 25.3427L166.987 25.7109C167.991 25.9118 168.728 26.3135 169.23 26.8827C169.732 27.4518 170 28.1213 170 28.9248C170 29.3265 169.933 29.6948 169.766 30.0965C169.598 30.4983 169.364 30.833 169.029 31.1678C168.694 31.5026 168.293 31.7704 167.79 31.9713C167.288 32.1721 166.719 32.2726 166.05 32.2726C165.313 32.2726 164.677 32.1721 164.141 31.9713C163.606 31.7704 163.17 31.5026 162.802 31.2013C162.434 30.9 162.166 30.5317 161.999 30.1635C161.798 29.7952 161.697 29.4604 161.664 29.1257L163.572 28.3892Z" fill="black"/>
<path d="M69.7342 42.4497C70.5376 42.4497 71.2741 42.5836 71.9437 42.8849C72.6132 43.1862 73.2158 43.5879 73.6845 44.0901C74.1867 44.5923 74.5549 45.1949 74.8228 45.8979C75.0906 46.6009 75.2245 47.3709 75.2245 48.1744C75.2245 48.9779 75.0906 49.7479 74.8228 50.4509C74.5549 51.1539 74.1867 51.7565 73.6845 52.2587C73.1824 52.7609 72.6132 53.1626 71.9437 53.4639C71.2741 53.7652 70.5376 53.8991 69.7342 53.8991C68.9307 53.8991 68.1942 53.7652 67.5246 53.4639C66.8551 53.1626 66.2525 52.7609 65.7838 52.2587C65.2816 51.7565 64.9134 51.1539 64.6455 50.4509C64.3777 49.7479 64.2438 48.9779 64.2438 48.1744C64.2438 47.3709 64.3777 46.6009 64.6455 45.8979C64.9134 45.1949 65.2816 44.5923 65.7838 44.0901C66.2859 43.5879 66.8551 43.1862 67.5246 42.8849C68.1942 42.6171 68.9307 42.4497 69.7342 42.4497ZM69.7342 52.0578C70.1694 52.0578 70.6046 51.9909 71.0063 51.8235C71.408 51.6561 71.7763 51.4217 72.0776 51.087C72.3789 50.7522 72.6467 50.3505 72.8141 49.8818C72.9815 49.4131 73.0819 48.844 73.0819 48.2079C73.0819 47.5718 72.9815 47.0362 72.8141 46.5675C72.6467 46.0988 72.3789 45.697 72.0776 45.3623C71.7763 45.0275 71.408 44.7931 71.0063 44.6258C70.6046 44.4584 70.1694 44.3914 69.7342 44.3914C69.2989 44.3914 68.8637 44.4584 68.462 44.6258C68.0603 44.7931 67.692 45.0275 67.3907 45.3623C67.0894 45.697 66.8216 46.0988 66.6542 46.5675C66.4868 47.0362 66.3864 47.6053 66.3864 48.2079C66.3864 48.8105 66.4868 49.3796 66.6542 49.8818C66.8216 50.3505 67.0894 50.7522 67.3907 51.087C67.692 51.4217 68.0603 51.6561 68.462 51.8235C68.8637 51.9909 69.2989 52.0578 69.7342 52.0578Z" fill="black"/>
<path d="M79.9449 44.6927V53.5978H77.7688V44.6927H75.7601V42.7844H77.7688V40.9766C77.7688 40.374 77.8692 39.8384 78.0366 39.3697C78.2375 38.901 78.4718 38.4993 78.8066 38.198C79.1414 37.8967 79.5096 37.6624 79.9449 37.495C80.3801 37.3276 80.8487 37.2606 81.3174 37.2606C81.6857 37.2606 81.9535 37.2941 82.1879 37.3611C82.3887 37.428 82.5226 37.4615 82.5896 37.495V39.3697C82.5226 39.3362 82.4222 39.3028 82.2883 39.2693C82.1544 39.2358 81.9535 39.2358 81.6857 39.2358C81.5183 39.2358 81.3174 39.2693 81.1166 39.3028C80.9157 39.3697 80.7148 39.4367 80.5475 39.5706C80.3801 39.7045 80.2461 39.9054 80.1457 40.1397C80.0453 40.374 79.9783 40.6753 79.9783 41.0771V42.7844H82.5896V44.6927H79.9449Z" fill="black"/>
<path d="M95.4116 53.9326C94.3738 53.9326 93.3695 53.7652 92.4321 53.3969C91.4947 53.0287 90.6578 52.493 89.9213 51.79C89.1847 51.087 88.6156 50.2166 88.1804 49.1788C87.7452 48.1409 87.5109 46.9692 87.5109 45.6301C87.5109 44.291 87.7452 43.1193 88.1804 42.0815C88.6156 41.0437 89.2182 40.1732 89.9547 39.4702C90.6912 38.7672 91.5282 38.2315 92.499 37.8633C93.4364 37.495 94.4073 37.3276 95.4116 37.3276C96.3155 37.3276 97.1524 37.4615 97.9224 37.6959C98.6924 37.9302 99.362 38.265 99.9646 38.7002C100.567 39.1354 101.069 39.6711 101.471 40.3072C101.873 40.9432 102.208 41.6463 102.408 42.3828L100.366 43.0858C100.065 41.8806 99.4959 40.9432 98.6589 40.3072C97.822 39.6711 96.7172 39.3363 95.4116 39.3363C94.7086 39.3363 94.0055 39.4702 93.3025 39.738C92.633 40.0059 92.0303 40.4076 91.4947 40.9098C90.9591 41.4454 90.5239 42.0815 90.2226 42.8849C89.9213 43.6549 89.7539 44.5923 89.7539 45.6301C89.7539 46.6679 89.9213 47.5718 90.2226 48.3753C90.5239 49.1788 90.9591 49.8148 91.4947 50.3505C92.0303 50.8861 92.633 51.2879 93.3025 51.5557C93.9721 51.8235 94.6751 51.9574 95.4116 51.9574C96.0812 51.9574 96.6838 51.857 97.2529 51.6561C97.822 51.4552 98.2907 51.1874 98.7259 50.8526C99.1611 50.5179 99.4959 50.1161 99.7972 49.6474C100.098 49.1788 100.333 48.6766 100.467 48.1409L102.408 48.844C102.208 49.5805 101.873 50.2835 101.471 50.9196C101.036 51.5557 100.534 52.0913 99.9646 52.5265C99.362 52.9617 98.6924 53.33 97.9224 53.5978C97.1524 53.8322 96.3155 53.9326 95.4116 53.9326Z" fill="black"/>
<path d="M106.124 53.5978H104.015V37.3276H106.124V44.0567C106.526 43.4875 106.995 43.0858 107.597 42.8515C108.167 42.6171 108.803 42.4832 109.405 42.4832C110.041 42.4832 110.61 42.5836 111.113 42.818C111.615 43.0523 112.017 43.3202 112.318 43.7219C112.653 44.0901 112.887 44.5588 113.021 45.0945C113.188 45.6301 113.255 46.1658 113.255 46.7684V53.6313H111.146V47.1366C111.146 46.7684 111.113 46.4001 111.012 46.0653C110.945 45.7305 110.778 45.4627 110.577 45.1949C110.376 44.9606 110.108 44.7597 109.807 44.6258C109.472 44.4919 109.104 44.4249 108.635 44.4249C108.234 44.4249 107.865 44.4919 107.564 44.6593C107.263 44.7932 106.995 44.994 106.794 45.2619C106.593 45.5297 106.426 45.831 106.325 46.1658C106.225 46.5005 106.158 46.8688 106.124 47.304V53.5978Z" fill="black"/>
<path d="M114.963 50.7186C114.963 50.2499 115.03 49.8147 115.197 49.4129C115.364 49.0447 115.599 48.7099 115.866 48.4421C116.168 48.1743 116.503 47.9399 116.904 47.806C117.306 47.6386 117.741 47.5047 118.21 47.4377L121.123 47.0025C121.457 46.9691 121.658 46.8686 121.792 46.7012C121.892 46.5673 121.959 46.3665 121.959 46.1991C121.959 45.6634 121.792 45.2282 121.424 44.8265C121.056 44.4582 120.453 44.2574 119.649 44.2574C118.913 44.2574 118.31 44.4582 117.909 44.86C117.507 45.2617 117.273 45.7973 117.206 46.4334L115.197 45.9647C115.264 45.4626 115.398 44.9939 115.666 44.5587C115.9 44.1234 116.235 43.7552 116.636 43.4539C117.038 43.1526 117.473 42.9182 118.009 42.7509C118.511 42.5835 119.08 42.483 119.649 42.483C120.453 42.483 121.156 42.5835 121.725 42.8178C122.294 43.0187 122.763 43.32 123.131 43.6882C123.499 44.0565 123.767 44.4582 123.901 44.9604C124.069 45.4291 124.136 45.9312 124.136 46.4669V51.8903C124.136 52.359 124.136 52.7607 124.169 53.0285C124.202 53.2963 124.236 53.5307 124.269 53.6646H122.194C122.16 53.5307 122.127 53.3633 122.127 53.129C122.093 52.8946 122.093 52.5933 122.093 52.1916C121.959 52.3924 121.826 52.5933 121.625 52.7942C121.424 52.995 121.189 53.1959 120.922 53.3633C120.654 53.5307 120.319 53.6981 119.917 53.7985C119.516 53.8989 119.114 53.9659 118.612 53.9659C118.043 53.9659 117.574 53.8655 117.105 53.6981C116.67 53.5307 116.268 53.2964 115.967 52.9951C115.666 52.6938 115.398 52.359 115.23 51.9572C115.03 51.5555 114.963 51.1538 114.963 50.7186ZM118.879 52.1581C119.315 52.1581 119.716 52.0912 120.118 51.9907C120.486 51.8903 120.821 51.6894 121.123 51.4551C121.39 51.2207 121.625 50.886 121.792 50.4507C121.959 50.049 122.026 49.5468 122.026 48.9442V48.4421L118.712 48.9442C118.277 49.0112 117.875 49.1786 117.574 49.4464C117.273 49.7142 117.139 50.0825 117.139 50.5512C117.139 50.9529 117.306 51.3212 117.607 51.6559C117.909 52.0242 118.344 52.1581 118.879 52.1581Z" fill="black"/>
<path d="M128.655 53.5978H126.546V42.7845H128.622V44.3245C129.023 43.6549 129.492 43.1862 130.095 42.8849C130.697 42.6171 131.3 42.4497 131.936 42.4497C132.572 42.4497 133.141 42.5501 133.643 42.7845C134.145 43.0188 134.547 43.2866 134.848 43.6884C135.183 44.0566 135.418 44.5253 135.551 45.061C135.719 45.5966 135.786 46.1323 135.786 46.7349V53.5978H133.677V47.1031C133.677 46.7349 133.643 46.3666 133.543 46.0318C133.476 45.697 133.308 45.4292 133.108 45.1614C132.907 44.9271 132.639 44.7262 132.338 44.5923C132.003 44.4584 131.635 44.3914 131.166 44.3914C130.731 44.3914 130.396 44.4584 130.061 44.6258C129.76 44.7931 129.492 44.994 129.291 45.2618C129.09 45.5297 128.923 45.831 128.822 46.1992C128.722 46.5675 128.655 46.9357 128.655 47.3375V53.5978Z" fill="black"/>
<path d="M139.535 53.7315C139.602 54.5015 139.903 55.1376 140.439 55.6398C140.975 56.1419 141.644 56.4098 142.481 56.4098C143.619 56.4098 144.456 56.1085 144.992 55.5393C145.528 54.9702 145.796 54.0663 145.796 52.8946V51.3546C145.528 51.8568 145.126 52.2585 144.557 52.6268C143.988 52.9615 143.285 53.1289 142.481 53.1289C141.778 53.1289 141.109 52.995 140.506 52.7272C139.903 52.4594 139.368 52.0911 138.933 51.6559C138.497 51.1872 138.163 50.6516 137.895 50.0155C137.66 49.3794 137.527 48.6764 137.527 47.9064C137.527 47.1699 137.66 46.5003 137.895 45.8643C138.129 45.2282 138.464 44.6591 138.899 44.1904C139.334 43.7217 139.87 43.3534 140.473 43.0521C141.075 42.7843 141.745 42.6504 142.515 42.6504C143.352 42.6504 144.055 42.8178 144.59 43.0856C145.159 43.3869 145.561 43.7886 145.829 44.3578V42.8513H147.905V52.8611C147.905 53.5641 147.804 54.2337 147.637 54.8698C147.469 55.5059 147.168 56.1085 146.733 56.6106C146.298 57.1128 145.762 57.5145 145.059 57.8158C144.356 58.1171 143.519 58.2845 142.481 58.2845C141.812 58.2845 141.176 58.1841 140.606 57.9832C140.037 57.7823 139.535 57.5145 139.067 57.1463C138.631 56.778 138.263 56.3763 137.995 55.8741C137.727 55.3719 137.56 54.8363 137.493 54.2672L139.535 53.7315ZM142.783 51.3211C143.686 51.3211 144.423 51.0198 144.992 50.3838C145.561 49.7477 145.829 48.9107 145.829 47.8729C145.829 46.8351 145.561 45.9982 144.992 45.3621C144.423 44.726 143.686 44.4247 142.783 44.4247C141.845 44.4247 141.075 44.726 140.506 45.3621C139.937 45.9982 139.669 46.8351 139.669 47.8729C139.669 48.9442 139.937 49.7812 140.506 50.4172C141.075 51.0533 141.812 51.3211 142.783 51.3211Z" fill="black"/>
<path d="M159.957 50.5177C159.823 50.9864 159.588 51.4551 159.287 51.8568C158.986 52.2585 158.651 52.6268 158.216 52.9281C157.814 53.2294 157.345 53.4637 156.81 53.6646C156.274 53.832 155.705 53.9324 155.069 53.9324C154.366 53.9324 153.663 53.7985 152.993 53.5642C152.324 53.2964 151.755 52.9281 151.252 52.4259C150.75 51.9238 150.349 51.3212 150.047 50.6181C149.746 49.9151 149.612 49.0782 149.612 48.1743C149.612 47.3038 149.746 46.5338 150.047 45.8643C150.349 45.1613 150.717 44.5587 151.186 44.0565C151.654 43.5543 152.223 43.1526 152.826 42.8848C153.462 42.6169 154.098 42.483 154.768 42.483C155.605 42.483 156.341 42.6169 156.977 42.8848C157.613 43.1526 158.182 43.5543 158.618 44.0565C159.053 44.5587 159.388 45.1613 159.622 45.8308C159.856 46.5338 159.957 47.3038 159.957 48.1408C159.957 48.2747 159.957 48.4086 159.957 48.509C159.957 48.6095 159.923 48.7434 159.923 48.8103H151.788C151.788 49.279 151.889 49.7142 152.056 50.1494C152.223 50.5512 152.458 50.9194 152.726 51.1873C153.027 51.4886 153.362 51.6894 153.763 51.8568C154.165 52.0242 154.6 52.0912 155.035 52.0912C155.906 52.0912 156.609 51.8903 157.044 51.4551C157.513 51.0533 157.848 50.5177 158.048 49.9151L159.957 50.5177ZM157.848 47.103C157.814 46.333 157.546 45.6634 157.078 45.1278C156.575 44.5921 155.872 44.3243 154.902 44.3243C154.466 44.3243 154.065 44.3913 153.696 44.5587C153.328 44.726 153.06 44.9269 152.792 45.1947C152.558 45.4626 152.357 45.7639 152.19 46.0986C152.022 46.4334 151.956 46.7682 151.956 47.103H157.848Z" fill="black"/>
<path d="M12.5876 41.479H0V54.0666H12.5876V41.479Z" fill="black"/>
<path d="M0 0C0.334778 6.79598 5.79165 12.2863 12.5876 12.5876V0H0Z" fill="black"/>
<path d="M26.4139 0H13.8263V12.5876H26.4139V0Z" fill="black"/>
<path d="M26.4139 13.8263H13.8263V26.4139H26.4139V13.8263Z" fill="black"/>
<path d="M40.2401 13.8263H27.6525V26.4139H40.2401V13.8263Z" fill="black"/>
<path d="M40.2401 27.6525H27.6525V40.2401H40.2401V27.6525Z" fill="black"/>
<path d="M54.0667 27.6525H41.479V40.2401H54.0667V27.6525Z" fill="black"/>
<path d="M54.0667 0H41.479V12.5876H54.0667V0Z" fill="black"/>
<path d="M54.0667 54.0666V41.479H41.479C41.8138 48.275 47.2707 53.7319 54.0667 54.0666Z" fill="black"/>
</g>
<defs>
<clipPath id="clip0_0_107">
<rect width="170" height="58.2178" fill="white"/>
</clipPath>
</defs>
</svg>
