<svg width="154" height="72" viewBox="0 0 154 72" fill="none" xmlns="http://www.w3.org/2000/svg">
<path d="M1 71.4793C43.4129 56.5101 84.2773 37.1481 126.339 21.1938" stroke="white" stroke-opacity="0.37" stroke-width="0.5" stroke-linecap="round" stroke-linejoin="round"/>
<path d="M81.3068 45.9613C101.988 37.5008 124.029 32.7599 144.351 23.4454" stroke="white" stroke-opacity="0.37" stroke-width="0.5" stroke-linecap="round" stroke-linejoin="round"/>
<path d="M94.0657 27.198C109.084 21.9214 123.34 13.3113 137.596 6.18317" stroke="white" stroke-opacity="0.37" stroke-width="0.5" stroke-linecap="round" stroke-linejoin="round"/>
<path d="M142.1 8.43479C142.45 7.62201 145.374 -0.555519 145.894 1.26305C146.24 2.47541 146.779 3.89121 147.187 5.26588C147.985 7.96011 147.801 7.41705 150.689 6.89203C151.543 6.73683 155.07 5.2217 152.982 7.30899C151.095 9.19662 146.292 12.4287 148.688 15.3563C152.189 19.6356 148.576 18.5496 146.228 15.9401C143.398 12.7957 141.417 16.573 140.64 20.068C139.962 23.1198 140.511 13.8158 138.347 13.6885C136.523 13.5812 127.16 16.6306 131.259 14.0221C134.571 11.9139 138.158 11.5312 141.349 9.93585" stroke="white" stroke-opacity="0.37" stroke-width="0.5" stroke-linecap="round" stroke-linejoin="round"/>
</svg>
