<svg width="636" height="193" viewBox="0 0 636 193" fill="none" xmlns="http://www.w3.org/2000/svg">
<path d="M178.999 167.379C177.089 156.299 175.042 145.085 173.064 134.208C172.245 129.884 171.495 125.493 170.676 121.169C170.335 119.278 169.994 117.453 169.653 115.562C168.835 110.833 167.948 105.901 166.993 101.172C165.287 92.9299 163.718 85.2958 162.149 77.8644C161.535 75.0945 160.853 72.1895 160.103 69.2845C158.943 64.8257 157.511 60.1642 155.191 55.9756C154.168 54.1515 153.077 53.2733 151.576 53.0031H151.371C150.962 52.9355 150.621 52.8679 150.348 52.8679C150.144 52.8679 150.007 52.8679 149.802 52.9355C149.12 53.0706 147.756 53.6786 146.937 54.2191C143.936 56.0432 142.367 57.0565 139.638 59.286C136.5 61.8532 133.567 64.623 131.043 67.3254C128.587 69.9601 126.336 72.9327 124.085 76.3781L121.357 80.6343L121.561 75.635C121.629 73.338 121.766 71.1762 121.902 69.0143C122.175 65.4337 122.653 61.7856 123.13 58.3401V58.2726C122.516 58.5428 121.902 58.813 121.22 59.0157C118.901 60.2993 116.718 61.8532 114.671 63.6097C112.011 65.8391 109.419 68.2036 107.031 70.7708C106.349 71.5815 105.667 72.3922 104.985 73.1354L104.03 74.2163C102.802 75.635 101.779 77.2564 101.097 79.0129C100.824 81.2423 100.551 83.5393 100.346 85.7687L100.278 86.4443C100.142 87.7279 100.142 88.9439 100.142 90.2951C100.142 90.7004 100.142 91.1058 100.142 91.5111C100.073 94.889 100.21 98.4021 100.619 102.32C101.028 106.644 101.574 111.103 102.256 116.035L102.461 117.656L100.824 117.589C96.2533 117.386 91.6147 117.183 87.1807 117.048L85.8846 116.981C82.8831 116.845 80.0863 116.778 77.4941 116.71C72.8554 116.575 68.6261 116.508 64.6014 116.508C64.3285 116.508 64.0556 116.508 63.7828 116.508C63.5781 116.508 63.3735 116.508 63.1688 116.508H61.8045L61.7363 115.156C61.5999 109.279 61.8728 102.928 62.6231 95.1593C62.8278 93.1325 63.0324 91.1058 63.2371 89.1466C63.851 83.2015 64.3967 77.1213 64.9424 71.1086C65.4882 65.0284 65.9657 58.8806 66.4432 52.9355C67.1936 44.0854 67.8757 34.8975 68.8307 25.9123C68.8307 25.642 68.8989 25.4394 68.8989 25.1691L68.9672 24.6962L69.1036 23.5477L70.2633 23.4802C77.767 22.8722 85.6117 22.6019 94.4115 22.6019C96.3215 21.9263 98.1634 20.9805 99.7323 19.7645C103.757 17.0622 107.782 13.4816 111.806 9.09031C113.853 6.99601 115.627 4.69904 117.195 2.33451L117.741 1.18602L118.219 0.240206H118.15H118.014C110.647 -0.0300258 103.143 -0.0300258 95.5712 0.0375323L92.2968 0.10509C86.5667 0.172648 80.632 0.240206 74.8337 0.442881C70.2633 0.577997 65.3517 0.915787 59.3488 1.52381C57.3705 1.72648 55.1876 2.06427 52.7319 2.60474C49.7304 3.21276 46.5925 3.88834 43.3864 4.63148C40.9988 5.44218 38.7477 6.59066 36.7013 8.1445C31.9262 11.3873 27.0147 15.711 22.1714 20.913C19.7156 23.4126 17.5327 26.1825 15.6227 29.0875C14.6677 30.7764 14.3948 31.6547 14.3266 32.0601C14.3948 32.0601 14.5312 32.0601 14.5995 31.9925C22.5807 30.1684 30.4254 28.4119 38.4067 27.0608C42.0903 26.4527 45.9786 25.9123 50.6172 25.3042L52.2544 25.1016L52.118 26.723C51.9133 29.4253 51.7769 32.1952 51.5722 34.8975C51.2311 39.4914 50.9583 44.2881 50.6854 49.0171C50.4126 53.6786 50.2079 58.4753 50.0715 63.0692C50.0033 64.8933 49.9351 66.6498 49.8668 68.4739C49.7304 72.2571 49.5258 76.0404 49.3893 79.8236C48.9118 90.8356 48.4343 102.253 47.8204 113.468C47.7522 114.278 47.7522 115.089 47.6839 115.832L47.6157 117.048L46.3879 117.116C39.2934 117.589 32.0626 117.994 24.8318 118.197C22.8535 118.872 20.9435 119.886 19.2381 121.169C15.077 124.007 10.9158 127.722 6.75469 132.181C4.64001 134.343 2.7982 136.707 1.16103 139.207C0.81995 139.95 0.410657 140.761 0.0695801 141.504C0.0695801 141.504 0.0695801 141.504 0.137796 141.504H0.274226H0.410657C4.84466 141.301 9.27866 141.031 13.6444 140.829L14.3948 140.761C15.6909 140.693 17.1234 140.491 18.4195 140.356C19.1017 140.288 19.7838 140.153 20.5342 140.085C22.0349 139.883 23.4675 139.748 24.9682 139.545C32.5401 138.464 40.726 137.451 48.9118 136.843C62.3503 135.897 75.9251 135.694 89.7729 135.491C91.2736 134.951 92.7061 134.208 94.0022 133.194C95.9805 131.843 97.9587 130.222 99.937 128.398L101.574 126.844L102.188 129.006C102.325 129.479 102.461 129.884 102.597 130.357C102.734 130.762 102.87 131.1 103.007 131.37C103.007 131.37 103.007 131.37 103.007 131.438C103.075 131.438 103.143 131.438 103.28 131.438C103.416 131.438 103.484 131.438 103.621 131.438H103.689C103.893 131.438 104.507 131.303 106.076 130.56L106.213 130.492C107.304 129.817 108.327 129.141 109.419 128.465C112.148 126.506 114.808 124.344 117.264 121.98C121.084 118.534 124.358 114.751 127.428 110.225C128.519 108.603 129.201 106.644 129.679 105.293C130.566 102.591 131.248 99.6857 131.862 96.9158C131.998 96.3753 132.135 95.8349 132.203 95.2944L132.68 93.2001C133.021 91.8489 133.294 90.4302 133.635 89.079L134.795 84.0122L136.228 89.0115C137.183 92.3218 138.069 95.8349 138.82 99.483C139.57 103.064 140.32 106.644 141.071 110.225L141.412 111.914C142.913 119.21 144.277 126.371 145.368 132.384C147.142 142.112 148.984 151.976 150.689 161.501C151.576 166.433 152.463 171.297 153.35 176.229L154.236 180.89C154.782 183.931 155.328 186.903 155.874 189.943C156.488 189.943 157.101 189.741 157.715 189.268L157.784 189.2L157.852 189.133L158.67 188.592C159.489 188.119 160.308 187.579 161.126 187.106C163.855 185.147 166.515 182.985 168.971 180.688C171.427 178.391 173.746 175.891 175.929 173.256C176.679 172.243 177.43 171.162 178.18 170.149L178.248 170.081L178.316 170.014C178.999 169.203 179.203 168.392 178.999 167.379Z" fill="#E60E2D"/>
<path d="M240.323 147.313C240.186 141.301 240.05 135.356 239.982 129.343L239.845 123.195C239.709 117.993 239.709 112.656 239.709 107.522C239.709 105.495 239.709 103.401 239.709 101.374C239.709 98.8067 239.641 96.172 239.641 93.6723C239.641 92.5914 239.641 91.4429 239.572 90.362C239.572 87.5921 239.368 84.6871 239.231 81.9172C239.163 81.1741 239.163 80.3634 239.095 79.6202C238.959 76.5126 238.686 73.4049 238.276 70.3648C237.731 65.8384 236.912 60.6364 234.797 56.1776C234.456 55.4345 233.979 54.8264 233.297 54.286C233.092 54.0833 232.614 54.0157 232.137 54.0157C231.728 54.0157 231.182 54.0833 230.773 54.1509C228.385 54.7589 225.657 56.583 223.746 57.9341C219.04 61.1769 215.015 65.0953 210.922 69.2163C207.92 72.1889 204.919 75.9721 201.986 80.3634C200.758 82.1875 199.803 83.6737 198.984 85.0924C198.029 86.7814 197.211 88.4028 196.392 90.1593C196.324 90.362 196.187 90.5646 196.119 90.7673L194.141 94.9559L193.527 90.362C192.708 84.2142 191.89 77.5935 191.344 71.0404L190.935 65.7033C190.935 65.0953 190.867 64.5548 190.867 63.9468C190.798 63.2712 190.798 62.6632 190.73 61.9876V61.8525V61.7174C190.73 61.5822 190.798 61.4471 190.798 61.2445C190.867 60.9067 190.798 60.5689 190.798 60.1635C190.798 59.9609 190.73 59.6906 190.73 59.4879C190.662 58.6097 190.662 57.7314 190.662 56.8532L190.594 56.9207L189.775 57.2585C188.07 58.2043 186.501 59.3528 185 60.6364C183.022 62.2578 181.112 64.0143 179.406 65.906L178.656 66.7842C178.179 67.3247 177.701 67.8651 177.224 68.4732C176.337 69.4865 175.586 70.635 175.109 71.9186C174.7 73.9454 174.768 76.1072 174.836 78.2691C174.836 78.8771 174.904 79.4851 174.904 80.0932C174.904 81.4443 174.972 82.7955 175.041 84.1466C175.041 84.552 175.109 85.0249 175.109 85.4302C175.314 89.281 175.518 92.8616 175.791 96.2395L176.064 99.4148C176.61 106.035 177.087 112.926 177.769 119.682C178.179 123.871 178.724 127.451 179.406 130.694V130.829C179.543 131.572 179.952 133.396 180.566 133.396C180.634 133.396 180.771 133.396 180.907 133.329C183.636 132.518 186.16 130.424 188.479 128.6L188.616 128.532C190.867 126.708 193.663 124.141 195.574 121.979C197.347 120.088 198.643 118.331 200.28 116.034C200.69 115.426 201.099 114.48 201.44 113.737C201.576 113.467 201.645 113.197 201.781 112.994C203.077 110.224 203.964 107.251 204.851 104.346C204.987 103.874 205.124 103.401 205.26 102.928C207.17 96.7124 209.08 90.6998 211.195 84.6871L212.764 80.3634L213.787 84.8222C214.674 88.673 215.083 92.659 215.356 95.6315C215.902 103.468 215.97 111.44 215.97 119.142V121.168C215.97 126.37 216.038 131.64 216.038 136.774C216.038 138.869 216.038 140.895 216.106 142.99C216.106 148.057 216.311 153.191 216.447 158.123C216.516 159.947 216.584 161.703 216.584 163.527L216.652 167.108C216.789 173.593 216.993 180.349 217.198 186.97V187.308C217.266 188.794 217.334 190.28 217.402 191.767V191.969V192.104C218.085 191.834 218.835 191.496 219.517 191.226C221.973 189.807 224.36 188.186 226.475 186.362C229.34 183.997 232.069 181.498 234.525 178.795C235.275 177.917 236.025 177.107 236.707 176.228L237.731 175.08C239.027 173.594 240.118 171.905 240.869 170.08C240.596 164.676 240.527 159.204 240.459 153.934C240.391 151.637 240.391 149.475 240.323 147.313Z" fill="#E60E2D"/>
<path d="M303.081 63.3388C301.99 61.5147 300.625 59.6907 298.92 57.7315C297.692 56.3128 296.123 54.6238 294.213 53.5429C292.917 52.7997 291.348 52.3268 289.779 52.2593C289.233 52.2593 288.688 52.2593 288.142 52.3944C286.846 52.5971 285.55 53.2726 284.254 53.8807C284.049 53.9482 283.844 54.0833 283.64 54.1509C282.207 54.8265 280.843 55.7047 279.547 56.583C279.206 56.8532 278.796 57.0559 278.455 57.3261C276 59.0826 273.68 60.9743 271.497 63.0686L271.429 63.1361L270.611 63.9468L270.065 64.4873L269.383 64.3522C269.314 64.3522 269.246 64.3522 269.178 64.3522C269.042 64.3522 268.769 64.3522 268.428 64.69L268.359 64.7575L268.291 64.8251C266.859 65.6358 265.426 66.6491 264.13 67.7301C262.425 69.1488 260.856 70.6351 259.355 72.1889L258.4 73.2698L257.445 74.3508C256.695 75.229 256.081 76.1748 255.671 77.1882C255.671 77.3233 255.671 77.526 255.671 77.6611V77.7287V77.7962C255.671 78.4042 255.603 78.9447 255.535 79.5527C255.467 80.0932 255.467 80.5661 255.467 81.1066C255.399 82.4577 255.33 83.7413 255.33 85.0249C255.262 86.3085 255.262 87.5921 255.194 88.8082L255.126 90.2269C254.989 93.9426 254.989 97.6583 254.921 101.306V102.32C254.853 109.413 254.853 116.98 255.671 124.479C256.081 128.059 256.49 131.91 257.172 135.626L257.309 136.301C257.786 138.936 258.195 141.368 258.877 143.868C259.628 146.368 260.515 148.327 261.674 150.016C263.107 151.975 264.471 153.394 266.518 153.664C267.063 153.731 267.541 153.799 267.95 153.799C268.701 153.799 269.383 153.731 270.133 153.596C271.566 153.259 272.998 152.583 274.431 151.907L274.567 151.84C276.272 151.029 277.841 149.948 279.547 148.732C282.685 146.503 285.55 144.003 288.142 141.706C291.143 139.004 294.213 135.829 297.692 131.64C299.807 129.073 301.717 126.303 303.354 123.465C308.265 114.75 310.858 104.009 310.858 92.3888C310.858 81.4444 308.197 71.716 303.081 63.3388ZM287.733 136.031L287.392 136.842L286.505 136.91C286.232 136.91 286.027 136.91 285.754 136.91H285.618H285.481L285.345 136.842C283.23 136.302 281.798 135.085 280.706 133.937C279.41 132.653 278.319 131.302 277.432 129.951C275.658 127.181 274.703 123.938 274.09 121.709C273.271 118.736 272.521 115.696 271.975 113.129C270.883 108.332 270.338 103.468 269.86 98.7392L269.792 97.9285V97.861V97.7934C269.519 91.9159 269.246 86.1059 269.11 80.6337C269.042 78.742 269.042 76.8504 269.042 74.9588C269.042 74.2832 269.042 73.6076 269.042 72.8645V71.0404L270.815 71.5133C273.953 72.3916 276.477 74.4859 278.387 76.1073C280.979 78.4718 283.435 81.2417 285.55 84.4845C289.506 90.4296 292.03 97.861 292.781 106.035C293.394 116.71 291.689 127.046 287.733 136.031Z" fill="#E60E2D"/>
<path d="M373.616 66.8512C374.162 63.3382 374.639 60.3656 375.117 57.393C375.662 54.2178 376.276 50.6372 377.504 47.1918C377.095 47.3269 376.754 47.5296 376.345 47.6647L375.935 47.8674C373.752 49.0834 371.638 50.5697 369.728 52.1911C367.204 54.2854 364.748 56.5823 362.497 58.9469C360.519 61.1087 357.995 63.7435 356.835 66.8512C354.584 72.6612 353.902 79.0792 353.219 85.2945C353.083 86.443 352.947 87.5239 352.878 88.6724C352.742 89.8209 352.606 90.9694 352.469 92.1179C351.787 97.7928 351.105 103.67 350.218 109.413C349.945 111.372 349.604 113.264 349.331 115.223L348.513 120.627L346.739 115.493L346.466 114.817C345.443 111.845 344.42 108.602 343.465 105.292C341.486 98.3332 339.645 91.1721 337.871 84.2811L337.462 82.5922C336.916 80.4979 336.302 78.4036 335.688 76.3769C335.483 75.7688 335.347 75.2284 335.142 74.6203L334.938 74.0123C334.597 72.7287 334.187 71.4451 333.778 70.2291C333.096 68.2699 332.346 66.3107 331.527 64.3515C331.186 63.4733 330.845 62.7301 330.504 62.0545C330.367 61.8519 330.231 61.5816 330.094 61.3114C329.958 61.1087 329.822 61.0412 329.481 60.7709C329.412 60.7709 329.344 60.7709 329.276 60.7709C329.071 60.7709 328.798 60.7709 328.389 61.1087L328.321 61.1763L328.253 61.2438C326.684 62.1221 325.251 63.1355 323.887 64.284C322.113 65.7702 320.408 67.3241 318.839 69.013C318.157 69.7562 317.475 70.5669 316.861 71.31C316.11 72.1883 315.428 73.2016 315.019 74.2826C315.019 75.1608 315.155 76.0391 315.36 76.9849C315.428 77.3902 315.496 77.7956 315.565 78.1334C315.565 78.2685 315.701 78.4712 315.837 78.7414C316.042 79.1467 316.315 79.6196 316.383 80.2952C316.588 82.1193 316.861 84.0109 317.134 85.835C317.202 85.835 317.202 85.7674 317.27 85.7674L318.907 84.5514L319.385 86.5106C319.453 86.7132 319.521 86.9835 319.521 87.1861L320.271 90.4289L321.022 93.6717C321.84 97.2523 322.591 100.833 323.341 104.346L323.478 105.021C323.887 106.913 324.228 108.872 324.637 110.764C325.592 115.696 326.615 120.762 327.775 125.694L328.116 126.978C328.867 130.153 329.617 133.463 330.572 136.639C330.708 137.044 330.777 137.449 330.913 137.855C331.732 140.625 332.55 143.53 334.051 145.894C334.256 146.232 334.597 146.57 334.87 146.907C335.006 146.975 335.552 147.043 335.756 147.043C335.825 147.043 335.961 147.043 336.029 147.043C336.097 147.043 336.166 147.043 336.234 147.043C337.325 147.043 338.485 146.502 339.645 145.894L339.917 145.759C343.533 143.935 346.807 141.097 350.15 138.057C353.424 135.085 356.289 131.774 358.95 127.924C359.495 127.181 359.905 126.235 360.382 125.356L360.45 125.221C361.337 123.465 361.951 122.046 362.565 120.56C363.52 118.128 364.407 115.561 365.294 112.791C366.658 108.264 367.545 103.603 368.227 100.09C368.432 98.9412 368.636 97.7252 368.841 96.5767C369.318 94.0771 369.796 91.5099 370.205 88.9427C371.092 83.6731 371.911 78.2685 372.661 73.0665C373.002 70.9722 373.275 68.8779 373.616 66.8512Z" fill="#E60E2D"/>
<path d="M585.356 43.6786C585.97 42.4626 586.652 41.179 587.335 39.8954L587.676 39.2873L588.426 39.2198C588.972 39.1522 589.518 39.1522 590.063 39.1522C591.7 38.6118 593.201 37.8011 594.634 36.7201C598.044 34.3556 601.523 31.3155 605.002 27.5998C606.708 25.7757 608.277 23.8841 609.641 21.7898L610.255 20.5062L610.391 20.236C608.822 20.236 607.526 20.3035 606.367 20.4386C602.547 20.9115 599.068 22.8032 595.998 24.8299C592.928 26.7891 590.063 29.3563 587.335 31.7884L586.925 32.1937C584.811 34.0854 582.832 36.1121 581.4 37.7335C578.876 40.5034 576.42 43.4759 573.896 47.1241C570.827 51.5153 568.234 55.7715 565.983 60.2303C565.506 61.1761 565.028 62.1895 564.551 63.1353L562.231 67.9995L561.959 62.6624C561.822 60.7708 561.754 58.9467 561.686 57.0551L561.549 54.5555L561.481 52.4612V51.9207L561.822 51.5153C562.436 50.8398 563.05 50.1642 563.596 49.421C564.073 48.6779 564.619 48.0023 565.096 47.2592L565.165 47.1916L565.233 47.1241C565.642 46.7187 565.779 46.3134 565.642 45.7729L564.551 43.5435L563.937 42.3274C563.664 41.7194 563.596 41.1114 563.527 40.5034C563.527 40.3007 563.527 40.098 563.459 40.0305C563.323 39.2873 562.982 38.5442 562.572 37.8011C562.163 37.8011 561.822 37.9362 561.413 38.274L561.345 38.3415L561.276 38.4091C559.435 39.4224 557.729 40.6385 556.16 41.9897C553.909 43.7462 551.726 45.908 549.884 47.7996C548.384 49.3535 546.746 51.1776 545.723 53.0016C544.905 54.4203 544.564 55.5013 544.495 56.92C544.291 59.6223 544.223 62.2571 544.154 64.8918C544.154 65.7025 544.154 66.5132 544.154 67.2564L541.426 67.5266C541.085 65.7701 540.471 63.946 539.516 61.7842C537.742 57.7307 534.741 54.4879 530.921 52.326C528.874 51.1776 526.623 50.5695 524.167 50.502C522.053 50.4344 520.006 50.7722 517.96 51.5829C516.05 52.1909 514.208 53.1367 512.639 54.4203C510.456 55.9066 508.205 57.7307 505.954 59.7574L505.203 60.433L504.316 59.9601C503.839 59.6899 503.293 59.5547 502.816 59.3521C502.202 59.217 501.656 59.0818 501.11 59.0818C500.019 59.0818 498.859 59.2845 497.359 59.825C496.404 60.1628 495.449 60.5681 494.494 60.9059C492.72 61.5815 491.151 62.1895 489.514 62.7975C483.784 64.9594 477.713 66.1754 471.846 67.3915L469.936 67.7968L468.299 68.1346V66.4457C468.299 63.6082 468.299 60.8384 468.231 58.0009C468.162 50.502 467.958 43.611 467.617 36.9904C467.412 32.5991 467.139 28.2078 466.934 23.8165V23.6139L465.093 24.357C462.773 25.7082 460.59 27.1944 458.544 28.951C455.884 31.1804 453.291 33.5449 450.904 36.1121C449.881 37.2606 448.926 38.4091 447.902 39.5576L447.834 39.6251C446.606 41.0438 445.651 42.5977 444.901 44.2866C445.31 51.5153 445.924 59.3521 446.674 68.2022L447.084 73.5393L447.152 74.2824L446.538 74.7553C443.468 77.0523 440.399 79.8897 437.329 83.1325C436.851 83.6054 436.374 84.1459 435.896 84.6863L433.304 87.6589L433.509 83.7405V83.5379V83.4027V83.2001L433.577 82.9974C435.419 77.9981 436.579 73.8095 436.169 69.4858H436.101C435.624 69.6885 435.146 69.8911 434.737 70.0262C434.123 70.364 433.509 70.7694 432.895 71.1747L429.962 73.1339L430.849 69.6885C431.121 68.6751 431.258 67.7968 431.394 66.851C431.531 65.8376 431.394 64.6216 431.19 63.5407C431.053 62.5949 430.78 61.7166 430.439 60.8384C429.689 59.0818 427.37 58.0009 425.528 57.5956C424.504 57.3253 423.413 57.1902 422.185 57.1902C421.026 57.1902 419.729 57.2578 418.365 57.3929C415.023 57.8658 412.021 59.6899 408.951 61.649C405.882 63.6758 402.676 66.3106 399.265 69.6885C395.513 73.4042 392.648 76.5794 390.26 79.687C387.191 83.7405 384.667 87.6589 382.688 91.5773C381.87 93.1987 381.051 94.7525 380.233 96.3739L379.414 97.9277C378.527 99.6842 377.777 101.373 377.027 103.265L376.89 103.603C375.321 107.318 374.162 110.426 373.275 113.399L372.934 114.615C372.524 116.033 372.047 117.52 371.638 119.006L371.296 120.087C371.16 120.695 370.955 121.303 370.819 121.911C370.137 124.275 369.318 127.18 369.796 129.748C370.137 131.909 371.774 134.477 377.709 134.612C378.459 134.612 379.278 134.612 380.096 134.544C382.893 134.274 385.485 133.261 388.146 132.18C391.147 130.964 393.876 129.342 396.809 127.451C399.879 125.491 402.676 123.262 404.858 121.438C408.406 118.465 411.953 115.087 415.432 111.372L415.568 111.237L417.819 108.805L417.956 112.047C418.229 118.6 418.57 125.019 418.979 131.099L419.047 132.45C419.252 135.625 419.525 138.868 419.798 142.111L419.866 142.719C420.002 144.273 420.139 145.826 420.48 147.313C420.889 149.137 421.367 150.826 421.981 152.582C422.049 152.785 422.117 152.92 422.185 153.123C422.39 153.123 422.731 153.055 423.208 152.717L423.277 152.65L423.345 152.582C424.163 152.109 424.914 151.569 425.732 151.096C427.711 149.677 429.621 148.123 431.394 146.434C433.168 144.745 434.873 142.989 436.442 141.03L436.783 140.489C437.193 139.881 437.602 139.341 438.011 138.733L438.079 138.665L438.148 138.598C438.625 138.125 438.762 137.652 438.625 137.111C437.465 133.936 436.715 131.166 436.306 128.464C435.965 126.235 435.76 124.005 435.624 121.843L435.555 120.897C435.419 118.871 435.214 116.844 435.078 114.817C434.669 109.818 434.259 104.616 433.986 99.4816C433.85 96.9819 433.714 94.4147 433.577 91.5097L433.509 90.3612L434.669 90.1585C437.943 89.6181 441.013 88.9425 444.014 88.2669C444.764 88.0642 445.515 87.9291 446.47 87.6589L448.039 87.2536L448.175 88.8749C448.721 96.5766 449.062 103.332 449.267 109.548C449.403 114.277 449.676 119.073 449.881 123.735C450.153 129.95 450.426 136.436 450.631 142.786L451.722 142.381C453.496 141.368 455.201 140.152 456.839 138.8C458.953 137.111 460.932 135.22 462.773 133.193C463.592 132.315 464.342 131.369 465.161 130.491C466.116 129.41 466.866 128.261 467.412 126.978V124.41C467.344 118.06 467.344 111.439 467.412 104.954C467.548 98.806 467.685 92.5231 467.89 86.5104C467.958 84.8215 468.026 83.2001 468.026 81.5111V80.6329L468.844 80.2951L470.413 79.687C472.255 78.9439 474.234 78.2008 476.144 77.4576C477.781 76.8496 479.486 76.2416 481.328 76.2416H481.464L481.601 76.3091C482.692 76.5794 483.715 76.9847 484.602 77.5927C486.103 78.5386 486.717 80.0924 487.058 81.3084C487.74 83.673 487.945 86.2402 488.149 88.6723C488.149 89.0776 488.218 89.483 488.218 89.8883C488.627 96.9819 488.832 104.211 488.9 111.372C488.968 119.073 488.968 125.964 488.627 132.99C488.559 134.342 488.491 135.625 488.422 136.976C488.422 137.382 488.422 137.855 488.354 138.26C488.354 139.003 488.354 139.746 488.218 140.557V140.827L488.081 141.097L487.467 142.111C487.331 142.313 487.194 142.516 487.058 142.786C486.649 143.394 485.83 144.813 485.694 145.286L485.762 145.894C485.83 147.515 485.967 149.002 486.239 150.488C486.444 151.366 486.649 151.974 486.922 152.447C487.331 152.988 488.286 153.123 489.309 153.19L489.65 153.258C489.787 153.258 489.923 153.258 490.06 153.258C491.356 153.325 492.583 152.717 494.016 152.042L494.289 151.907C496.199 151.028 497.972 149.88 499.746 148.731C500.019 148.529 500.36 148.326 500.633 148.191C505.408 145.151 509.842 141.232 513.594 137.855C517.687 134.071 521.507 129.883 524.918 125.356C526.828 122.857 528.942 119.884 530.784 116.574C532.285 113.871 533.649 110.899 534.945 107.724C537.537 101.171 539.038 94.212 540.539 87.0509C541.085 84.5512 541.426 81.8489 541.63 79.079L544.359 79.1466C544.359 79.5519 544.359 79.8897 544.359 80.2951C544.359 80.7004 544.359 81.1733 544.359 81.5787C544.427 84.889 544.495 88.3345 544.564 91.5773C544.632 95.901 544.768 100.36 544.905 104.751C544.973 107.318 545.109 109.953 545.246 112.52C545.382 115.358 545.519 118.33 545.587 121.235C545.655 124.208 545.791 127.248 545.928 130.288C545.996 132.247 546.133 133.801 546.269 135.287L546.337 135.76C546.405 136.368 546.474 137.044 546.542 137.652C546.61 138.192 546.678 138.733 546.746 139.206C546.746 139.273 546.746 139.408 546.815 139.476C546.815 139.611 546.815 139.746 546.883 139.814C547.019 139.814 547.088 139.814 547.224 139.814C547.77 139.814 548.247 139.611 548.793 139.206L548.861 139.138L548.929 139.071C551.112 137.855 553.159 136.368 555.137 134.747C557.661 132.653 560.048 130.423 562.231 128.059C563.937 126.235 565.506 124.275 566.87 122.249L567.006 121.978C567.689 120.627 568.371 119.276 568.78 117.925C568.985 117.249 569.189 116.506 569.326 115.695L569.667 113.871L570.008 112.047C570.281 110.764 570.485 109.413 570.69 108.129C570.758 107.589 570.895 107.116 570.963 106.575C571.372 104.211 571.713 101.779 571.986 99.3464C572.123 98.4006 572.259 97.4548 572.327 96.509C573.555 87.3211 574.715 80.2951 575.943 73.8095C578.262 62.4597 581.332 52.4612 585.356 43.6786ZM418.16 92.1177C418.024 93.6716 417.888 95.2254 417.819 96.7792C417.819 97.2522 417.751 97.6575 417.751 98.1304C417.683 99.2789 417.615 100.562 417.615 101.779V102.116L417.478 102.387C415.909 105.224 414.204 107.994 412.43 110.561C411.544 111.777 410.589 112.993 409.702 114.074C409.497 114.277 409.361 114.479 409.156 114.615L409.088 114.75L408.951 114.817C408.679 115.02 408.337 115.223 408.065 115.425H407.996H407.928C406.7 116.101 405.472 116.709 404.245 117.317H404.176H404.108C400.902 118.465 397.764 119.006 394.899 118.938C394.49 118.938 394.08 118.871 393.671 118.871H393.603H393.535C391.42 118.465 389.646 117.655 388.146 116.506C386.713 115.358 385.826 113.804 385.485 111.845V111.71V111.574C385.485 108.602 386.167 105.562 386.918 102.724C387.054 102.319 387.122 101.846 387.259 101.441C387.6 100.022 388.009 98.5357 388.487 97.117C388.691 96.509 388.828 95.9685 389.032 95.3605C389.442 94.0094 389.851 92.5906 390.465 91.2395C391.284 89.2803 392.17 87.3211 392.989 85.3619V85.2944V85.2268L393.398 84.4161C395.513 80.2275 397.696 75.9038 400.356 71.9179L400.629 71.445L401.175 71.3099C402.744 70.9721 404.449 70.7694 406.291 70.8369C406.837 70.8369 407.382 70.9045 407.928 70.9045H407.996H408.065C410.316 71.3099 412.157 72.1205 413.795 73.5393C415.705 75.1607 416.25 77.4576 416.455 79.2141V79.2817V79.3493C416.523 82.1867 415.568 84.889 414.681 87.186C413.999 89.0101 413.249 90.8341 412.499 92.6582C412.635 92.5906 412.771 92.5231 412.976 92.4555C413.999 91.8475 415.023 91.1719 416.046 90.4963L418.57 88.6723L418.16 92.1177ZM518.164 105.156C517.823 107.183 517.346 109.142 516.936 111.102L516.732 112.115C515.436 117.857 514.14 122.384 512.707 126.437L511.206 130.693L510.115 126.302L510.047 126.032C509.842 125.154 509.706 124.343 509.569 123.465L509.296 123.397C508.887 123.397 508.478 123.465 508.068 123.465L506.772 123.532L506.636 122.249L506.499 120.965C506.158 114.885 506.295 108.737 506.431 102.792C506.431 101.508 506.499 100.292 506.499 99.0086V97.5224C506.636 91.0368 506.772 84.3486 506.568 77.7954C506.568 77.255 506.568 76.6469 506.499 76.1065V75.8362L506.431 73.3366L508.614 74.6878C510.251 75.7687 511.888 77.0523 513.389 78.6737C517.414 82.9974 518.71 88.8749 519.119 92.0502V92.1177V92.1853C519.392 96.6441 518.778 101.238 518.164 105.156Z" fill="#E60E2D"/>
<path d="M634.892 33.0721C634.619 32.3965 634.005 31.7885 633.255 31.1129C632.777 30.64 632.095 30.4373 631.072 30.1671C629.571 29.8293 628.002 29.6266 626.297 29.5591C625.137 29.5591 624.046 29.5591 622.886 29.6942C621.726 29.8293 620.635 30.1671 619.68 30.5049C618.179 31.0454 616.61 31.6534 615.246 32.4641C610.198 35.5718 605.355 39.5577 599.625 45.3677C598.738 46.2459 597.988 47.0566 597.305 47.8673C595.327 50.1643 593.622 52.2586 591.78 54.8934C590.075 57.2579 588.778 60.0953 587.551 62.7977L587.482 62.8652C586.186 65.7026 585.368 68.6076 584.413 71.7153V71.7829C584.003 73.134 583.594 74.6203 583.321 76.1066C582.775 78.8765 582.775 81.6463 582.912 84.0109C583.048 87.7941 583.73 91.0369 584.89 93.9419C585.504 95.3606 586.664 96.7118 587.687 97.8603C588.915 99.2114 590.347 100.36 591.575 101.373C593.758 103.13 596.146 104.751 598.465 106.373L598.806 106.643C599.556 107.116 600.307 107.656 601.057 108.197C607.333 112.385 614.496 117.114 615.587 125.289V125.356V125.424C615.655 127.045 615.587 128.734 615.382 130.356C615.246 131.437 615.11 132.315 614.905 133.126L614.7 133.936L613.882 134.139H613.813C613.063 134.274 612.245 134.342 611.358 134.342C610.88 134.342 610.403 134.274 609.789 134.207H609.721H609.652C607.674 133.869 605.082 133.328 602.626 131.842C600.443 130.558 598.329 128.869 596.828 127.113C593.826 123.735 592.94 119.411 592.462 115.223V115.155V115.088C592.394 114.209 592.394 113.534 592.394 112.858C591.848 113.061 591.302 113.264 590.757 113.534C588.642 114.75 586.596 116.169 584.686 117.79C582.162 119.884 579.774 122.114 577.659 124.411L576.431 125.829L574.862 127.653C573.703 128.937 572.816 130.356 572.202 131.91C572.339 134.679 572.611 137.517 573.43 140.219C574.044 142.178 575.135 143.935 576.568 145.489C577.182 146.164 578 146.705 578.955 147.313C580.047 147.988 581.07 148.664 582.162 149.204C583.185 149.745 584.276 150.15 585.368 150.353C586.254 150.556 587.141 150.623 588.096 150.758C588.437 150.826 588.847 150.826 589.188 150.893C589.938 150.961 590.62 151.028 591.234 151.028C593.076 151.096 594.781 150.826 596.35 150.353C604.332 147.786 611.153 142.178 616.747 136.976C619.612 134.342 622.545 131.234 625.888 127.248C628.548 124.073 630.39 121.1 631.618 118.06C631.959 117.249 632.163 116.304 632.3 115.29L632.436 114.75C632.641 113.601 632.846 112.385 632.914 111.169C633.118 108.332 632.777 105.832 632.027 103.738C630.594 100.022 627.252 97.1171 624.455 95.0228C622.818 93.8068 621.113 92.5232 619.407 91.2396C616.883 89.4155 614.427 87.5915 612.04 85.7674C608.834 83.4029 606.378 81.1059 604.4 78.7414C602.08 75.9715 600.716 72.1882 600.17 67.1214C600.034 64.6217 600.102 62.2572 600.375 60.0278C600.58 58.3388 601.057 56.785 601.535 55.2311L601.671 54.8258C602.558 51.9208 603.308 49.4212 604.263 46.9891L604.604 46.1784L605.491 46.1108C606.037 46.1108 606.583 46.0432 607.197 46.1108C608.015 46.1108 608.834 46.1784 609.857 46.3135H609.925H609.993C610.88 46.4486 611.699 46.6513 612.517 46.9215C613.677 47.2593 614.496 47.9349 615.246 48.678C616.542 49.8941 617.292 51.3128 617.565 53.0017V53.1368V53.272C617.565 55.5689 617.156 57.8659 616.747 60.0953C616.61 60.7034 616.542 61.3114 616.406 61.9194C615.996 64.2839 615.724 66.6485 615.451 69.013C615.382 69.4859 615.314 69.8912 615.314 70.3642C615.724 70.1615 616.201 70.0264 616.61 69.8237C618.589 68.6752 620.43 67.3916 622.204 65.9053C624.523 64.0137 626.706 61.987 628.684 59.8251L629.981 58.3388L631.277 56.8525C632.3 55.6365 633.187 54.2853 633.801 52.8666C634.073 50.5696 634.415 48.2051 634.687 45.9081C634.892 44.3543 635.097 42.7329 635.301 41.1791C635.438 40.3684 635.506 39.4901 635.574 38.4767C635.642 36.0447 635.438 34.3557 634.892 33.0721Z" fill="#E60E2D"/>
</svg>
