<svg width="104" height="55" viewBox="0 0 104 55" fill="none" xmlns="http://www.w3.org/2000/svg">
<path d="M17.1881 11.203C17.7861 11.203 18.2541 11.047 18.5921 10.735C18.9301 10.423 19.0991 10.0113 19.0991 9.5C19.0991 8.97133 18.9301 8.551 18.5921 8.239C18.2541 7.91833 17.7861 7.758 17.1881 7.758H15.2381V11.203H17.1881ZM15.2381 12.178V16H14.1461V6.783H17.3571C17.7818 6.783 18.1674 6.85233 18.5141 6.991C18.8694 7.12967 19.1684 7.32033 19.4111 7.563C19.6624 7.80567 19.8531 8.09167 19.9831 8.421C20.1218 8.75033 20.1911 9.10567 20.1911 9.487C20.1911 9.877 20.1218 10.2367 19.9831 10.566C19.8531 10.8867 19.6624 11.1683 19.4111 11.411C19.1684 11.6537 18.8694 11.8443 18.5141 11.983C18.1674 12.113 17.7818 12.178 17.3571 12.178H15.2381ZM24.5558 12.139H22.9568V16H21.8648V6.783H25.2188C25.6435 6.783 26.0248 6.85233 26.3628 6.991C26.7095 7.12967 27.0042 7.32033 27.2468 7.563C27.4895 7.80567 27.6758 8.09167 27.8058 8.421C27.9358 8.75033 28.0008 9.10133 28.0008 9.474C28.0008 10.15 27.8015 10.722 27.4028 11.19C27.0042 11.658 26.4538 11.9483 25.7518 12.061L27.9878 16H26.7138L24.5558 12.139ZM25.0498 11.164C25.6132 11.164 26.0638 11.0123 26.4018 10.709C26.7398 10.4057 26.9088 9.994 26.9088 9.474C26.9088 8.954 26.7398 8.538 26.4018 8.226C26.0638 7.914 25.6132 7.758 25.0498 7.758H22.9568V11.164H25.0498ZM30.4198 11.385C30.4198 12.009 30.5151 12.5593 30.7058 13.036C30.9051 13.5127 31.1651 13.9113 31.4858 14.232C31.8064 14.544 32.1748 14.7823 32.5908 14.947C33.0154 15.103 33.4488 15.181 33.8908 15.181C34.3414 15.181 34.7748 15.103 35.1908 14.947C35.6068 14.7823 35.9751 14.544 36.2958 14.232C36.6164 13.9113 36.8721 13.5127 37.0628 13.036C37.2621 12.5593 37.3618 12.009 37.3618 11.385C37.3618 10.761 37.2621 10.215 37.0628 9.747C36.8721 9.27033 36.6164 8.876 36.2958 8.564C35.9751 8.24333 35.6068 8.005 35.1908 7.849C34.7748 7.68433 34.3414 7.602 33.8908 7.602C33.4488 7.602 33.0154 7.68433 32.5908 7.849C32.1748 8.005 31.8064 8.24333 31.4858 8.564C31.1651 8.876 30.9051 9.27033 30.7058 9.747C30.5151 10.215 30.4198 10.761 30.4198 11.385ZM29.3278 11.385C29.3278 10.6137 29.4578 9.93333 29.7178 9.344C29.9778 8.746 30.3201 8.24333 30.7448 7.836C31.1781 7.42867 31.6678 7.121 32.2138 6.913C32.7598 6.705 33.3188 6.601 33.8908 6.601C34.4628 6.601 35.0218 6.705 35.5678 6.913C36.1224 7.121 36.6121 7.42867 37.0368 7.836C37.4614 8.24333 37.8038 8.746 38.0638 9.344C38.3238 9.93333 38.4538 10.6137 38.4538 11.385C38.4538 12.1563 38.3238 12.841 38.0638 13.439C37.8038 14.0283 37.4614 14.5267 37.0368 14.934C36.6121 15.3413 36.1224 15.6533 35.5678 15.87C35.0218 16.078 34.4628 16.182 33.8908 16.182C33.3188 16.182 32.7598 16.078 32.2138 15.87C31.6678 15.6533 31.1781 15.3413 30.7448 14.934C30.3201 14.5267 29.9778 14.0283 29.7178 13.439C29.4578 12.841 29.3278 12.1563 29.3278 11.385ZM43.4036 15.038C43.8543 15.038 44.2789 14.9643 44.6776 14.817C45.0763 14.661 45.4273 14.4313 45.7306 14.128C46.0339 13.8247 46.2723 13.4477 46.4456 12.997C46.6276 12.5463 46.7186 12.0177 46.7186 11.411C46.7186 10.8043 46.6319 10.2713 46.4586 9.812C46.2853 9.35267 46.0469 8.97133 45.7436 8.668C45.4489 8.36467 45.1023 8.135 44.7036 7.979C44.3049 7.823 43.8803 7.745 43.4296 7.745H41.4666V15.038H43.4036ZM40.3746 16V6.783H43.4296C44.0103 6.783 44.5649 6.88267 45.0936 7.082C45.6309 7.28133 46.0989 7.576 46.4976 7.966C46.8963 8.356 47.2126 8.84133 47.4466 9.422C47.6893 9.994 47.8106 10.657 47.8106 11.411C47.8106 12.165 47.6893 12.828 47.4466 13.4C47.2126 13.972 46.8919 14.453 46.4846 14.843C46.0773 15.2243 45.6049 15.5147 45.0676 15.714C44.5389 15.9047 43.9843 16 43.4036 16H40.3746ZM52.9027 16.182C52.4347 16.182 52.0014 16.1127 51.6027 15.974C51.2041 15.8267 50.8574 15.6143 50.5627 15.337C50.2767 15.0597 50.0514 14.7173 49.8867 14.31C49.7221 13.894 49.6397 13.4173 49.6397 12.88V6.783H50.7317V12.854C50.7317 13.5993 50.9181 14.1757 51.2907 14.583C51.6634 14.9817 52.2007 15.181 52.9027 15.181C53.6047 15.181 54.1421 14.9817 54.5147 14.583C54.8874 14.1757 55.0737 13.5993 55.0737 12.854V6.783H56.1657V12.88C56.1657 13.4173 56.0834 13.894 55.9187 14.31C55.7541 14.7173 55.5244 15.0597 55.2297 15.337C54.9437 15.6143 54.6014 15.8267 54.2027 15.974C53.8041 16.1127 53.3707 16.182 52.9027 16.182ZM62.5181 16.182C61.9287 16.182 61.3611 16.078 60.8151 15.87C60.2777 15.6533 59.7967 15.3413 59.3721 14.934C58.9474 14.5267 58.6094 14.0283 58.3581 13.439C58.1067 12.841 57.9811 12.1563 57.9811 11.385C57.9811 10.6137 58.1111 9.93333 58.3711 9.344C58.6311 8.746 58.9734 8.24333 59.3981 7.836C59.8227 7.42867 60.3037 7.121 60.8411 6.913C61.3871 6.705 61.9461 6.601 62.5181 6.601C63.0381 6.601 63.5191 6.67033 63.9611 6.809C64.4031 6.94767 64.7974 7.147 65.1441 7.407C65.4907 7.65833 65.7811 7.966 66.0151 8.33C66.2577 8.68533 66.4354 9.084 66.5481 9.526L65.5341 9.877C65.3607 9.149 65.0097 8.59 64.4811 8.2C63.9611 7.80133 63.3067 7.602 62.5181 7.602C62.0761 7.602 61.6471 7.68433 61.2311 7.849C60.8237 8.005 60.4597 8.24333 60.1391 8.564C59.8184 8.876 59.5584 9.27033 59.3591 9.747C59.1684 10.215 59.0731 10.761 59.0731 11.385C59.0731 12.009 59.1684 12.5593 59.3591 13.036C59.5584 13.5127 59.8184 13.9113 60.1391 14.232C60.4597 14.544 60.8237 14.7823 61.2311 14.947C61.6471 15.103 62.0761 15.181 62.5181 15.181C62.9254 15.181 63.2981 15.1247 63.6361 15.012C63.9741 14.8907 64.2731 14.726 64.5331 14.518C64.7931 14.31 65.0097 14.0673 65.1831 13.79C65.3651 13.504 65.5037 13.1963 65.5991 12.867L66.5611 13.218C66.4397 13.6513 66.2577 14.05 66.0151 14.414C65.7811 14.778 65.4907 15.09 65.1441 15.35C64.8061 15.61 64.4161 15.8137 63.9741 15.961C63.5321 16.1083 63.0467 16.182 62.5181 16.182ZM68.3043 16V6.783H73.8293V7.784H69.3963V10.891H73.4263V11.892H69.3963V14.999H73.8293V16H68.3043ZM78.8489 15.038C79.2996 15.038 79.7243 14.9643 80.1229 14.817C80.5216 14.661 80.8726 14.4313 81.1759 14.128C81.4793 13.8247 81.7176 13.4477 81.8909 12.997C82.0729 12.5463 82.1639 12.0177 82.1639 11.411C82.1639 10.8043 82.0773 10.2713 81.9039 9.812C81.7306 9.35267 81.4923 8.97133 81.1889 8.668C80.8943 8.36467 80.5476 8.135 80.1489 7.979C79.7503 7.823 79.3256 7.745 78.8749 7.745H76.9119V15.038H78.8489ZM75.8199 16V6.783H78.8749C79.4556 6.783 80.0103 6.88267 80.5389 7.082C81.0763 7.28133 81.5443 7.576 81.9429 7.966C82.3416 8.356 82.6579 8.84133 82.8919 9.422C83.1346 9.994 83.2559 10.657 83.2559 11.411C83.2559 12.165 83.1346 12.828 82.8919 13.4C82.6579 13.972 82.3373 14.453 81.9299 14.843C81.5226 15.2243 81.0503 15.5147 80.5129 15.714C79.9843 15.9047 79.4296 16 78.8489 16H75.8199ZM91.3755 6.783C91.8175 6.783 92.2075 6.84367 92.5455 6.965C92.8922 7.08633 93.1825 7.25967 93.4165 7.485C93.6592 7.70167 93.8412 7.96167 93.9625 8.265C94.0925 8.56833 94.1575 8.902 94.1575 9.266C94.1575 9.76 94.0275 10.1803 93.7675 10.527C93.5162 10.8737 93.1825 11.1207 92.7665 11.268C93.0265 11.3373 93.2605 11.4457 93.4685 11.593C93.6765 11.7317 93.8499 11.9007 93.9885 12.1C94.1359 12.2907 94.2485 12.5073 94.3265 12.75C94.4045 12.9927 94.4435 13.244 94.4435 13.504C94.4435 13.868 94.3742 14.206 94.2355 14.518C94.0969 14.8213 93.9019 15.0857 93.6505 15.311C93.4079 15.5277 93.1132 15.6967 92.7665 15.818C92.4199 15.9393 92.0342 16 91.6095 16H88.5025V6.783H91.3755ZM91.3755 10.878C91.8869 10.878 92.2942 10.735 92.5975 10.449C92.9095 10.1543 93.0655 9.77733 93.0655 9.318C93.0655 8.83267 92.9052 8.45133 92.5845 8.174C92.2639 7.888 91.8132 7.745 91.2325 7.745H89.5945V10.878H91.3755ZM91.4795 15.038C92.0429 15.038 92.4935 14.895 92.8315 14.609C93.1782 14.323 93.3515 13.933 93.3515 13.439C93.3515 12.9537 93.1955 12.5637 92.8835 12.269C92.5715 11.9657 92.1339 11.814 91.5705 11.814H89.5945V15.038H91.4795ZM95.1326 6.783H96.4066L98.9156 11.06L101.425 6.783H102.699L99.4616 12.061V16H98.3696V12.061L95.1326 6.783Z" fill="#C4C4C4"/>
<g clip-path="url(#clip0_0_97)">
<path d="M102.598 38.6434C102.339 38.4747 102.024 38.415 101.721 38.4775C101.418 38.5399 101.153 38.7194 100.982 38.9767C100.924 39.065 99.5122 41.1332 97.053 41.1332C96.0856 41.1332 95.3539 40.8316 94.8811 40.2383C94.8494 40.1983 94.8176 40.1566 94.7875 40.115L94.8193 40.0983C100.6 36.7535 100.566 33.912 100.282 32.8471C99.9482 31.5705 98.8088 30.7455 97.3888 30.7455C94.0859 30.7455 91.8656 34.4553 91.8656 37.9201C91.866 38.3441 91.9029 38.7673 91.9758 39.185C90.8064 40.055 88.9853 41.1332 87.3865 41.1332C86.4559 41.1332 85.7559 40.8549 85.3082 40.3C85.1521 40.1059 85.026 39.8896 84.934 39.6583C89.3612 38.3667 91.0386 35.5269 90.7312 33.262C90.5307 31.7771 89.4281 30.7388 88.0581 30.7388C84.9774 30.7388 82.7521 33.992 82.3912 37.2201C81.8253 37.1673 81.279 36.9861 80.7941 36.6902C80.8716 36.1939 80.9113 35.6925 80.9127 35.1903C80.9127 34.1386 80.7122 33.222 80.3346 32.5387C79.8184 31.6055 78.9814 31.0905 77.9773 31.0905C77.7087 31.0934 77.4461 31.1699 77.2181 31.3116C76.99 31.4532 76.8054 31.6546 76.6842 31.8938C76.1129 32.9454 76.4771 34.9869 77.5329 36.6418C77.7315 36.9548 77.955 37.2513 78.2012 37.5285C77.6265 39.3967 76.4336 41.1516 74.8732 41.1516C74.5645 41.1671 74.2562 41.1138 73.9707 40.9956C73.6852 40.8774 73.4296 40.6973 73.2226 40.4683C72.6078 39.8017 72.2202 38.6017 72.0882 37.0918C76.432 31.6355 78.542 26.2974 77.3425 23.7709C77.1642 23.363 76.8688 23.0168 76.4936 22.776C76.1184 22.5352 75.6802 22.4105 75.2341 22.4177C72.2269 22.4177 70.4426 26.3258 69.7677 34.367C69.7259 34.8669 69.6959 35.4519 69.7009 36.0985C68.0954 38.2817 65.4657 41.1249 63.0917 41.1249C62.4151 41.1249 61.9223 40.8949 61.5881 40.42C61.5597 40.38 61.5313 40.3383 61.5046 40.295C61.5328 40.2799 61.5602 40.2632 61.5865 40.245C67.4071 36.4568 67.3285 33.622 67.0178 32.5837C66.6837 31.4471 65.6729 30.7405 64.3765 30.7405C60.985 30.7405 58.7079 34.657 58.7079 38.3151C58.7076 38.636 58.7271 38.9565 58.7664 39.275C57.6972 40.05 56.81 40.7399 55.9597 41.4082C56.0866 40.4083 56.2754 39.1434 56.4876 37.2418C56.5377 36.8602 56.5795 36.5452 56.6012 36.3919C56.7917 35.0053 54.5296 34.7253 54.284 36.2652C54.0334 37.8584 53.3501 41.1516 51.4923 41.1516C50.368 41.1516 49.7782 39.8967 49.8868 38.0701C50.0539 35.1986 51.5992 32.8571 53.5105 32.8571C54.1671 32.8571 54.5129 33.562 54.5129 33.562C55.116 34.6636 56.9888 33.7287 56.5945 32.5621C56.4108 32.0471 55.7792 30.7505 53.6024 30.7505C49.1283 30.7505 47.745 35.3036 47.5479 38.3101C47.5156 38.7854 47.5228 39.2626 47.5696 39.7367C46.9448 40.5 46.203 41.1499 45.4813 41.1499C44.7596 41.1499 44.3235 40.3566 44.5875 38.5251C44.8397 36.7768 45.0185 35.3319 45.1388 34.4853C45.6801 30.6622 40.922 30.7672 40.922 30.7672C40.922 30.7672 40.8703 28.5373 39.0375 28.5373C38.1003 28.5373 37.2683 29.2706 37.2683 30.6522C37.2739 31.0303 37.3716 31.4014 37.5529 31.7336C37.7342 32.0657 37.9937 32.3489 38.3091 32.5587V32.5587C38.0786 34.5386 37.1547 41.1499 35.1015 41.1499C34.1826 41.1499 34.1191 40.15 34.1993 39.4483C34.3129 38.4701 34.4883 36.8168 34.5468 36.3902C34.7372 35.0036 32.4752 34.7236 32.2296 36.2635C31.979 37.8568 31.2957 41.1499 29.4379 41.1499C28.3136 41.1499 27.7221 39.73 27.8124 38.0218C27.9677 35.0919 29.5448 32.8554 31.4561 32.8554C32.111 32.8554 32.4585 33.5603 32.4585 33.5603C32.9597 34.652 34.9244 33.867 34.5401 32.5604C34.373 31.9871 33.7315 30.7455 31.5546 30.7455C27.0806 30.7455 25.6973 35.2986 25.5002 38.3051C25.4702 38.7525 25.4746 39.2016 25.5135 39.6483C24.8737 40.5233 24.1035 41.1482 23.3751 41.1482C22.7068 41.1482 22.2056 40.8149 22.3276 39.2934C22.3844 38.5867 23.203 33.7587 23.1479 32.8771C23.056 31.4171 22.3977 30.7705 20.7738 30.7705C19.45 30.7767 18.1802 31.2953 17.232 32.2171C17.232 32.2171 18.044 26.1241 18.1943 24.9542C18.3614 23.7292 16.0108 23.7159 15.8554 24.9442C15.7886 25.4775 15.1621 30.3039 14.5824 34.7619C13.2759 37.6718 10.6279 42.1582 6.70854 42.1582C-0.719221 42.1582 2.70898 25.8791 9.65559 25.8791C11.2845 25.8791 10.5561 28.494 9.46514 30.0889C8.68828 31.2271 10.653 32.5371 11.7389 30.6955C14.7377 25.6075 12.21 23.7042 9.83435 23.7042C-0.49034 23.7042 -4.32284 44.4064 6.43288 44.4064C9.97302 44.4064 12.342 42.4065 13.8707 40.2533C13.7036 41.4766 13.6 42.3098 13.5783 42.4648C13.3962 43.7414 15.7702 43.6314 15.8955 42.5698C15.974 41.8882 16.3265 39.0317 16.6289 36.8518C16.796 35.6069 18.3163 33.3137 20.0521 33.3137C20.1443 33.319 20.2344 33.3433 20.3167 33.3852C20.399 33.427 20.4718 33.4853 20.5303 33.5566C20.5889 33.6278 20.632 33.7104 20.6569 33.7991C20.6819 33.8878 20.6881 33.9807 20.6753 34.072C20.6151 34.4786 19.8767 39.905 19.9268 40.7066C20.0672 42.9665 21.6743 43.4914 23.2047 43.4914C24.4176 43.4914 25.3866 42.9148 26.2119 42.0082C26.7548 42.9198 27.5935 43.4864 28.7179 43.4864C31.3057 43.4864 32.1962 41.6132 32.1962 41.6132C32.1962 41.6132 32.5052 43.4681 34.7339 43.4681C39.2447 43.4681 40.3022 35.5469 40.5294 32.9071C40.7917 32.9171 42.3889 33.0154 42.6512 33.907C42.9034 34.7686 42.1032 37.5301 42.0364 40.3733C42.003 41.8732 42.5493 43.4798 44.9082 43.4798C46.3467 43.4798 47.4777 42.8132 48.2947 42.0632C48.8376 42.9365 49.6629 43.4798 50.7656 43.4798C52.0386 43.4798 52.9007 43.0698 53.4487 42.6465C53.4119 42.8915 53.3768 43.1315 53.3434 43.3748C53.3434 43.3898 53.3434 43.4065 53.3434 43.4215C53.3434 43.3748 47.3892 47.7012 47.3892 51.7893C47.3892 53.3842 48.1243 54.4292 50.0021 54.4292C53.741 54.4292 54.8955 49.4144 55.4468 45.263C55.4735 45.0686 55.4986 44.8819 55.522 44.703C56.1067 44.2581 56.6513 43.8314 57.1793 43.4165C57.9561 42.8065 58.7062 42.2182 59.57 41.5832C59.6117 41.6499 59.6535 41.7182 59.6986 41.7815C60.4838 42.8815 61.6616 43.4614 63.1018 43.4614C65.8066 43.4614 68.3109 41.3749 70.1185 39.3334C70.3892 40.3333 70.8252 41.2982 71.5102 42.0482C71.9359 42.5143 72.4568 42.8842 73.0377 43.1328C73.6187 43.3815 74.2462 43.5032 74.8783 43.4898C77.4628 43.4898 79.2554 41.4166 80.1826 39.0067C80.9047 39.3441 81.6852 39.5399 82.4814 39.5833C82.6401 40.3897 82.9901 41.1463 83.5022 41.7899C84.1304 42.5582 85.3115 43.4731 87.3832 43.4731C89.4548 43.4731 91.483 42.3682 92.8563 41.4216C92.9231 41.5182 92.9899 41.6166 93.0618 41.7065C93.7083 42.5132 94.9262 43.4731 97.053 43.4731C100.792 43.4731 102.843 40.395 102.929 40.2633C103.013 40.1353 103.072 39.9919 103.101 39.8414C103.13 39.6908 103.128 39.5361 103.097 39.3859C103.066 39.2358 103.006 39.0932 102.92 38.9664C102.833 38.8396 102.723 38.7309 102.595 38.6467L102.598 38.6434ZM50.3262 52.0976C49.9754 52.0976 49.7365 51.8693 49.7365 51.431C49.7365 49.3928 52.9007 46.6063 52.9358 46.5979C52.5047 49.3394 51.3988 52.0976 50.3262 52.0976ZM64.3765 32.8771C64.477 32.8788 64.5734 32.917 64.6478 32.9845C64.7222 33.0519 64.7694 33.1441 64.7808 33.2437C64.9077 33.677 64.455 35.3836 61.0635 37.7701C61.2573 35.4936 62.6356 32.8771 64.3765 32.8771ZM75.2224 24.7642C76.2098 24.7642 75.3995 28.1507 72.257 32.8921C72.977 26.6074 74.0162 24.7642 75.2224 24.7642ZM87.8376 32.8771C88.3588 32.8771 88.3922 33.392 88.4173 33.577C88.5493 34.5503 87.6555 36.2735 84.7302 37.2635C85.0426 35.2019 86.3908 32.8771 87.8376 32.8771V32.8771ZM97.3854 32.8771C97.7312 32.8771 97.9401 33.1187 98.027 33.4437C98.2091 34.1303 97.3169 35.8052 94.1978 37.7301C94.2663 35.5002 95.6078 32.8771 97.3854 32.8771V32.8771Z" fill="white"/>
</g>
<defs>
<clipPath id="clip0_0_97">
<rect width="103.12" height="32.0248" fill="white" transform="translate(0 22.4174)"/>
</clipPath>
</defs>
</svg>
