<svg width="139" height="57" viewBox="0 0 139 57" fill="none" xmlns="http://www.w3.org/2000/svg">
<path d="M65.5365 26.0941C64.8496 26.0941 64.2252 25.9657 63.6008 25.7088C62.9764 25.452 62.4456 25.0988 61.9461 24.6172C61.4465 24.1356 61.1031 23.5577 60.7909 22.8514C60.5099 22.145 60.3538 21.3745 60.3538 20.4755C60.3538 19.5765 60.5099 18.7739 60.7909 18.0997C61.0719 17.4254 61.4777 16.8154 61.9461 16.3659C62.4144 15.8843 62.9764 15.5312 63.6008 15.2743C64.2252 15.0175 64.8496 14.889 65.5053 14.889C66.0985 14.889 66.6605 14.9854 67.16 15.1459C67.6595 15.3064 68.0966 15.5312 68.5025 15.8201C68.9084 16.1091 69.2206 16.4622 69.5016 16.8796C69.7826 17.297 69.9699 17.7786 70.126 18.2923L68.7835 18.7739C68.5962 17.9712 68.2215 17.3291 67.6595 16.9117C67.0975 16.4943 66.4107 16.2696 65.5365 16.2696C65.0682 16.2696 64.5999 16.3659 64.1628 16.5265C63.7257 16.7191 63.3198 16.9759 62.9764 17.3291C62.6329 17.6823 62.3519 18.1318 62.1334 18.6455C61.9148 19.1592 61.8212 19.8013 61.8212 20.4755C61.8212 21.1497 61.9148 21.7919 62.1334 22.3056C62.3519 22.8193 62.6017 23.2688 62.9764 23.6219C63.351 23.9751 63.7257 24.2319 64.1628 24.4246C64.5999 24.6172 65.0682 24.6814 65.5365 24.6814C65.9736 24.6814 66.3795 24.6172 66.7541 24.4888C67.1288 24.3604 67.441 24.1677 67.722 23.943C68.003 23.7182 68.2215 23.4614 68.4401 23.1403C68.6586 22.8193 68.7835 22.4982 68.8771 22.1129L70.1572 22.5945C70.0323 23.1082 69.8138 23.5577 69.5328 23.9751C69.2518 24.3925 68.9396 24.7456 68.5337 25.0667C68.1278 25.3878 67.6907 25.6125 67.1912 25.773C66.6605 25.9978 66.1297 26.0941 65.5365 26.0941Z" fill="white"/>
<path d="M72.6863 25.8684H71.3125V14.9523H72.6863V19.4792C72.936 19.094 73.2482 18.8371 73.6541 18.6766C74.0288 18.5161 74.4346 18.4197 74.8405 18.4197C75.2464 18.4197 75.621 18.4839 75.9645 18.6445C76.2767 18.805 76.5577 18.9976 76.745 19.2545C76.9635 19.5113 77.1196 19.8003 77.2133 20.1535C77.307 20.5066 77.3694 20.8919 77.3694 21.2772V25.8684H75.9957V21.5019C75.9957 21.2451 75.9645 21.0203 75.902 20.7956C75.8396 20.5708 75.7459 20.3782 75.621 20.2177C75.4962 20.0572 75.3088 19.9287 75.1215 19.8324C74.903 19.7361 74.6532 19.704 74.341 19.704C74.0912 19.704 73.8414 19.7682 73.6541 19.8645C73.4668 19.9608 73.2795 20.0893 73.1546 20.2819C73.0297 20.4424 72.9048 20.6672 72.8424 20.8919C72.7799 21.1167 72.7175 21.3735 72.7175 21.6304V25.8684H72.6863Z" fill="white"/>
<path d="M78.5866 23.9102C78.5866 23.5891 78.6491 23.3002 78.7427 23.0433C78.8364 22.7865 78.9925 22.5617 79.1798 22.4012C79.3672 22.2086 79.5857 22.0801 79.8667 21.9517C80.1165 21.8554 80.4287 21.7591 80.7097 21.727L82.6142 21.438C82.8327 21.4059 82.9888 21.3417 83.0513 21.2454C83.1137 21.1491 83.1761 21.0206 83.1761 20.8922C83.1761 20.539 83.0512 20.2501 82.8015 19.9932C82.5517 19.7364 82.1771 19.608 81.6463 19.608C81.1468 19.608 80.7721 19.7364 80.5223 20.0253C80.2726 20.3143 80.0853 20.6675 80.054 21.0849L78.7427 20.7638C78.774 20.4106 78.8676 20.0896 79.055 19.8006C79.2111 19.5117 79.4296 19.2548 79.6794 19.0622C79.9291 18.8695 80.2414 18.709 80.5536 18.5806C80.897 18.4522 81.2404 18.42 81.6463 18.42C82.1771 18.42 82.6142 18.4843 82.9888 18.6448C83.3635 18.8053 83.6757 18.998 83.8942 19.2227C84.1128 19.4795 84.3001 19.7364 84.3938 20.0575C84.4874 20.3785 84.5499 20.7317 84.5499 21.0527V24.6807C84.5499 25.0018 84.5499 25.2586 84.5811 25.4513C84.6123 25.6439 84.6123 25.7723 84.6435 25.8687H83.301C83.2698 25.7723 83.2698 25.6439 83.2386 25.5155C83.2074 25.3871 83.2074 25.1623 83.2074 24.9055C83.1137 25.0339 83.02 25.1623 82.8951 25.3229C82.7703 25.4513 82.6142 25.5797 82.4268 25.7081C82.2395 25.8366 82.021 25.9329 81.7712 25.9971C81.5214 26.0613 81.2404 26.1255 80.9282 26.1255C80.5536 26.1255 80.2414 26.0613 79.9604 25.9329C79.6794 25.8044 79.4296 25.6439 79.2111 25.4513C78.9925 25.2586 78.8364 25.0339 78.7427 24.7771C78.6491 24.4881 78.5866 24.1991 78.5866 23.9102ZM81.1468 24.8734C81.4278 24.8734 81.7087 24.8413 81.9585 24.7449C82.2083 24.6807 82.4268 24.5523 82.6142 24.3918C82.8015 24.2312 82.9264 24.0065 83.0513 23.7175C83.1449 23.4286 83.2074 23.1075 83.2074 22.7223V22.4012L81.0531 22.7223C80.7721 22.7865 80.5223 22.8828 80.335 23.0754C80.1477 23.2681 80.054 23.4928 80.054 23.8139C80.054 24.0707 80.1477 24.3276 80.3662 24.5523C80.5223 24.7771 80.8033 24.8734 81.1468 24.8734Z" fill="white"/>
<path d="M86.2984 25.8689V18.5808H87.6097V19.544C87.8283 19.1266 88.1405 18.8377 88.5463 18.645C88.9522 18.4524 89.3581 18.3561 89.764 18.3561C90.201 18.3561 90.6069 18.4524 91.0128 18.6771C91.4187 18.9019 91.6996 19.2551 91.887 19.7045C92.168 19.1908 92.5114 18.8056 92.9485 18.6129C93.3856 18.4203 93.7914 18.324 94.2598 18.324C94.572 18.324 94.853 18.3882 95.1652 18.4845C95.4461 18.5808 95.7271 18.7735 95.9457 18.9982C96.1642 19.2229 96.3516 19.5119 96.5077 19.8651C96.6325 20.2182 96.7262 20.6356 96.7262 21.0851V25.8047H95.3525V21.2456C95.3525 20.764 95.2276 20.3788 94.9778 20.0577C94.7281 19.7366 94.3534 19.5761 93.8539 19.5761C93.3544 19.5761 92.9797 19.7366 92.6675 20.0898C92.3553 20.443 92.2304 20.8604 92.2304 21.4062V25.8047H90.8567V21.2456C90.8567 20.764 90.7318 20.3788 90.5132 20.0577C90.2947 19.7366 89.8888 19.5761 89.3581 19.5761C88.8585 19.5761 88.4527 19.7366 88.1717 20.0898C87.8595 20.443 87.7346 20.8604 87.7346 21.4062V25.7726H86.2984V25.8689Z" fill="white"/>
<path d="M98.3809 28.726V18.5805H99.7234V19.7042C99.9108 19.351 100.223 19.0299 100.629 18.7731C101.035 18.5162 101.534 18.3878 102.096 18.3878C102.627 18.3878 103.095 18.4841 103.501 18.6768C103.907 18.8694 104.251 19.1584 104.5 19.4794C104.781 19.8326 104.969 20.2179 105.125 20.6995C105.281 21.149 105.343 21.6627 105.343 22.1764C105.343 22.7222 105.281 23.2359 105.125 23.6853C104.969 24.1348 104.75 24.5522 104.469 24.9054C104.188 25.2586 103.845 25.5154 103.439 25.708C103.033 25.9007 102.565 25.997 102.065 25.997C101.503 25.997 101.035 25.8686 100.66 25.6438C100.254 25.4191 99.9732 25.1301 99.7859 24.8091V28.6618H98.3809V28.726ZM103.938 22.2085C103.938 21.8553 103.876 21.5021 103.782 21.2132C103.689 20.8921 103.532 20.6353 103.376 20.4105C103.189 20.1858 102.97 19.9931 102.721 19.8647C102.471 19.7363 102.159 19.6721 101.847 19.6721C101.534 19.6721 101.253 19.7363 100.972 19.8647C100.723 19.9931 100.504 20.1858 100.317 20.4105C100.129 20.6353 99.9732 20.8921 99.8796 21.2132C99.7859 21.5342 99.7234 21.8553 99.7234 22.2085C99.7234 22.5937 99.7859 22.9148 99.8796 23.2359C99.9732 23.5569 100.129 23.8138 100.317 24.0385C100.504 24.2633 100.723 24.4559 100.972 24.5522C101.222 24.6806 101.503 24.7449 101.847 24.7449C102.159 24.7449 102.471 24.6806 102.721 24.5522C102.97 24.4238 103.189 24.2633 103.376 24.0385C103.564 23.8138 103.689 23.5248 103.782 23.2359C103.876 22.9469 103.938 22.5937 103.938 22.2085Z" fill="white"/>
<path d="M106.373 15.8516C106.373 15.5627 106.467 15.3058 106.654 15.1132C106.842 14.9205 107.092 14.8242 107.341 14.8242C107.622 14.8242 107.872 14.9205 108.059 15.1132C108.247 15.3058 108.34 15.5627 108.34 15.8516C108.34 16.1406 108.247 16.3653 108.059 16.558C107.872 16.7506 107.622 16.8469 107.341 16.8469C107.06 16.8469 106.842 16.7506 106.654 16.558C106.467 16.3653 106.373 16.1406 106.373 15.8516ZM106.654 25.8687V18.5806H108.028V25.8366H106.654V25.8687Z" fill="white"/>
<path d="M112.961 18.356C113.492 18.356 113.96 18.4523 114.429 18.6449C114.897 18.8375 115.24 19.1265 115.584 19.4476C115.896 19.8007 116.146 20.186 116.333 20.6676C116.52 21.1492 116.583 21.6308 116.583 22.2087C116.583 22.7545 116.489 23.2682 116.333 23.7498C116.146 24.2314 115.896 24.6167 115.584 24.9698C115.272 25.323 114.866 25.5798 114.429 25.7725C113.992 25.9651 113.492 26.0614 112.961 26.0614C112.431 26.0614 111.962 25.9651 111.494 25.7725C111.057 25.5798 110.682 25.2909 110.339 24.9698C110.026 24.6167 109.777 24.2314 109.589 23.7498C109.402 23.2682 109.34 22.7545 109.34 22.2087C109.34 21.6629 109.433 21.1492 109.589 20.6676C109.777 20.186 110.026 19.8007 110.339 19.4476C110.651 19.0944 111.057 18.8375 111.494 18.6449C111.962 18.4523 112.431 18.356 112.961 18.356ZM112.961 24.8093C113.242 24.8093 113.523 24.7451 113.804 24.6488C114.054 24.5524 114.304 24.3598 114.522 24.1351C114.741 23.9103 114.897 23.6535 114.991 23.3324C115.116 23.0114 115.178 22.6261 115.178 22.2087C115.178 21.7913 115.116 21.406 114.991 21.085C114.866 20.7639 114.71 20.5071 114.522 20.2823C114.304 20.0576 114.085 19.8971 113.804 19.8007C113.554 19.7044 113.273 19.6402 112.961 19.6402C112.68 19.6402 112.399 19.7044 112.118 19.8007C111.869 19.8971 111.619 20.0897 111.4 20.2823C111.182 20.475 111.026 20.7639 110.932 21.085C110.807 21.406 110.745 21.7592 110.745 22.2087C110.745 22.6261 110.807 23.0114 110.932 23.3324C111.057 23.6535 111.213 23.9103 111.4 24.1351C111.619 24.3598 111.837 24.5203 112.118 24.6488C112.399 24.7451 112.68 24.8093 112.961 24.8093Z" fill="white"/>
<path d="M119.267 25.8688H117.894V18.5807H119.236V19.6081C119.486 19.1586 119.829 18.8375 120.204 18.6449C120.61 18.4523 120.985 18.356 121.422 18.356C121.828 18.356 122.202 18.4202 122.546 18.5807C122.858 18.7412 123.139 18.9339 123.326 19.1907C123.545 19.4476 123.701 19.7365 123.795 20.0897C123.888 20.4429 123.951 20.8281 123.951 21.2134V25.8046H122.577V21.4381C122.577 21.1813 122.546 20.9565 122.483 20.7318C122.421 20.5071 122.327 20.3144 122.202 20.1539C122.077 19.9934 121.89 19.8649 121.703 19.7686C121.484 19.6723 121.234 19.6402 120.922 19.6402C120.641 19.6402 120.423 19.7044 120.204 19.8007C119.986 19.897 119.829 20.0576 119.705 20.2181C119.58 20.4107 119.455 20.6034 119.392 20.8602C119.33 21.1171 119.299 21.3739 119.299 21.6308V25.8688H119.267Z" fill="white"/>
<path d="M126.355 23.525C126.418 23.9103 126.574 24.2314 126.855 24.4882C127.136 24.7451 127.51 24.8735 128.01 24.8735C128.416 24.8735 128.697 24.7772 128.915 24.5845C129.134 24.3919 129.228 24.1672 129.228 23.9103C129.228 23.6856 129.165 23.4929 129.009 23.3324C128.853 23.1719 128.634 23.0434 128.322 22.9792L127.105 22.7224C126.543 22.594 126.105 22.3692 125.793 21.9839C125.481 21.5987 125.325 21.1813 125.325 20.6676C125.325 20.3465 125.387 20.0576 125.512 19.7686C125.637 19.4797 125.824 19.2549 126.043 19.0302C126.262 18.8054 126.543 18.6449 126.855 18.5486C127.167 18.4202 127.479 18.356 127.823 18.356C128.291 18.356 128.697 18.4202 129.04 18.5807C129.384 18.7091 129.633 18.9018 129.852 19.0944C130.071 19.287 130.227 19.5118 130.32 19.7365C130.414 19.9613 130.508 20.1539 130.539 20.3144L129.321 20.796C129.29 20.6997 129.259 20.6034 129.228 20.4429C129.165 20.3144 129.103 20.1539 129.009 20.0576C128.915 19.9292 128.759 19.8328 128.572 19.7365C128.385 19.6402 128.166 19.6081 127.885 19.6081C127.542 19.6081 127.261 19.7044 127.042 19.8971C126.824 20.0897 126.73 20.3144 126.73 20.5713C126.73 21.0208 127.011 21.3097 127.542 21.4381L128.697 21.695C129.352 21.8234 129.821 22.0803 130.164 22.4655C130.508 22.8508 130.664 23.3003 130.664 23.8461C130.664 24.1029 130.601 24.3598 130.508 24.6166C130.414 24.8735 130.227 25.1303 130.039 25.3551C129.821 25.5798 129.571 25.7404 129.228 25.9009C128.915 26.0293 128.509 26.0935 128.072 26.0935C127.573 26.0935 127.167 26.0293 126.824 25.8688C126.48 25.7404 126.199 25.5477 125.949 25.3551C125.731 25.1303 125.543 24.9056 125.419 24.6809C125.294 24.424 125.231 24.1993 125.2 24.0066L126.355 23.525Z" fill="white"/>
<path d="M63.8817 33.4459C64.4125 33.4459 64.8808 33.5422 65.3491 33.7349C65.7862 33.9275 66.1608 34.2165 66.5043 34.5375C66.8165 34.8907 67.0663 35.276 67.2536 35.7576C67.4409 36.2392 67.5034 36.7208 67.5034 37.2987C67.5034 37.8445 67.4097 38.3582 67.2536 38.8398C67.0663 39.3214 66.8165 39.7066 66.5043 40.0598C66.1921 40.413 65.7862 40.6698 65.3491 40.8624C64.912 41.0551 64.4125 41.1514 63.8817 41.1514C63.351 41.1514 62.8826 41.0551 62.4143 40.8624C61.9772 40.6698 61.6026 40.3809 61.2591 40.0598C60.9469 39.7066 60.6972 39.3214 60.5098 38.8398C60.3225 38.3582 60.2601 37.8445 60.2601 37.2987C60.2601 36.7529 60.3537 36.2392 60.5098 35.7576C60.6972 35.276 60.9469 34.8907 61.2591 34.5375C61.5714 34.1844 61.9772 33.9275 62.4143 33.7349C62.8826 33.5743 63.3822 33.4459 63.8817 33.4459ZM63.8817 39.8993C64.1627 39.8993 64.4437 39.835 64.7247 39.7387C64.9744 39.6424 65.2242 39.4498 65.4428 39.225C65.6613 39.0003 65.8174 38.7434 65.9111 38.4224C66.036 38.1013 66.0984 37.716 66.0984 37.2987C66.0984 36.8813 66.036 36.496 65.9111 36.1749C65.7862 35.8539 65.6301 35.597 65.4428 35.3723C65.2242 35.1475 65.0057 34.987 64.7247 34.8907C64.4749 34.7944 64.1939 34.7302 63.8817 34.7302C63.6007 34.7302 63.3197 34.7944 63.0387 34.8907C62.789 34.987 62.5392 35.1797 62.3207 35.3723C62.1021 35.597 61.946 35.8539 61.8523 36.1749C61.7275 36.496 61.665 36.8492 61.665 37.2987C61.665 37.716 61.7275 38.1013 61.8523 38.4224C61.9772 38.7434 62.1333 39.0003 62.3207 39.225C62.5392 39.4498 62.7578 39.6103 63.0387 39.7387C63.3197 39.8672 63.6007 39.8993 63.8817 39.8993Z" fill="white"/>
<path d="M70.6881 34.9868V40.9586H69.2519V34.9868H67.9719V33.7026H69.2831V32.4826C69.2831 32.0652 69.3456 31.712 69.4705 31.423C69.5953 31.102 69.7514 30.8451 69.97 30.6525C70.1885 30.4599 70.4383 30.2672 70.7193 30.1709C71.0003 30.0746 71.3125 30.0104 71.6247 30.0104C71.8745 30.0104 72.0618 30.0425 72.1867 30.0746C72.3428 30.1067 72.4052 30.1388 72.4364 30.1709V31.423C72.4052 31.3909 72.3428 31.3909 72.2491 31.3588C72.1554 31.3267 72.0306 31.3267 71.8432 31.3267C71.7184 31.3267 71.5935 31.3588 71.4686 31.3909C71.3437 31.423 71.2188 31.4873 71.0939 31.5836C70.9691 31.6799 70.8754 31.8083 70.8129 31.9689C70.7505 32.1294 70.7193 32.322 70.7193 32.5789V33.7347H72.4364V35.0189H70.6881V34.9868Z" fill="white"/>
<path d="M81.0846 41.1833C80.3978 41.1833 79.7733 41.0549 79.1489 40.7981C78.5245 40.5412 77.9937 40.1881 77.4942 39.7065C77.0259 39.2249 76.6512 38.647 76.339 37.9406C76.058 37.2343 75.9019 36.4637 75.9019 35.5648C75.9019 34.6658 76.058 33.8631 76.339 33.1889C76.62 32.5147 77.0259 31.9046 77.4942 31.4552C77.9625 30.9736 78.5245 30.6204 79.1489 30.3635C79.7733 30.1067 80.3978 29.9783 81.0534 29.9783C81.6466 29.9783 82.2086 30.0746 82.7081 30.2351C83.2077 30.3957 83.6447 30.6204 84.0506 30.9094C84.4565 31.1983 84.7687 31.5515 85.0497 31.9689C85.3307 32.3862 85.518 32.8678 85.6741 33.3815L84.3316 33.8631C84.1443 33.0605 83.7696 32.4183 83.2077 32.001C82.6457 31.5836 81.9588 31.3588 81.0846 31.3588C80.6163 31.3588 80.148 31.4552 79.7109 31.6157C79.2738 31.8083 78.8679 32.0652 78.5245 32.4183C78.1811 32.7715 77.9001 33.221 77.6815 33.7347C77.463 34.2484 77.3693 34.8905 77.3693 35.5648C77.3693 36.239 77.463 36.8811 77.6815 37.3948C77.9001 37.9085 78.1498 38.358 78.5245 38.7112C78.8991 39.0643 79.2738 39.3212 79.7109 39.5138C80.148 39.7065 80.6163 39.7707 81.0846 39.7707C81.5217 39.7707 81.9276 39.7065 82.3022 39.578C82.6769 39.4496 82.9891 39.257 83.2701 39.0322C83.5511 38.8075 83.7696 38.5506 83.9882 38.2296C84.1755 37.9085 84.3316 37.5874 84.4253 37.2022L85.7053 37.6838C85.5805 38.1975 85.3619 38.647 85.0809 39.0643C84.7999 39.4817 84.4877 39.8349 84.0818 40.1559C83.7072 40.4449 83.2389 40.7018 82.7393 40.8623C82.2398 41.087 81.709 41.1833 81.0846 41.1833Z" fill="white"/>
<path d="M88.2337 40.9587H86.86V30.0426H88.2337V34.5696C88.4834 34.1843 88.7957 33.9274 89.2015 33.7669C89.5762 33.6064 89.9821 33.5101 90.3879 33.5101C90.7938 33.5101 91.1685 33.5743 91.5119 33.7348C91.8241 33.8953 92.1051 34.088 92.2924 34.3448C92.511 34.6017 92.6671 34.8906 92.7607 35.2438C92.8544 35.597 92.9168 35.9822 92.9168 36.3675V40.9587H91.5431V36.5923C91.5431 36.3354 91.5119 36.1107 91.4494 35.8859C91.387 35.6612 91.2933 35.4685 91.1685 35.308C91.0436 35.1475 90.8562 35.019 90.6689 34.9227C90.4504 34.8264 90.2006 34.7943 89.8884 34.7943C89.6386 34.7943 89.3889 34.8585 89.2015 34.9548C89.0142 35.0512 88.8269 35.1796 88.702 35.3722C88.5771 35.5327 88.4522 35.7575 88.3898 35.9822C88.3273 36.207 88.2649 36.4638 88.2649 36.7207V40.9587H88.2337Z" fill="white"/>
<path d="M94.1662 39.0002C94.1662 38.6791 94.2287 38.3901 94.3223 38.1333C94.416 37.8764 94.5721 37.6517 94.7594 37.4912C94.9468 37.2985 95.1653 37.1701 95.4463 37.0417C95.6961 36.9454 96.0083 36.849 96.2893 36.8169L98.1937 36.528C98.4123 36.4959 98.5684 36.4317 98.6308 36.3353C98.6933 36.239 98.7557 36.1106 98.7557 35.9822C98.7557 35.629 98.6308 35.3401 98.3811 35.0832C98.1313 34.8264 97.7566 34.6979 97.2259 34.6979C96.7264 34.6979 96.3517 34.8264 96.1019 35.1153C95.8522 35.4043 95.6648 35.7574 95.6336 36.1748L94.3223 35.8538C94.3536 35.5006 94.4472 35.1795 94.6345 34.8906C94.7907 34.6016 95.0092 34.3448 95.259 34.1521C95.5087 33.9595 95.8209 33.799 96.1332 33.6705C96.4766 33.5421 96.82 33.51 97.2259 33.51C97.7566 33.51 98.1937 33.5742 98.5684 33.7348C98.943 33.8953 99.2553 34.0879 99.4738 34.3127C99.6924 34.5695 99.8797 34.8264 99.9733 35.1474C100.067 35.4685 100.129 35.8216 100.129 36.1427V39.7707C100.129 40.0918 100.129 40.3486 100.161 40.5412C100.192 40.7339 100.192 40.8623 100.223 40.9586H98.8806C98.8494 40.8623 98.8494 40.7339 98.8182 40.6055C98.8182 40.4449 98.7869 40.2523 98.7869 39.9954C98.6933 40.1239 98.5996 40.2523 98.4747 40.4128C98.3498 40.5412 98.1937 40.6697 98.0064 40.7981C97.8191 40.9265 97.6005 41.0228 97.3508 41.0871C97.101 41.1513 96.82 41.2155 96.5078 41.2155C96.1332 41.2155 95.8209 41.1513 95.54 41.0228C95.259 40.8944 95.0092 40.7339 94.7907 40.5412C94.5721 40.3486 94.416 40.1239 94.3223 39.867C94.2287 39.5781 94.1662 39.2891 94.1662 39.0002ZM96.7264 39.9954C97.0073 39.9954 97.2883 39.9633 97.5381 39.867C97.7879 39.8028 98.0064 39.6744 98.1937 39.5138C98.3811 39.3533 98.506 39.1286 98.6308 38.8396C98.7245 38.5507 98.7869 38.2296 98.7869 37.8443V37.5233L96.6327 37.8443C96.3517 37.9085 96.1019 38.0049 95.9146 38.1975C95.7273 38.3901 95.6336 38.6149 95.6336 38.9359C95.6336 39.1928 95.7273 39.4496 95.9458 39.6744C96.0707 39.867 96.3517 39.9954 96.7264 39.9954Z" fill="white"/>
<path d="M103.252 40.9587H101.878V33.7028H103.22V34.7302C103.47 34.2807 103.814 33.9596 104.188 33.767C104.594 33.5743 104.969 33.478 105.406 33.478C105.812 33.478 106.186 33.5422 106.53 33.7028C106.842 33.8633 107.123 34.0559 107.31 34.3128C107.529 34.5696 107.685 34.8586 107.779 35.2118C107.872 35.5649 107.935 35.9502 107.935 36.3355V40.9266H106.561V36.5602C106.561 36.3034 106.53 36.0786 106.467 35.8539C106.405 35.6291 106.311 35.4365 106.186 35.276C106.061 35.1154 105.874 34.987 105.687 34.8907C105.468 34.7944 105.218 34.7623 104.906 34.7623C104.625 34.7623 104.407 34.8265 104.188 34.9228C103.97 35.0191 103.814 35.1796 103.689 35.3402C103.564 35.5328 103.439 35.7255 103.376 35.9823C103.314 36.2392 103.283 36.496 103.283 36.7529V40.9587H103.252Z" fill="white"/>
<path d="M110.495 41.023C110.558 41.5367 110.745 41.954 111.089 42.3072C111.432 42.6283 111.869 42.8209 112.431 42.8209C113.18 42.8209 113.711 42.6283 114.055 42.243C114.398 41.8577 114.585 41.2477 114.585 40.4772V39.4498C114.429 39.7708 114.148 40.0598 113.774 40.2845C113.399 40.5093 112.962 40.6377 112.431 40.6377C111.963 40.6377 111.526 40.5414 111.12 40.3808C110.714 40.2203 110.37 39.9635 110.089 39.6424C109.808 39.3213 109.59 38.9682 109.403 38.5187C109.246 38.1013 109.153 37.6197 109.153 37.106C109.153 36.6244 109.215 36.1428 109.403 35.7255C109.559 35.3081 109.777 34.9228 110.058 34.6017C110.339 34.2807 110.683 34.0238 111.089 33.8312C111.494 33.6386 111.931 33.5422 112.431 33.5422C112.993 33.5422 113.43 33.6386 113.805 33.8312C114.179 34.0238 114.429 34.3128 114.616 34.666V33.6386H115.99V40.4129C115.99 40.8624 115.928 41.3119 115.803 41.7614C115.678 42.2109 115.491 42.5962 115.21 42.9172C114.929 43.2383 114.554 43.5272 114.117 43.7199C113.68 43.9125 113.118 44.0409 112.431 44.0409C111.994 44.0409 111.588 43.9767 111.213 43.8483C110.839 43.7199 110.495 43.5272 110.214 43.2704C109.933 43.0457 109.684 42.7567 109.496 42.4035C109.309 42.0825 109.215 41.7293 109.153 41.3119L110.495 41.023ZM112.618 39.4177C113.212 39.4177 113.711 39.1929 114.086 38.7755C114.46 38.3582 114.648 37.7802 114.648 37.0739C114.648 36.3676 114.46 35.8218 114.086 35.3723C113.711 34.9549 113.243 34.7302 112.618 34.7302C111.994 34.7302 111.494 34.9549 111.151 35.3723C110.776 35.7897 110.589 36.3676 110.589 37.0739C110.589 37.7802 110.776 38.3582 111.151 38.7755C111.494 39.1929 111.994 39.4177 112.618 39.4177Z" fill="white"/>
<path d="M124.013 38.8719C123.92 39.1929 123.763 39.4819 123.576 39.7708C123.389 40.0598 123.17 40.2845 122.889 40.5093C122.608 40.7019 122.327 40.8945 121.984 40.9909C121.64 41.1193 121.266 41.1835 120.86 41.1835C120.392 41.1835 119.955 41.0872 119.517 40.9266C119.08 40.7661 118.706 40.5093 118.393 40.1882C118.05 39.8671 117.8 39.4498 117.613 38.9682C117.426 38.4866 117.332 37.9408 117.332 37.3308C117.332 36.7528 117.426 36.2392 117.613 35.7576C117.8 35.276 118.05 34.8907 118.362 34.5375C118.674 34.2165 119.018 33.9275 119.455 33.767C119.861 33.5743 120.298 33.478 120.735 33.478C121.266 33.478 121.765 33.5743 122.171 33.767C122.608 33.9596 122.952 34.2165 123.233 34.5375C123.514 34.8586 123.732 35.276 123.888 35.7255C124.044 36.207 124.107 36.7207 124.107 37.2665C124.107 37.3629 124.107 37.4271 124.107 37.5234C124.107 37.5876 124.107 37.6839 124.076 37.716H118.768C118.768 38.0371 118.831 38.326 118.955 38.615C119.049 38.8719 119.205 39.1287 119.393 39.3213C119.58 39.514 119.798 39.6745 120.079 39.7708C120.329 39.8671 120.61 39.9314 120.922 39.9314C121.516 39.9314 121.953 39.8029 122.234 39.514C122.546 39.225 122.764 38.8719 122.889 38.4866L124.013 38.8719ZM122.608 36.5602C122.577 36.0465 122.421 35.597 122.109 35.2439C121.797 34.8907 121.297 34.6981 120.673 34.6981C120.392 34.6981 120.111 34.7623 119.892 34.8586C119.674 34.9549 119.455 35.1154 119.299 35.276C119.143 35.4686 119.018 35.6612 118.924 35.886C118.831 36.1107 118.768 36.3355 118.768 36.5602H122.608Z" fill="white"/>
<path d="M66.2857 48.2466C66.2545 48.054 66.192 47.8614 66.0984 47.6366C66.0047 47.4119 65.8798 47.2192 65.6925 47.0266C65.5052 46.834 65.2866 46.7055 65.0369 46.5771C64.7871 46.4487 64.4749 46.4166 64.1002 46.4166C63.8192 46.4166 63.5382 46.4487 63.2885 46.545C63.0387 46.6413 62.8201 46.7697 62.664 46.9303C62.4767 47.0908 62.3518 47.2834 62.2582 47.5082C62.1645 47.7329 62.1021 47.9577 62.1021 48.2145C62.1021 48.5998 62.2269 48.9209 62.4455 49.2098C62.664 49.4988 63.0075 49.6914 63.4446 49.7877L65.0056 50.1409C65.8798 50.3335 66.5355 50.7188 67.0038 51.2325C67.4721 51.7462 67.6907 52.3883 67.6907 53.1589C67.6907 53.5763 67.597 53.9615 67.4409 54.3468C67.2848 54.7321 67.035 55.0531 66.7228 55.3421C66.4106 55.6311 66.0359 55.8558 65.5988 56.0484C65.1617 56.2411 64.6622 56.3053 64.1002 56.3053C63.4758 56.3053 62.9138 56.209 62.4767 56.0163C62.0084 55.8237 61.6337 55.5668 61.2903 55.2779C60.9781 54.9889 60.7283 54.6358 60.541 54.2505C60.3537 53.8652 60.26 53.4799 60.1976 53.1268L61.5713 52.6773C61.6025 52.9662 61.665 53.2552 61.7899 53.5442C61.9147 53.8331 62.0708 54.0579 62.2582 54.2826C62.4767 54.5073 62.7265 54.6679 63.0075 54.7963C63.3197 54.9247 63.6631 54.9889 64.0378 54.9889C64.7559 54.9889 65.2866 54.8284 65.6301 54.4752C65.9735 54.1542 66.1608 53.7368 66.1608 53.2552C66.1608 52.8699 66.0359 52.5168 65.7862 52.2278C65.5364 51.9067 65.1305 51.7141 64.5998 51.5857L63.1324 51.2646C62.3831 51.1041 61.7899 50.7509 61.2903 50.2693C60.822 49.7877 60.5722 49.1456 60.5722 48.343C60.5722 47.9256 60.6659 47.5082 60.822 47.1229C61.0093 46.7376 61.2279 46.4166 61.5401 46.1276C61.8523 45.8387 62.2269 45.6139 62.6328 45.4213C63.0387 45.2286 63.507 45.1644 63.9753 45.1644C64.5685 45.1644 65.0681 45.2608 65.4739 45.4213C65.8798 45.5818 66.2233 45.8066 66.5042 46.0634C66.7852 46.3203 67.0038 46.6092 67.1599 46.9303C67.316 47.2513 67.4097 47.5403 67.4721 47.8293L66.2857 48.2466Z" fill="#717171"/>
<path d="M73.591 55.1817C73.4037 55.567 73.0915 55.8559 72.7168 56.0165C72.3109 56.2091 71.9363 56.2733 71.4992 56.2733C71.0933 56.2733 70.7187 56.2091 70.4065 56.0486C70.063 55.8881 69.8133 55.6954 69.5635 55.4386C69.3449 55.1817 69.1576 54.8606 69.0327 54.5075C68.9078 54.1543 68.8454 53.769 68.8454 53.3517V48.7926H70.2191V53.159C70.2191 53.4159 70.2503 53.6406 70.3128 53.8654C70.3752 54.0901 70.4689 54.2827 70.5938 54.4754C70.7187 54.6359 70.8748 54.7964 71.0933 54.8928C71.2806 54.9891 71.5304 55.0533 71.8426 55.0533C72.4046 55.0533 72.8105 54.8928 73.0915 54.5396C73.3725 54.1864 73.4973 53.7369 73.4973 53.1911V48.8247H74.8711V54.7322C74.8711 55.0212 74.8711 55.278 74.9023 55.5349C74.9023 55.7596 74.9335 55.9523 74.9647 56.0807H73.6534C73.6222 56.0165 73.6222 55.8559 73.6222 55.6954C73.591 55.4707 73.591 55.3101 73.591 55.1817Z" fill="#717171"/>
<path d="M76.6826 56.0487V48.7927H77.9939V49.7559C78.2125 49.3385 78.5247 49.0496 78.9305 48.857C79.3364 48.6643 79.7423 48.568 80.1482 48.568C80.5853 48.568 80.9911 48.6643 81.397 48.8891C81.7716 49.1138 82.0839 49.467 82.2712 49.9165C82.5522 49.4028 82.8956 49.0175 83.3327 48.8249C83.7386 48.6322 84.1757 48.5359 84.644 48.5359C84.9562 48.5359 85.2372 48.6001 85.5494 48.6964C85.8304 48.7927 86.1114 48.9854 86.3299 49.2101C86.5484 49.4349 86.7358 49.7238 86.8919 50.077C87.0168 50.4302 87.1104 50.8475 87.1104 51.297V56.0166H85.7367V51.4576C85.7367 50.976 85.6118 50.5907 85.362 50.2696C85.1123 49.9486 84.7376 49.788 84.2381 49.788C83.7386 49.788 83.3639 49.9486 83.0517 50.3017C82.7395 50.6549 82.6146 51.0723 82.6146 51.6181V56.0166H81.2409V51.4576C81.2409 50.976 81.116 50.5907 80.8975 50.2696C80.6789 49.9486 80.273 49.788 79.7423 49.788C79.2428 49.788 78.8369 49.9486 78.5559 50.3017C78.2437 50.6549 78.1188 51.0723 78.1188 51.6181V55.9845H76.6826V56.0487Z" fill="#717171"/>
<path d="M88.7961 56.0487V48.7927H90.1074V49.7559C90.326 49.3385 90.6382 49.0496 91.0441 48.857C91.45 48.6643 91.8558 48.568 92.2617 48.568C92.6988 48.568 93.1047 48.6643 93.5106 48.8891C93.8852 49.1138 94.1974 49.467 94.3848 49.9165C94.6658 49.4028 95.0092 49.0175 95.4463 48.8249C95.8522 48.6322 96.2893 48.5359 96.7576 48.5359C97.0698 48.5359 97.3508 48.6001 97.663 48.6964C97.944 48.7927 98.225 48.9854 98.4435 49.2101C98.6621 49.4349 98.8494 49.7238 99.0055 50.077C99.1304 50.4302 99.2241 50.8475 99.2241 51.297V56.0166H97.8503V51.4576C97.8503 50.976 97.7254 50.5907 97.4757 50.2696C97.2259 49.9486 96.8512 49.788 96.3517 49.788C95.8522 49.788 95.4775 49.9486 95.1653 50.3017C94.8531 50.6549 94.7282 51.0723 94.7282 51.6181V56.0166H93.3545V51.4576C93.3545 50.976 93.2296 50.5907 93.011 50.2696C92.7925 49.9486 92.3866 49.788 91.8558 49.788C91.3563 49.788 90.9504 49.9486 90.6694 50.3017C90.3572 50.6549 90.2323 51.0723 90.2323 51.6181V55.9845H88.7961V56.0487Z" fill="#717171"/>
<path d="M100.567 46.0314C100.567 45.7425 100.66 45.4856 100.848 45.293C101.035 45.1004 101.285 45.004 101.534 45.004C101.815 45.004 102.065 45.1004 102.252 45.293C102.44 45.4856 102.533 45.7425 102.533 46.0314C102.533 46.3204 102.44 46.5451 102.252 46.7378C102.065 46.9304 101.815 47.0267 101.534 47.0267C101.253 47.0267 101.035 46.9304 100.848 46.7378C100.66 46.5451 100.567 46.3204 100.567 46.0314ZM100.879 56.0486V48.7926H102.252V56.0486H100.879Z" fill="#717171"/>
<path d="M105.968 48.7926H107.497V50.0768H105.968V53.8654C105.968 54.1864 106.03 54.4433 106.186 54.6038C106.342 54.7644 106.592 54.8607 106.936 54.8607C107.029 54.8607 107.123 54.8607 107.217 54.8607C107.31 54.8607 107.404 54.8286 107.466 54.8286V56.0486C107.404 56.0807 107.279 56.0807 107.123 56.1449C106.967 56.177 106.748 56.2091 106.53 56.2091C105.936 56.2091 105.437 56.0165 105.094 55.6633C104.75 55.3102 104.563 54.7965 104.563 54.1222V50.1411H103.22V48.8568H103.595C103.97 48.8568 104.251 48.7605 104.438 48.5357C104.594 48.311 104.688 48.0542 104.688 47.7331V46.5452H105.936V48.7926H105.968Z" fill="#717171"/>
<path d="M111.65 49.5952C111.65 49.5309 111.65 49.4667 111.65 49.4025C111.65 49.3383 111.65 49.2741 111.65 49.2099C111.65 48.7925 111.712 48.3751 111.869 47.9899C112.025 47.6046 112.243 47.2835 112.493 46.9946C112.774 46.7056 113.117 46.4809 113.523 46.2882C113.929 46.1277 114.397 46.0314 114.928 46.0314C115.428 46.0314 115.896 46.1277 116.302 46.2882C116.708 46.4487 117.051 46.6735 117.301 46.9303C117.582 47.1872 117.769 47.5083 117.925 47.8935C118.081 48.2788 118.144 48.632 118.144 49.0494C118.144 49.6915 117.988 50.2694 117.676 50.7831C117.363 51.2968 116.926 51.7142 116.364 52.0673L114.491 53.3195C114.21 53.5121 113.96 53.7047 113.773 53.9295C113.554 54.1542 113.43 54.4111 113.336 54.7H118.238V56.0806H111.588C111.588 55.6632 111.65 55.3101 111.712 54.9569C111.806 54.6037 111.931 54.2827 112.118 53.9616C112.306 53.6405 112.524 53.3195 112.805 53.0626C113.086 52.7737 113.43 52.4847 113.835 52.2279L115.428 51.1684C115.865 50.8794 116.208 50.5583 116.427 50.2052C116.645 49.852 116.739 49.4988 116.739 49.1136C116.739 48.8888 116.708 48.6641 116.614 48.4714C116.552 48.2788 116.427 48.0862 116.271 47.9256C116.115 47.7651 115.927 47.6367 115.709 47.5404C115.49 47.444 115.209 47.4119 114.928 47.4119C114.616 47.4119 114.335 47.4761 114.116 47.5725C113.898 47.6688 113.679 47.8293 113.554 47.9899C113.398 48.1825 113.305 48.3751 113.211 48.632C113.149 48.8888 113.086 49.1457 113.086 49.4025C113.086 49.4667 113.086 49.5309 113.086 49.6273C113.086 49.6915 113.086 49.7878 113.117 49.852L111.65 49.5952Z" fill="#717171"/>
<path d="M119.299 51.1683C119.299 50.4941 119.361 49.852 119.486 49.242C119.611 48.632 119.83 48.0862 120.142 47.6046C120.454 47.123 120.86 46.7377 121.328 46.4487C121.797 46.1598 122.39 46.0314 123.045 46.0314C123.732 46.0314 124.294 46.1598 124.763 46.4487C125.231 46.7377 125.637 47.123 125.949 47.6046C126.261 48.0862 126.48 48.632 126.605 49.242C126.73 49.852 126.792 50.4941 126.792 51.1683C126.792 51.8426 126.73 52.4847 126.605 53.0947C126.48 53.7047 126.261 54.2505 125.949 54.7321C125.637 55.2137 125.231 55.599 124.763 55.888C124.294 56.1769 123.701 56.3053 123.045 56.3053C122.359 56.3053 121.797 56.1769 121.328 55.888C120.86 55.599 120.454 55.2137 120.142 54.7321C119.83 54.2505 119.611 53.7047 119.486 53.0947C119.361 52.4526 119.299 51.8426 119.299 51.1683ZM120.735 51.1683C120.735 52.6773 121.016 53.7368 121.578 54.3469C121.765 54.5395 121.984 54.7 122.202 54.8284C122.452 54.9248 122.733 54.989 123.077 54.989C123.42 54.989 123.701 54.9248 123.951 54.8284C124.201 54.7321 124.419 54.5716 124.575 54.3469C125.137 53.7368 125.418 52.6773 125.418 51.1683C125.418 49.6594 125.137 48.5999 124.575 47.9898C124.388 47.7972 124.169 47.6367 123.951 47.5083C123.701 47.4119 123.42 47.3477 123.077 47.3477C122.733 47.3477 122.452 47.4119 122.202 47.5083C121.953 47.6046 121.734 47.7651 121.578 47.9898C121.016 48.5999 120.735 49.6594 120.735 51.1683Z" fill="#717171"/>
<path d="M128.01 49.5952C128.01 49.5309 128.01 49.4667 128.01 49.4025C128.01 49.3383 128.01 49.2741 128.01 49.2099C128.01 48.7925 128.072 48.3751 128.228 47.9899C128.385 47.6046 128.603 47.2835 128.853 46.9946C129.134 46.7056 129.477 46.4809 129.883 46.2882C130.289 46.0956 130.757 46.0314 131.288 46.0314C131.788 46.0314 132.256 46.1277 132.662 46.2882C133.068 46.4487 133.411 46.6735 133.661 46.9303C133.942 47.1872 134.129 47.5083 134.285 47.8935C134.441 48.2788 134.504 48.632 134.504 49.0494C134.504 49.6915 134.348 50.2694 134.036 50.7831C133.723 51.2968 133.286 51.7142 132.724 52.0673L130.851 53.3195C130.57 53.5121 130.32 53.7047 130.133 53.9295C129.914 54.1542 129.79 54.4111 129.696 54.7H134.598V56.0806H127.947C127.947 55.6632 128.01 55.3101 128.072 54.9569C128.166 54.6037 128.291 54.2827 128.478 53.9616C128.666 53.6405 128.884 53.3195 129.165 53.0626C129.446 52.7737 129.79 52.4847 130.195 52.2279L131.788 51.1684C132.225 50.8794 132.568 50.5583 132.787 50.2052C133.005 49.852 133.099 49.4988 133.099 49.1136C133.099 48.8888 133.068 48.6641 132.974 48.4714C132.912 48.2788 132.787 48.0862 132.631 47.9256C132.475 47.7651 132.287 47.6367 132.069 47.5404C131.85 47.444 131.569 47.4119 131.288 47.4119C130.976 47.4119 130.695 47.4761 130.476 47.5725C130.258 47.6688 130.039 47.8293 129.914 47.9899C129.758 48.1825 129.665 48.3751 129.571 48.632C129.509 48.8888 129.446 49.1457 129.446 49.4025C129.446 49.4667 129.446 49.5309 129.446 49.6273C129.446 49.6915 129.446 49.7878 129.477 49.852L128.01 49.5952Z" fill="#717171"/>
<path d="M137.595 56.0487V49.1459H135.285V48.1185C135.94 48.0864 136.502 47.9259 136.939 47.5727C137.376 47.2516 137.626 46.8022 137.751 46.2563H139V56.0487H137.595Z" fill="#717171"/>
<path d="M10.3959 35.2594H0V45.9499H10.3959V35.2594Z" fill="white"/>
<path d="M0 0C0.250503 5.76389 4.79088 10.433 10.3959 10.6906V0H0Z" fill="white"/>
<path d="M21.8251 0H11.4292V10.6906H21.8251V0Z" fill="white"/>
<path d="M21.8251 11.7532H11.4292V22.4437H21.8251V11.7532Z" fill="white"/>
<path d="M33.2542 11.7532H22.8584V22.4437H33.2542V11.7532Z" fill="white"/>
<path d="M33.2542 23.5063H22.8584V34.1969H33.2542V23.5063Z" fill="white"/>
<path d="M44.6837 23.5063H34.288V34.1969H44.6837V23.5063Z" fill="white"/>
<path d="M44.6837 0H34.288V10.6906H44.6837V0Z" fill="white"/>
<path d="M44.6837 45.9499V35.2594H34.288C34.5385 41.0233 39.0788 45.6601 44.6837 45.9499Z" fill="white"/>
</svg>
