<svg width="247" height="247" viewBox="0 0 247 247" fill="none" xmlns="http://www.w3.org/2000/svg">
<mask id="mask0_0_262" style="mask-type:alpha" maskUnits="userSpaceOnUse" x="0" y="0" width="247" height="247">
<rect width="246.11" height="246.11" fill="#262626"/>
</mask>
<g mask="url(#mask0_0_262)">
<g clip-path="url(#clip0_0_262)">
<path d="M66.0895 63.6751C68.5373 61.535 70.985 59.242 73.4328 57.1019C73.5858 56.949 74.6567 56.0318 74.1977 55.7261C73.8917 55.4204 72.9738 56.1847 72.6679 56.3376C69.9141 58.7834 67.1604 61.3821 64.2537 63.828C61.9589 65.9681 59.8171 67.8025 58.8992 70.8599C56.9104 77.8917 56.1455 85.2293 56.2985 92.5669C56.2985 93.0255 58.7462 91.6497 58.7462 90.8853C58.5932 84.3121 59.3582 77.7388 60.735 71.4713C61.041 69.9427 61.347 68.2611 62.4179 67.0382C63.4888 65.6624 64.8656 64.7452 66.0895 63.6751Z" fill="black"/>
<path d="M56.7575 94.707C56.6045 94.8599 56.6045 94.8599 56.7575 94.707C56.6045 94.707 56.6045 94.8599 56.6045 94.8599L56.4515 95.0127C56.2985 95.0127 56.1455 95.1656 55.9926 95.1656C55.8396 95.1656 55.8396 95.1656 55.6866 95.3185C55.5336 95.3185 55.3806 95.4713 55.2276 95.4713C54.9217 95.6242 54.6157 95.7771 54.4627 95.93C54.1567 96.0828 53.8508 96.3886 53.5448 96.6943C53.3918 96.8471 52.9329 97.6115 53.5448 97.4586C55.3806 97 57.0635 95.9299 58.4403 94.707C59.8172 93.4841 60.8881 92.1083 61.5 90.4268C61.653 89.8153 60.8881 90.2739 60.7351 90.4268C60.4291 90.5796 60.1232 90.8854 59.8172 91.1911C59.6642 91.344 59.3582 91.6497 59.2052 91.9554C59.0523 92.2612 59.0523 92.5669 58.8993 92.8726C58.8993 93.0255 58.7463 93.1784 58.7463 93.3312C58.7463 93.3312 58.7463 93.4841 58.5933 93.4841C58.4403 93.637 58.4403 93.7898 58.2873 93.9427C58.2873 93.9427 58.2873 94.0956 58.1343 94.0956L57.9814 94.2484C57.8284 94.2484 57.8284 94.4013 57.6754 94.5542C57.6754 94.5542 57.5224 94.5541 57.5224 94.707C57.5224 94.707 57.3694 94.707 57.3694 94.8599C57.3694 94.8599 57.2164 94.8599 57.2164 95.0127C56.7575 94.707 56.7575 94.707 56.7575 94.707Z" fill="black"/>
<path d="M56.9106 94.707C57.0635 94.5541 57.0635 94.4013 56.9106 94.707V94.707Z" fill="black"/>
<path d="M79.0933 103.879C79.3992 103.573 80.1641 102.809 79.7052 102.35C79.2462 101.892 78.3283 102.503 78.0224 102.809C72.2089 108.006 64.1007 110.299 56.2985 109.229C55.6865 109.076 54.9216 109.535 54.6156 110.147C54.4626 110.299 53.6977 111.369 54.4626 111.522C63.3358 112.592 72.3619 109.841 79.0933 103.879Z" fill="black"/>
<path d="M59.3583 117.484C61.8061 118.096 64.4068 118.096 66.8546 117.943C67.6195 117.943 68.2314 117.331 68.5374 116.72C68.6904 116.414 68.9964 115.65 68.3844 115.65C66.0897 115.803 63.6419 115.803 61.5001 115.344C60.1232 115.038 58.2874 114.274 58.1344 112.592C58.1344 111.981 57.0635 112.439 56.7576 112.592C56.2986 112.898 55.5337 113.51 55.6867 114.121C55.8397 115.955 57.6755 117.025 59.3583 117.484Z" fill="black"/>
<path d="M68.6902 124.057C74.5036 120.541 78.9402 115.191 82.1529 109.229C83.9887 105.866 85.3656 102.35 86.7424 98.8344C88.1193 95.3185 89.3432 90.4268 92.2499 87.6752C92.4029 87.5223 93.4738 86.6051 93.0148 86.2994C92.7089 85.9936 91.791 86.758 91.485 86.9108C91.179 87.2166 91.026 87.5223 90.7201 87.6752C90.4141 87.6752 90.1081 87.9809 89.9551 88.1338C83.6827 93.1784 80.4701 101.586 72.3618 104.032C68.2313 105.408 63.1827 106.783 58.7462 106.019C54.9216 105.408 50.791 101.739 52.0148 97.4586C52.3208 96.6943 49.873 98.0701 49.7201 98.8344C48.4962 102.656 51.0969 106.325 54.7686 107.701C59.5111 109.535 65.4775 107.701 70.0671 106.325C74.1977 105.102 77.7163 102.962 80.776 99.7516C83.5298 96.8471 85.6716 93.3312 88.5783 90.5796C87.8133 91.8026 87.2014 93.0255 86.7424 94.4013C85.2126 97.9172 83.9887 101.433 82.4589 104.949C79.5521 111.675 75.7275 118.401 69.3021 122.223C68.8432 122.529 67.7723 123.14 67.7723 123.752C67.7723 124.516 68.2313 124.363 68.6902 124.057Z" fill="black"/>
<path d="M124.224 85.9937C130.19 85.6879 136.616 85.535 142.429 84.0064C146.866 82.7835 151.302 79.879 152.832 75.4459C153.138 74.6815 150.69 76.0573 150.537 76.8217C148.549 82.3249 141.664 82.6306 136.769 83.0892C131.108 83.7007 125.295 84.0064 119.634 84.3121C108.619 84.7707 97.4516 84.465 86.4367 83.3949C85.6717 83.3949 83.9889 85.535 84.2949 85.535C97.6046 86.6051 110.914 86.758 124.224 85.9937Z" fill="black"/>
<path d="M89.9553 209.662C90.2613 209.204 90.5672 208.592 90.7202 208.134C97.1456 214.248 103.571 220.669 112.138 223.42C117.034 225.102 122.388 225.255 127.284 223.268C132.179 221.28 136.31 217.764 141.052 215.318C141.511 215.013 142.582 214.554 142.735 213.943C142.888 213.484 143.041 213.178 142.276 213.484C137.84 215.777 133.862 218.987 129.272 221.127C124.224 223.268 118.717 222.962 113.515 221.127C104.336 217.917 97.7576 210.733 90.8732 204.159C90.7202 203.548 90.4143 202.936 89.9553 202.325C84.4478 194.682 77.5635 187.191 75.2687 177.866C73.127 168.541 73.1269 158.452 72.821 148.975C72.821 148.822 72.668 148.822 72.362 148.822C70.9852 139.65 72.209 130.172 76.1867 121.611C76.4926 121 76.0337 120.694 75.4217 120.694C74.6568 120.847 74.0449 121.459 73.7389 122.07C70.5262 128.949 68.9964 136.287 69.1493 143.777L64.2538 131.089C64.2538 130.936 64.4068 130.783 64.4068 130.631C64.4068 130.478 64.2538 130.325 63.9478 130.325C63.9478 130.172 63.7949 130.172 63.7949 130.019C63.6419 129.713 63.4889 129.561 63.1829 129.561C63.6419 129.408 63.9478 129.102 64.2538 128.949C64.7128 128.643 65.1717 128.185 65.3247 127.726C65.4777 127.42 65.3247 127.115 65.0187 127.115C64.4068 127.115 63.7949 127.42 63.1829 127.726H63.0299C62.571 127.726 61.8061 127.573 61.3471 127.268C60.2762 126.656 59.8172 125.433 59.8172 124.21C61.6531 124.669 63.3359 124.21 65.0187 123.293C65.4777 122.987 66.2426 122.376 66.2426 121.764C66.0896 121.153 65.1717 121.764 65.0187 121.917C65.0187 121.917 64.8658 121.917 64.8658 122.07H64.7128C64.7128 122.07 64.5598 122.07 64.4068 122.223H64.2538C64.2538 122.223 64.1008 122.223 63.9478 122.223C63.7949 122.223 63.4889 122.223 63.3359 122.223C62.724 122.223 61.959 122.07 61.1941 121.917C59.8172 121.459 58.5934 120.389 58.1344 119.013C57.9814 118.401 57.2165 118.86 56.9105 119.166C56.6046 119.318 56.2986 119.624 55.9926 119.93C55.8396 120.083 55.6867 120.389 55.6867 120.694C56.2986 122.376 57.5225 123.446 59.2053 124.057C58.8993 124.057 58.7464 124.21 58.5934 124.363C58.1344 124.669 57.5225 125.28 57.3695 125.892C57.2165 127.42 57.9814 128.796 59.3583 129.408C59.8172 129.713 60.4292 129.866 61.0411 129.866C60.5822 130.478 60.2762 131.089 60.2762 131.701C60.2762 132.006 60.2762 132.465 60.5822 132.618C60.8881 132.924 61.1941 132.924 61.5001 132.924C62.571 135.675 63.6419 138.427 64.7128 141.178C64.1008 141.637 63.3359 142.248 63.4889 142.86C64.2538 146.834 65.1717 150.809 65.9366 154.631C66.5486 157.229 66.7016 161.204 69.4553 162.58C69.7613 162.733 70.0672 162.58 70.5262 162.274C70.5262 163.344 70.6792 164.567 70.6792 165.637C70.9852 170.529 71.4441 175.42 72.515 180.006C74.6568 188.567 80.6232 195.446 85.8247 202.325C85.3658 202.783 85.0598 203.242 85.2128 203.395C86.1307 204.159 87.0486 205.076 87.9665 205.994C88.2725 207.981 86.5896 210.121 84.7538 211.191C81.6941 213.026 78.4814 214.248 75.2687 215.777C68.6904 218.834 61.959 221.739 55.0747 224.032C48.1904 226.325 41.1531 227.701 33.9628 229.229C27.3844 230.605 21.418 232.898 15.9105 236.567C9.94411 240.694 4.8956 245.739 -0.152903 250.783C-1.37678 252.159 -0.152903 253.535 1.07098 252.312C5.9665 247.42 10.862 242.223 16.6755 238.401C23.1008 233.968 30.1381 232.287 37.7874 230.758C53.0859 228.006 67.0075 221.892 80.9292 215.318C84.6008 213.943 88.1195 212.567 89.9553 209.662ZM69.7613 157.229C69.3023 155.701 68.9964 154.019 68.6904 152.338C68.3844 150.962 68.0784 149.586 67.9255 148.363L69.1493 151.42C69.3023 152.032 69.9143 151.879 70.5262 151.726C70.6792 154.325 70.8322 157.076 70.8322 159.675C70.3732 158.911 70.0672 158.147 69.7613 157.229Z" fill="black"/>
<path d="M230.854 246.503C224.123 243.446 217.545 240.541 210.813 237.484C197.657 231.369 184.653 224.643 173.332 215.624C170.272 213.178 167.825 210.58 166.601 206.758C165.377 202.631 164.918 198.197 165.071 193.917C166.295 192.389 167.672 190.86 168.895 189.178C170.272 187.038 171.19 184.745 171.802 182.299C173.026 177.408 173.485 172.21 173.791 167.166C177.922 165.79 179.298 161.357 180.216 157.535C181.746 151.726 184.347 146.376 187.101 141.025C191.843 131.701 196.892 121.764 196.433 111.064C196.892 110.758 197.504 110.299 197.963 109.841C199.034 108.771 199.798 107.395 199.951 106.019C199.951 105.866 199.645 105.866 199.645 105.866C199.492 105.866 199.187 106.019 199.034 106.172C199.034 105.866 199.034 105.561 198.575 105.561C198.116 105.561 197.657 105.102 197.504 104.643C197.81 104.338 197.963 104.032 197.963 103.879C199.492 91.9554 195.668 80.1847 191.078 69.3312C187.254 60.3121 183.276 49 173.332 45.0255C169.048 43.344 164.459 43.1911 160.328 45.0255C160.328 44.8726 160.481 44.7197 160.328 44.5669C156.198 34.7834 147.478 27.4459 136.922 25.7643C124.53 23.6242 113.209 30.1975 102.194 34.9363C101.123 35.3949 100.052 37.6879 101.888 36.9236C112.597 32.3376 123.459 25.7643 135.545 28.0573C145.489 29.8917 153.903 36.9236 157.881 46.2484C157.881 46.4013 158.034 46.5541 158.187 46.5541C157.575 47.4713 157.881 48.6943 159.257 47.7771C164.306 44.5669 171.037 46.2484 175.627 49.7643C180.522 53.586 183.429 59.3949 185.877 64.8981C190.772 75.9045 195.668 87.6752 195.515 99.9045C194.75 97.9172 194.138 96.0828 193.373 94.0955C192.914 93.0255 190.619 94.8599 190.925 95.7771C191.843 98.2229 192.761 100.669 193.679 103.115C194.138 104.185 194.444 105.408 194.903 106.478C195.362 107.242 195.974 108.006 196.892 107.854C197.045 107.854 197.351 107.701 197.504 107.701V107.854V108.006V108.159C197.504 108.312 197.504 108.465 197.351 108.618C197.351 108.771 197.198 108.924 197.198 108.924V109.076C197.198 109.229 197.045 109.382 197.045 109.382C197.045 109.382 197.045 109.382 197.045 109.535L196.892 109.688C196.892 109.688 196.892 109.688 196.739 109.688C196.739 109.688 196.739 109.688 196.586 109.688C196.586 109.688 196.586 109.688 196.433 109.688C196.433 109.688 196.433 109.688 196.586 109.688C196.586 109.688 196.586 109.688 196.433 109.688C196.433 109.382 196.433 109.229 196.433 108.924C196.28 107.701 193.832 109.382 193.832 110.452C193.832 110.605 193.832 110.758 193.832 110.911C193.679 111.064 193.679 111.064 193.526 111.217C193.373 111.522 192.914 112.134 193.526 112.134C193.679 112.134 193.679 112.134 193.832 112.134C194.291 121.917 189.854 131.089 185.571 139.497C183.429 143.777 181.287 147.904 179.604 152.338C178.687 154.631 178.075 156.771 177.463 159.064C176.851 161.204 176.239 164.108 173.791 164.873C173.791 164.72 173.791 164.72 173.791 164.567C173.791 164.108 171.496 165.484 171.343 166.248C171.037 171.904 170.578 177.866 169.201 183.369C168.59 185.968 167.672 188.261 166.142 190.401C165.377 191.471 164.459 192.541 163.541 193.611C162.929 193.917 162.47 194.529 162.47 194.834V194.987C162.164 195.446 161.858 195.904 161.552 196.363C161.246 196.975 161.552 196.975 162.011 196.975C162.164 196.975 162.317 196.822 162.47 196.822C162.47 203.395 163.388 210.885 168.284 215.471C173.485 220.516 179.91 224.49 186.03 228.159C198.575 235.65 212.037 241.306 225.347 247.268C229.019 248.949 232.843 250.478 236.362 252.312C239.422 253.841 242.328 255.828 243.552 259.191C243.705 259.497 246.153 257.968 245.847 257.204C243.705 251.089 236.056 248.949 230.854 246.503ZM196.739 109.382C196.739 109.382 196.739 109.535 196.739 109.382C196.739 109.535 196.739 109.535 196.739 109.382C196.739 109.535 196.739 109.535 196.739 109.382C196.739 109.535 196.739 109.535 196.739 109.382ZM196.739 109.535C196.739 109.535 196.739 109.382 196.739 109.535C196.739 109.382 196.739 109.382 196.739 109.535ZM196.739 109.382C196.892 109.382 196.892 109.229 196.739 109.382V109.382ZM196.739 109.535C196.739 109.535 196.586 109.535 196.739 109.535C196.586 109.535 196.739 109.535 196.739 109.535Z" fill="black"/>
<path d="M134.015 260.108C141.205 259.038 148.242 256.439 154.362 252.465C161.399 248.032 167.366 242.223 171.802 235.344C172.108 234.732 171.955 234.121 171.343 233.815C170.578 233.662 169.813 234.274 169.507 234.885C162.011 246.503 149.619 254.758 136.004 257.204C127.895 258.732 119.481 257.815 111.526 256.439C103.571 254.911 95.3096 253.382 87.9663 249.713C80.776 246.197 74.5037 240.389 72.3619 232.439C71.9029 230.911 69.4551 232.592 69.7611 233.968C74.5037 250.631 93.1678 255.522 108.16 258.427C116.422 260.261 125.295 261.484 134.015 260.108Z" fill="black"/>
<path d="M181.287 230.452C180.675 230.452 179.91 231.369 179.604 231.828C169.507 252.159 147.172 261.331 125.601 262.707C124.683 262.707 122.847 265 124.071 265C147.325 263.624 171.037 252.924 181.899 231.217C182.205 230.452 181.899 230.299 181.287 230.452Z" fill="black"/>
<path d="M131.567 41.9681C131.108 42.2739 130.19 42.8853 130.037 43.4968C129.884 44.1083 130.496 43.8025 130.955 43.6497C134.627 41.6624 139.522 42.5796 142.888 44.7197C146.254 46.8599 148.702 50.0701 150.537 53.586C150.843 54.0446 153.291 52.3631 152.832 51.5987C150.69 47.7771 147.937 44.1083 143.959 42.121C140.134 39.9809 135.545 39.828 131.567 41.9681Z" fill="black"/>
<path d="M144.418 38.2994C143.806 38.1465 143.041 38.758 142.735 39.2166C142.582 39.3694 141.817 40.4395 142.429 40.5924C147.019 41.8153 150.69 45.4841 152.067 49.9172C152.373 50.9873 154.821 49.1529 154.515 48.2357C153.138 43.4968 149.16 39.6752 144.418 38.2994Z" fill="black"/>
<path d="M119.787 51.7516C128.966 50.3758 139.369 49 147.631 54.5032C148.548 55.1147 150.69 52.9745 149.619 52.2102C141.052 46.5541 130.19 47.9299 120.552 49.4586C119.634 49.6115 117.951 52.0573 119.787 51.7516Z" fill="black"/>
<path d="M97.7575 71.1656C96.5336 71.0127 94.8508 73.6115 96.3806 73.6115C106.631 74.2229 117.034 73.3057 126.978 70.707C135.239 68.5669 144.112 65.2038 149.16 57.8662C150.231 56.1847 148.243 55.5733 147.325 56.949C142.582 63.828 134.168 66.5796 126.366 68.7198C117.034 71.0127 107.396 71.7771 97.7575 71.1656Z" fill="black"/>
<path d="M152.373 58.7834C152.679 58.3248 152.373 58.172 151.914 58.3248C151.302 58.4777 150.537 59.242 150.231 59.7006C145.336 67.4968 136.31 72.2357 127.131 72.3885C126.519 72.3885 125.907 73 125.448 73.3057C125.295 73.4586 124.53 74.5287 124.989 74.3758C136.157 74.2229 146.56 67.9554 152.373 58.7834Z" fill="black"/>
<path d="M177.769 82.9363C174.25 79.4204 169.048 78.3503 164.612 76.363C164.153 76.0573 163.694 75.9044 163.235 75.5987C163.082 75.293 162.929 74.9872 162.776 74.8344C162.47 74.3758 162.164 74.3758 161.705 74.6815C160.787 74.0701 160.022 73.3057 159.257 72.3885C157.575 70.0955 157.269 66.8853 155.28 64.7452C154.821 64.2866 152.526 66.2739 152.985 66.7325C154.974 68.8726 155.28 71.9299 156.963 74.2229C158.034 75.7516 159.41 76.8216 161.093 77.7388C165.377 85.2293 169.048 93.0255 171.955 101.127C171.496 101.433 171.19 101.892 171.19 102.35C171.19 108.924 172.414 115.497 174.709 121.611C175.474 123.752 176.698 126.197 178.228 128.185C176.851 127.879 175.627 126.962 174.556 125.892C174.556 125.892 174.556 125.892 174.556 125.739C174.556 125.739 174.556 125.739 174.403 125.739C172.72 123.752 171.496 121.153 170.578 118.86C168.895 113.968 167.519 109.076 166.295 104.185C163.694 94.8599 161.093 85.535 155.586 77.4331C155.28 76.9745 152.832 78.8089 153.291 79.4204C159.257 88.1337 161.858 98.3758 164.612 108.465C165.989 113.204 167.213 118.096 169.048 122.834C169.813 124.669 170.884 126.503 172.261 128.032C172.72 129.408 173.332 130.783 174.097 132.006C174.25 133.076 174.556 133.994 174.862 134.911C174.709 135.064 174.709 135.217 174.709 135.522C175.015 137.51 175.321 139.497 175.627 141.637C175.321 141.943 175.015 142.401 175.015 142.86C175.015 146.376 174.403 149.892 173.179 153.255C172.873 153.866 173.485 154.325 174.097 154.325C174.862 154.172 175.474 153.56 175.78 152.949C176.545 150.962 177.004 148.822 177.31 146.682C177.616 147.14 178.075 147.446 178.534 147.752C179.451 148.21 181.44 145.917 180.522 145.611C178.992 144.847 178.534 143.166 178.228 141.637C179.145 142.86 180.216 144.083 181.44 145C182.052 145.459 184.194 143.318 183.735 143.013C181.746 141.331 180.063 139.344 178.84 137.051C178.992 137.204 179.145 137.204 179.451 137.357C179.604 137.357 180.063 137.204 180.216 137.051C180.522 136.898 180.828 136.592 181.134 136.287C181.287 136.134 182.052 135.369 181.593 135.217C179.451 134.605 177.922 132.924 176.698 130.936C177.463 131.089 178.228 131.089 178.992 131.089C179.298 131.089 179.604 130.783 180.063 130.478C181.44 131.395 182.97 132.006 184.959 131.701C186.336 131.548 187.407 128.796 185.571 129.102C185.265 129.102 185.112 129.102 184.806 129.102C185.877 128.949 187.101 127.42 186.03 126.656C182.511 124.363 180.828 120.389 179.604 116.414C178.228 111.981 177.157 107.395 175.627 102.962C173.026 95.1656 169.66 87.6751 165.836 80.3376C169.354 81.7134 173.026 82.9363 175.78 85.6879C175.933 85.3822 178.228 83.3949 177.769 82.9363ZM183.735 128.185H183.888C179.757 127.573 177.616 121.764 176.545 118.401C175.474 115.344 174.709 112.134 174.25 108.771C176.086 115.955 177.616 124.057 183.735 128.185Z" fill="black"/>
</g>
<path d="M59.6873 184.362C50.3445 187.663 46.6491 195.717 43.8017 205.041C42.5799 209.043 40.7308 214.869 42.3457 218.967C46.5352 229.6 61.9922 217.293 65.2751 211.962" stroke="white" stroke-width="3" stroke-linecap="round" stroke-linejoin="round"/>
<path d="M73.9236 193.654C69.5765 198.447 67.0632 203.106 66.4918 209.56C66.1898 212.972 69.6616 217.072 73.0677 214.66C79.0389 210.431 84.2707 206.296 83.5157 198.072C83.2015 194.649 78.2703 190.017 75.0961 191.75" stroke="white" stroke-width="3" stroke-linecap="round" stroke-linejoin="round"/>
<path d="M85.4099 188.647C84.808 195.446 85.2071 202.277 84.6128 208.989C84.2192 213.435 84.9896 199.797 87.0062 195.816C91.5165 186.91 92.7834 195.019 94.1109 201.241C94.6883 203.947 94.2843 201.803 94.445 199.988C94.7242 196.834 95.2395 194.121 96.2348 191.111C96.311 190.881 99.6181 183.683 100.841 184.436C106.356 187.832 101.188 203.198 100.756 208.076" stroke="white" stroke-width="3" stroke-linecap="round" stroke-linejoin="round"/>
<path d="M107.853 184.611C108.426 190.327 107.043 196.242 108.346 201.721" stroke="white" stroke-width="3" stroke-linecap="round" stroke-linejoin="round"/>
<path d="M113.918 184.144C113.565 188.128 113.212 192.112 112.86 196.097C112.76 197.222 112.058 199.652 113.23 197.58C115.137 194.21 114.782 189.942 116.951 186.42C122.63 177.198 125.599 188.277 125.077 194.167" stroke="white" stroke-width="3" stroke-linecap="round" stroke-linejoin="round"/>
<path d="M138.089 183.272C132.142 181.706 132.373 182.934 129.285 186.954C128.546 187.916 126.716 191.412 127.744 192.395C130.856 195.371 135.286 191.972 137.963 189.73C139.247 188.655 139.897 183.434 139.934 185.108C140.081 191.693 140.939 198.329 140.967 204.943C141.004 213.752 140.319 224.854 135.76 232.257" stroke="white" stroke-width="3" stroke-linecap="round" stroke-linejoin="round"/>
<path d="M161.969 174.343C156.506 172.766 153.97 173.114 151.769 178.683C150.215 182.615 151.862 186.805 154.587 189.696C160.535 196.006 160.248 204.322 150.182 205.425" stroke="white" stroke-width="3" stroke-linecap="round" stroke-linejoin="round"/>
<path d="M168.968 186.006C166.242 189.012 162.077 193.915 164.059 198.622C165.403 201.813 169.501 200.543 171.12 198.243C173.687 194.594 175.804 185.607 169.057 185.01" stroke="white" stroke-width="3" stroke-linecap="round" stroke-linejoin="round"/>
<path d="M180.102 184.984C179.219 188.041 175.887 195.653 181.124 196.117C185.139 196.472 188.436 193.246 190.485 189.918C193.605 184.851 183.658 180.768 180.921 187.064" stroke="white" stroke-width="3" stroke-linecap="round" stroke-linejoin="round"/>
<path d="M193.316 183.142C193.667 187.53 194.532 192.082 194.142 196.489C193.902 199.205 194.281 195.171 194.54 194.516C196.261 190.16 197.063 185.467 199.967 181.723C206.883 172.805 204.31 195.038 204.034 198.145" stroke="white" stroke-width="3" stroke-linecap="round" stroke-linejoin="round"/>
</g>
<defs>
<clipPath id="clip0_0_262">
<rect width="246" height="240" fill="white" transform="translate(0 25)"/>
</clipPath>
</defs>
</svg>
