<svg width="744" height="419" viewBox="0 0 744 419" fill="none" xmlns="http://www.w3.org/2000/svg">
<path d="M52.775 32.35L52.775 130L25.125 130L25.125 32.35L-13.025 32.35L-13.025 5.92499L91.1 5.92499L91.1 32.35L52.775 32.35ZM116.153 130L89.5534 130L89.5534 3.29999L116.153 3.29999L116.153 48.625C118.837 45.9417 122.22 43.9583 126.303 42.675C130.503 41.3917 134.528 40.75 138.378 40.75C144.095 40.75 148.995 41.6833 153.078 43.55C157.278 45.3 160.72 47.75 163.403 50.9C166.087 54.05 168.07 57.725 169.353 61.925C170.637 66.125 171.278 70.6167 171.278 75.4L171.278 130L144.678 130L144.678 79.95C144.678 75.6333 143.512 72.075 141.178 69.275C138.962 66.3583 135.403 64.9 130.503 64.9C126.303 64.9 122.92 66.2417 120.353 68.925C117.787 71.4917 116.387 74.8167 116.153 78.9L116.153 130ZM181.856 130L181.856 43.025L208.456 43.025L208.456 130L181.856 130ZM179.581 16.425C179.581 14.325 179.989 12.3416 180.806 10.475C181.623 8.49165 182.731 6.79998 184.131 5.39999C185.531 3.99998 187.164 2.89165 189.031 2.07499C190.898 1.25832 192.881 0.849982 194.981 0.849982C199.414 0.849982 203.148 2.36665 206.181 5.39999C209.214 8.43331 210.731 12.1083 210.731 16.425C210.731 20.7416 209.214 24.4166 206.181 27.45C203.148 30.4833 199.414 32 194.981 32C192.881 32 190.898 31.5917 189.031 30.775C187.164 29.9583 185.531 28.85 184.131 27.45C182.731 26.05 181.623 24.4166 180.806 22.55C179.989 20.5666 179.581 18.525 179.581 16.425ZM237.309 101.3C237.542 104.333 238.709 107.075 240.809 109.525C243.026 111.858 246.409 113.025 250.959 113.025C254.342 113.025 256.851 112.267 258.484 110.75C260.234 109.233 261.109 107.483 261.109 105.5C261.109 103.867 260.467 102.467 259.184 101.3C258.017 100.017 255.801 99.025 252.534 98.325L242.559 96.05C237.892 95 233.926 93.6 230.659 91.85C227.392 90.1 224.709 88.0583 222.609 85.725C220.509 83.3917 218.992 80.825 218.059 78.025C217.126 75.225 216.659 72.3083 216.659 69.275C216.659 65.3083 217.476 61.575 219.109 58.075C220.742 54.575 223.017 51.5417 225.934 48.975C228.967 46.2916 232.526 44.1916 236.609 42.675C240.692 41.1583 245.184 40.4 250.084 40.4C256.384 40.4 261.692 41.275 266.009 43.025C270.326 44.775 273.826 46.9916 276.509 49.675C279.309 52.2416 281.351 55.0416 282.634 58.075C283.917 60.9916 284.676 63.7333 284.909 66.3L262.859 70.325C262.509 67.4083 261.342 64.9 259.359 62.8C257.492 60.7 254.517 59.65 250.434 59.65C247.867 59.65 245.651 60.35 243.784 61.75C241.917 63.0333 240.984 64.8416 240.984 67.175C240.984 69.0416 241.626 70.5 242.909 71.55C244.192 72.6 245.826 73.3 247.809 73.65L259.359 75.925C268.459 77.7916 275.167 81.2333 279.484 86.25C283.917 91.15 286.134 96.8083 286.134 103.225C286.134 106.958 285.434 110.575 284.034 114.075C282.634 117.575 280.476 120.725 277.559 123.525C274.642 126.208 271.026 128.367 266.709 130C262.392 131.75 257.317 132.625 251.484 132.625C244.601 132.625 238.826 131.692 234.159 129.825C229.609 127.842 225.934 125.45 223.134 122.65C220.334 119.85 218.234 116.875 216.834 113.725C215.551 110.575 214.851 107.775 214.734 105.325L237.309 101.3ZM12.525 244.3C12.7583 247.333 13.925 250.075 16.025 252.525C18.2417 254.858 21.625 256.025 26.175 256.025C29.5583 256.025 32.0667 255.267 33.7 253.75C35.45 252.233 36.325 250.483 36.325 248.5C36.325 246.867 35.6834 245.467 34.4 244.3C33.2334 243.017 31.0167 242.025 27.75 241.325L17.775 239.05C13.1083 238 9.14168 236.6 5.87501 234.85C2.60835 233.1 -0.0749864 231.058 -2.17499 228.725C-4.27499 226.392 -5.79165 223.825 -6.72499 221.025C-7.65832 218.225 -8.12499 215.308 -8.12499 212.275C-8.12499 208.308 -7.30832 204.575 -5.67499 201.075C-4.04165 197.575 -1.76665 194.542 1.15001 191.975C4.18334 189.292 7.74168 187.192 11.825 185.675C15.9083 184.158 20.4 183.4 25.3 183.4C31.6 183.4 36.9083 184.275 41.225 186.025C45.5417 187.775 49.0417 189.992 51.725 192.675C54.525 195.242 56.5667 198.042 57.85 201.075C59.1333 203.992 59.8917 206.733 60.125 209.3L38.075 213.325C37.725 210.408 36.5583 207.9 34.575 205.8C32.7083 203.7 29.7333 202.65 25.65 202.65C23.0833 202.65 20.8667 203.35 19 204.75C17.1333 206.033 16.2 207.842 16.2 210.175C16.2 212.042 16.8417 213.5 18.125 214.55C19.4083 215.6 21.0417 216.3 23.025 216.65L34.575 218.925C43.675 220.792 50.3833 224.233 54.7 229.25C59.1334 234.15 61.35 239.808 61.35 246.225C61.35 249.958 60.65 253.575 59.25 257.075C57.85 260.575 55.6917 263.725 52.775 266.525C49.8584 269.208 46.2417 271.367 41.925 273C37.6084 274.75 32.5333 275.625 26.7 275.625C19.8167 275.625 14.0417 274.692 9.37502 272.825C4.82502 270.842 1.15002 268.45 -1.64998 265.65C-4.44998 262.85 -6.54998 259.875 -7.94998 256.725C-9.23332 253.575 -9.93332 250.775 -10.05 248.325L12.525 244.3ZM124.537 273C124.304 272.183 124.129 270.842 124.012 268.975C123.895 266.992 123.837 265.417 123.837 264.25C121.504 267.983 118.12 270.725 113.687 272.475C109.37 274.108 104.995 274.925 100.562 274.925C95.3121 274.925 90.5871 274.05 86.3871 272.3C82.3037 270.433 78.862 267.983 76.062 264.95C73.262 261.8 71.1037 258.183 69.587 254.1C68.187 250.017 67.487 245.642 67.487 240.975L67.487 186.025L94.087 186.025L94.087 235.375C94.087 239.575 95.1954 243.133 97.412 246.05C99.7454 248.967 103.304 250.425 108.087 250.425C112.52 250.425 116.02 249.083 118.587 246.4C121.27 243.6 122.612 239.983 122.612 235.55L122.612 186.025L149.212 186.025L149.212 257.425C149.212 261.392 149.329 264.833 149.562 267.75C149.795 270.55 149.97 272.3 150.087 273L124.537 273ZM160.836 273L160.836 186.025L186.211 186.025L186.211 196C187.261 194.133 188.719 192.442 190.586 190.925C192.452 189.292 194.494 187.95 196.711 186.9C199.044 185.733 201.436 184.858 203.886 184.275C206.452 183.692 208.902 183.4 211.236 183.4C217.536 183.4 222.844 184.625 227.161 187.075C231.477 189.408 234.744 192.733 236.961 197.05C240.344 192.15 244.194 188.65 248.511 186.55C252.827 184.45 257.961 183.4 263.911 183.4C267.994 183.4 271.961 184.042 275.811 185.325C279.777 186.492 283.219 188.417 286.136 191.1C289.169 193.783 291.561 197.225 293.311 201.425C295.177 205.625 296.111 210.7 296.111 216.65L296.111 273L270.386 273L270.386 222.6C270.386 218.517 269.277 215.075 267.061 212.275C264.844 209.358 261.344 207.9 256.561 207.9C251.777 207.9 248.161 209.417 245.711 212.45C243.261 215.483 242.036 218.925 242.036 222.775L242.036 273L215.786 273L215.786 222.6C215.786 218.517 214.677 215.075 212.461 212.275C210.244 209.358 206.686 207.9 201.786 207.9C197.119 207.9 193.561 209.417 191.111 212.45C188.661 215.483 187.436 218.983 187.436 222.95L187.436 273L160.836 273ZM306.971 273L306.971 186.025L332.346 186.025L332.346 196C333.396 194.133 334.855 192.442 336.721 190.925C338.588 189.292 340.63 187.95 342.846 186.9C345.18 185.733 347.571 184.858 350.021 184.275C352.588 183.692 355.038 183.4 357.371 183.4C363.671 183.4 368.98 184.625 373.296 187.075C377.613 189.408 380.88 192.733 383.096 197.05C386.48 192.15 390.33 188.65 394.646 186.55C398.963 184.45 404.096 183.4 410.046 183.4C414.13 183.4 418.096 184.042 421.946 185.325C425.913 186.492 429.355 188.417 432.271 191.1C435.305 193.783 437.696 197.225 439.446 201.425C441.313 205.625 442.246 210.7 442.246 216.65L442.246 273L416.521 273L416.521 222.6C416.521 218.517 415.413 215.075 413.196 212.275C410.98 209.358 407.48 207.9 402.696 207.9C397.913 207.9 394.296 209.417 391.846 212.45C389.396 215.483 388.171 218.925 388.171 222.775L388.171 273L361.921 273L361.921 222.6C361.921 218.517 360.813 215.075 358.596 212.275C356.38 209.358 352.821 207.9 347.921 207.9C343.255 207.9 339.696 209.417 337.246 212.45C334.796 215.483 333.571 218.983 333.571 222.95L333.571 273L306.971 273ZM453.107 273L453.107 186.025L479.707 186.025L479.707 273L453.107 273ZM450.832 159.425C450.832 157.325 451.24 155.342 452.057 153.475C452.874 151.492 453.982 149.8 455.382 148.4C456.782 147 458.415 145.892 460.282 145.075C462.149 144.258 464.132 143.85 466.232 143.85C470.665 143.85 474.399 145.367 477.432 148.4C480.465 151.433 481.982 155.108 481.982 159.425C481.982 163.742 480.465 167.417 477.432 170.45C474.399 173.483 470.665 175 466.232 175C464.132 175 462.149 174.592 460.282 173.775C458.415 172.958 456.782 171.85 455.382 170.45C453.982 169.05 452.874 167.417 452.057 165.55C451.24 163.567 450.832 161.525 450.832 159.425ZM525.185 186.025L542.16 186.025L542.16 209.3L525.185 209.3L525.185 241.85C525.185 245.467 526.06 247.917 527.81 249.2C529.56 250.367 531.893 250.95 534.81 250.95C536.21 250.95 537.493 250.892 538.66 250.775C539.943 250.542 540.993 250.308 541.81 250.075L541.81 272.125C541.226 272.358 539.826 272.825 537.61 273.525C535.393 274.225 532.185 274.575 527.985 274.575C518.885 274.575 511.768 272.125 506.635 267.225C501.501 262.208 498.935 255.325 498.935 246.575L498.935 209.3L483.535 209.3L483.535 186.025L487.91 186.025C492.46 186.025 495.843 184.683 498.06 182C500.276 179.317 501.385 175.933 501.385 171.85L501.385 160.65L525.185 160.65L525.185 186.025ZM74.3 329.025L91.275 380.65L105.8 329.025L131.875 329.025L104.925 416L78.5 416L59.6 359.825L41.05 416L14.1 416L-13.2 329.025L14.45 329.025L28.975 380.475L46.125 329.025L74.3 329.025ZM189.483 362.1C189.366 360.467 188.958 358.775 188.258 357.025C187.674 355.275 186.683 353.7 185.283 352.3C183.883 350.9 182.074 349.733 179.858 348.8C177.758 347.867 175.133 347.4 171.983 347.4C169.183 347.4 166.733 347.867 164.633 348.8C162.533 349.733 160.724 350.9 159.208 352.3C157.808 353.7 156.699 355.275 155.883 357.025C155.183 358.775 154.774 360.467 154.658 362.1L189.483 362.1ZM213.633 390.975C212.583 394.708 210.949 398.267 208.733 401.65C206.516 405.033 203.716 408.008 200.333 410.575C196.949 413.025 192.983 414.95 188.433 416.35C183.999 417.867 179.041 418.625 173.558 418.625C167.608 418.625 161.891 417.575 156.408 415.475C150.924 413.375 146.083 410.342 141.883 406.375C137.683 402.408 134.358 397.567 131.908 391.85C129.458 386.133 128.233 379.6 128.233 372.25C128.233 365.25 129.399 358.95 131.733 353.35C134.183 347.633 137.391 342.792 141.358 338.825C145.441 334.858 150.108 331.825 155.358 329.725C160.608 327.508 166.033 326.4 171.633 326.4C185.166 326.4 195.783 330.308 203.483 338.125C211.299 345.942 215.208 356.908 215.208 371.025C215.208 372.892 215.149 374.7 215.033 376.45C214.916 378.083 214.799 379.017 214.683 379.25L154.133 379.25C154.249 381.7 154.833 383.975 155.883 386.075C157.049 388.058 158.508 389.808 160.258 391.325C162.124 392.842 164.224 394.008 166.558 394.825C168.891 395.642 171.341 396.05 173.908 396.05C178.808 396.05 182.599 395 185.283 392.9C188.083 390.8 190.124 388.058 191.408 384.675L213.633 390.975ZM222.017 416L222.017 289.3L248.617 289.3L248.617 416L222.017 416ZM301.62 350.9C298.82 350.9 296.195 351.367 293.745 352.3C291.412 353.233 289.312 354.633 287.445 356.5C285.695 358.367 284.295 360.642 283.245 363.325C282.195 366.008 281.67 369.1 281.67 372.6C281.67 376.1 282.195 379.192 283.245 381.875C284.412 384.442 285.87 386.658 287.62 388.525C289.487 390.392 291.645 391.792 294.095 392.725C296.545 393.658 299.17 394.125 301.97 394.125C307.103 394.125 311.128 392.783 314.045 390.1C317.078 387.417 319.062 384.442 319.995 381.175L343.445 388.35C342.512 392.2 340.878 395.933 338.545 399.55C336.328 403.167 333.47 406.375 329.97 409.175C326.47 411.975 322.387 414.25 317.72 416C313.053 417.75 307.803 418.625 301.97 418.625C295.437 418.625 289.312 417.517 283.595 415.3C277.995 412.967 273.095 409.758 268.895 405.675C264.695 401.592 261.37 396.75 258.92 391.15C256.47 385.55 255.245 379.367 255.245 372.6C255.245 365.833 256.412 359.65 258.745 354.05C261.195 348.333 264.462 343.433 268.545 339.35C272.745 335.267 277.587 332.117 283.07 329.9C288.67 327.567 294.678 326.4 301.095 326.4C307.045 326.4 312.412 327.275 317.195 329.025C321.978 330.658 326.12 332.875 329.62 335.675C333.12 338.475 335.978 341.742 338.195 345.475C340.412 349.092 341.987 352.825 342.92 356.675L319.12 363.85C318.653 362.217 317.953 360.642 317.02 359.125C316.087 357.492 314.92 356.092 313.52 354.925C312.12 353.642 310.428 352.65 308.445 351.95C306.462 351.25 304.187 350.9 301.62 350.9ZM389.817 394.125C392.384 394.125 394.834 393.717 397.167 392.9C399.5 391.967 401.542 390.625 403.292 388.875C405.159 387.008 406.617 384.733 407.667 382.05C408.834 379.367 409.417 376.158 409.417 372.425C409.417 368.808 408.834 365.658 407.667 362.975C406.617 360.175 405.159 357.9 403.292 356.15C401.542 354.4 399.5 353.117 397.167 352.3C394.834 351.367 392.384 350.9 389.817 350.9C387.367 350.9 384.917 351.367 382.467 352.3C380.134 353.117 378.034 354.4 376.167 356.15C374.417 357.9 372.959 360.175 371.792 362.975C370.742 365.658 370.217 368.808 370.217 372.425C370.217 376.042 370.742 379.25 371.792 382.05C372.959 384.733 374.417 387.008 376.167 388.875C378.034 390.625 380.134 391.967 382.467 392.9C384.917 393.717 387.367 394.125 389.817 394.125ZM389.817 326.4C396.35 326.4 402.417 327.567 408.017 329.9C413.617 332.117 418.459 335.267 422.542 339.35C426.742 343.433 430.009 348.275 432.342 353.875C434.792 359.475 436.017 365.658 436.017 372.425C436.017 379.192 434.792 385.433 432.342 391.15C430.009 396.75 426.742 401.592 422.542 405.675C418.459 409.758 413.617 412.967 408.017 415.3C402.417 417.517 396.35 418.625 389.817 418.625C383.284 418.625 377.217 417.517 371.617 415.3C366.017 412.967 361.117 409.758 356.917 405.675C352.834 401.592 349.567 396.75 347.117 391.15C344.784 385.433 343.617 379.192 343.617 372.425C343.617 365.658 344.784 359.475 347.117 353.875C349.567 348.275 352.834 343.433 356.917 339.35C361.117 335.267 366.017 332.117 371.617 329.9C377.217 327.567 383.284 326.4 389.817 326.4ZM442.529 416L442.529 329.025L467.904 329.025L467.904 339C468.954 337.133 470.412 335.442 472.279 333.925C474.145 332.292 476.187 330.95 478.404 329.9C480.737 328.733 483.129 327.858 485.579 327.275C488.145 326.692 490.595 326.4 492.929 326.4C499.229 326.4 504.537 327.625 508.854 330.075C513.17 332.408 516.437 335.733 518.654 340.05C522.037 335.15 525.887 331.65 530.204 329.55C534.52 327.45 539.654 326.4 545.604 326.4C549.687 326.4 553.654 327.042 557.504 328.325C561.47 329.492 564.912 331.417 567.829 334.1C570.862 336.783 573.254 340.225 575.004 344.425C576.87 348.625 577.804 353.7 577.804 359.65L577.804 416L552.079 416L552.079 365.6C552.079 361.517 550.97 358.075 548.754 355.275C546.537 352.358 543.037 350.9 538.254 350.9C533.47 350.9 529.854 352.417 527.404 355.45C524.954 358.483 523.729 361.925 523.729 365.775L523.729 416L497.479 416L497.479 365.6C497.479 361.517 496.37 358.075 494.154 355.275C491.937 352.358 488.379 350.9 483.479 350.9C478.812 350.9 475.254 352.417 472.804 355.45C470.354 358.483 469.129 361.983 469.129 365.95L469.129 416L442.529 416ZM645.014 362.1C644.898 360.467 644.489 358.775 643.789 357.025C643.206 355.275 642.214 353.7 640.814 352.3C639.414 350.9 637.606 349.733 635.389 348.8C633.289 347.867 630.664 347.4 627.514 347.4C624.714 347.4 622.264 347.867 620.164 348.8C618.064 349.733 616.256 350.9 614.739 352.3C613.339 353.7 612.231 355.275 611.414 357.025C610.714 358.775 610.306 360.467 610.189 362.1L645.014 362.1ZM669.164 390.975C668.114 394.708 666.481 398.267 664.264 401.65C662.048 405.033 659.248 408.008 655.864 410.575C652.481 413.025 648.514 414.95 643.964 416.35C639.531 417.867 634.573 418.625 629.089 418.625C623.139 418.625 617.423 417.575 611.939 415.475C606.456 413.375 601.614 410.342 597.414 406.375C593.214 402.408 589.889 397.567 587.439 391.85C584.989 386.133 583.764 379.6 583.764 372.25C583.764 365.25 584.931 358.95 587.264 353.35C589.714 347.633 592.923 342.792 596.889 338.825C600.973 334.858 605.639 331.825 610.889 329.725C616.139 327.508 621.564 326.4 627.164 326.4C640.698 326.4 651.314 330.308 659.014 338.125C666.831 345.942 670.739 356.908 670.739 371.025C670.739 372.892 670.681 374.7 670.564 376.45C670.448 378.083 670.331 379.017 670.214 379.25L609.664 379.25C609.781 381.7 610.364 383.975 611.414 386.075C612.581 388.058 614.039 389.808 615.789 391.325C617.656 392.842 619.756 394.008 622.089 394.825C624.423 395.642 626.873 396.05 629.439 396.05C634.339 396.05 638.131 395 640.814 392.9C643.614 390.8 645.656 388.058 646.939 384.675L669.164 390.975ZM694.874 387.3C695.107 390.333 696.274 393.075 698.374 395.525C700.591 397.858 703.974 399.025 708.524 399.025C711.907 399.025 714.416 398.267 716.049 396.75C717.799 395.233 718.674 393.483 718.674 391.5C718.674 389.867 718.032 388.467 716.749 387.3C715.582 386.017 713.366 385.025 710.099 384.325L700.124 382.05C695.457 381 691.491 379.6 688.224 377.85C684.957 376.1 682.274 374.058 680.174 371.725C678.074 369.392 676.557 366.825 675.624 364.025C674.691 361.225 674.224 358.308 674.224 355.275C674.224 351.308 675.041 347.575 676.674 344.075C678.307 340.575 680.582 337.542 683.499 334.975C686.532 332.292 690.091 330.192 694.174 328.675C698.257 327.158 702.749 326.4 707.649 326.4C713.949 326.4 719.257 327.275 723.574 329.025C727.891 330.775 731.391 332.992 734.074 335.675C736.874 338.242 738.916 341.042 740.199 344.075C741.482 346.992 742.241 349.733 742.474 352.3L720.424 356.325C720.074 353.408 718.907 350.9 716.924 348.8C715.057 346.7 712.082 345.65 707.999 345.65C705.432 345.65 703.216 346.35 701.349 347.75C699.482 349.033 698.549 350.842 698.549 353.175C698.549 355.042 699.191 356.5 700.474 357.55C701.757 358.6 703.391 359.3 705.374 359.65L716.924 361.925C726.024 363.792 732.732 367.233 737.049 372.25C741.482 377.15 743.699 382.808 743.699 389.225C743.699 392.958 742.999 396.575 741.599 400.075C740.199 403.575 738.041 406.725 735.124 409.525C732.207 412.208 728.591 414.367 724.274 416C719.957 417.75 714.882 418.625 709.049 418.625C702.166 418.625 696.391 417.692 691.724 415.825C687.174 413.842 683.499 411.45 680.699 408.65C677.899 405.85 675.799 402.875 674.399 399.725C673.116 396.575 672.416 393.775 672.299 391.325L694.874 387.3Z" fill="white" fill-opacity="0.08"/>
</svg>
