<svg width="296" height="331" viewBox="0 0 296 331" fill="none" xmlns="http://www.w3.org/2000/svg">
<path d="M100.86 326.407C110.392 317.995 118.672 309.507 133.251 313.981C145.105 317.619 149.421 318.188 154.707 306.41C157.365 300.486 156.333 297.565 163.485 298.942C173.483 300.866 182.942 305.888 192.825 308.412C199.067 310.006 210.465 315.869 216.015 312.779M7.23162 178.933C28.6549 199.738 61.2673 216.779 89.1687 217.582C113.917 218.294 118.071 173.771 132.767 159.446C138.206 154.143 149.401 159.622 155.96 161.044C168.155 163.686 187.605 169.716 198.273 162.284C214.006 151.322 209.254 124.107 214.43 106.819C216.006 101.554 217.238 99.2886 220.598 95.9126C225.067 91.4222 216.371 91.6657 213.135 91.0109L212.95 90.9735C206.718 89.7131 198.783 88.1084 193.789 82.9296C190.972 80.0086 190.477 76.1419 187.113 73.2589C172.586 60.8094 157.221 62.2639 140.84 55.5408C132.313 52.0416 118.613 50.6756 111.741 43.1906M153.522 1.83082C153.79 3.1438 154.098 4.21489 154.429 5.0765M154.429 5.0765C157.638 13.4116 163.087 2.14208 156.34 0.608329C151.719 -0.442088 152.529 3.54324 154.429 5.0765ZM154.429 5.0765C155.769 6.15711 157.65 6.01974 158.554 2.04311M158.868 10.6695C155.535 11.8158 152.527 13.093 149.421 14.4467C145.636 16.0965 148.773 15.9922 151.908 16.705M159.939 9.36392C160.507 13.1598 161.192 17.4819 160.374 21.0798M152.876 13.1799C153.327 15.7328 154.382 19.0909 155.743 21.2202C156.225 21.9734 157.449 21.8229 157.755 22.3006C157.927 22.5696 155.863 22.7594 155.317 22.1025C153.598 20.0331 153.552 25.2102 152.627 26.7877C151.084 29.419 149.298 32.4946 148.627 35.448M159.47 21.649C159.598 24.3228 159.336 35.8865 162.014 37.7165M159.036 9.93309C162.311 12.5695 173.624 19.4451 163.083 17.0489M20.4163 274.321C26.5837 282.765 33.6442 290.294 41.8849 296.261C58.5044 308.296 78.1698 315.094 96.1356 323.682C118.045 334.156 144.078 329.818 166.22 327.514C188.68 325.177 209.249 315.95 229.115 306.24C260.547 290.878 284.884 261.952 291.127 223.976C293.561 209.176 297.244 195.025 293.983 179.432C290.378 162.197 282.236 145.972 278.556 129.073C273.769 107.093 253.576 85.3858 239.172 69.2883C221.132 49.1259 197.769 38.2342 172.848 34.5594C132.292 28.5792 98.8873 47.1638 65.7274 65.1203C51.5172 72.8153 39.7354 87.659 30.5141 101.043C22.1666 113.16 19.2332 128.197 13.638 142.094C-2.45088 185.705 -7.00229 236.785 20.4163 274.321Z" stroke="#646363" stroke-width="0.5" stroke-linecap="round" stroke-linejoin="round"/>
</svg>
