<svg width="104" height="33" viewBox="0 0 104 33" fill="none" xmlns="http://www.w3.org/2000/svg">
<path d="M102.598 16.6434C102.339 16.4747 102.024 16.415 101.721 16.4775C101.418 16.5399 101.153 16.7194 100.982 16.9767C100.924 17.065 99.5122 19.1332 97.053 19.1332C96.0856 19.1332 95.3539 18.8316 94.8811 18.2383C94.8493 18.1983 94.8176 18.1566 94.7875 18.115L94.8193 18.0983C100.6 14.7535 100.566 11.912 100.282 10.8471C99.9482 9.57046 98.8088 8.74551 97.3888 8.74551C94.0859 8.74551 91.8655 12.4553 91.8655 15.9201C91.866 16.3441 91.9029 16.7673 91.9758 17.185C90.8064 18.055 88.9853 19.1332 87.3865 19.1332C86.4559 19.1332 85.7559 18.8549 85.3082 18.3C85.1521 18.1059 85.026 17.8896 84.934 17.6583C89.3612 16.3667 91.0386 13.5269 90.7312 11.262C90.5307 9.77712 89.4281 8.73884 88.0581 8.73884C84.9774 8.73884 82.7521 11.992 82.3912 15.2201C81.8253 15.1673 81.279 14.9861 80.7941 14.6902C80.8716 14.1939 80.9113 13.6925 80.9127 13.1903C80.9127 12.1386 80.7122 11.222 80.3346 10.5387C79.8184 9.60546 78.9814 9.09049 77.9773 9.09049C77.7087 9.09343 77.4461 9.1699 77.2181 9.31156C76.99 9.45321 76.8054 9.6546 76.6842 9.89378C76.1129 10.9454 76.4771 12.9869 77.5329 14.6418C77.7315 14.9548 77.955 15.2513 78.2012 15.5285C77.6265 17.3967 76.4336 19.1516 74.8732 19.1516C74.5645 19.1671 74.2562 19.1138 73.9707 18.9956C73.6852 18.8774 73.4296 18.6973 73.2226 18.4683C72.6078 17.8017 72.2202 16.6017 72.0882 15.0918C76.432 9.63546 78.542 4.29743 77.3425 1.77091C77.1642 1.36296 76.8688 1.01678 76.4936 0.775969C76.1184 0.535157 75.6802 0.410483 75.2341 0.417651C72.2269 0.417651 70.4426 4.32576 69.7677 12.367C69.7259 12.8669 69.6959 13.4519 69.7009 14.0985C68.0954 16.2817 65.4657 19.1249 63.0917 19.1249C62.4151 19.1249 61.9223 18.8949 61.5881 18.42C61.5597 18.38 61.5313 18.3383 61.5046 18.295C61.5328 18.2799 61.5602 18.2632 61.5865 18.245C67.4071 14.4568 67.3285 11.622 67.0178 10.5837C66.6837 9.44713 65.6729 8.74051 64.3765 8.74051C60.985 8.74051 58.7079 12.657 58.7079 16.3151C58.7076 16.636 58.7271 16.9565 58.7664 17.275C57.6972 18.05 56.81 18.7399 55.9597 19.4082C56.0866 18.4083 56.2754 17.1434 56.4876 15.2418C56.5377 14.8602 56.5795 14.5452 56.6012 14.3919C56.7917 13.0053 54.5296 12.7253 54.284 14.2652C54.0334 15.8584 53.3501 19.1516 51.4923 19.1516C50.368 19.1516 49.7782 17.8967 49.8868 16.0701C50.0539 13.1986 51.5992 10.8571 53.5105 10.8571C54.1671 10.8571 54.5129 11.562 54.5129 11.562C55.116 12.6636 56.9888 11.7287 56.5945 10.5621C56.4108 10.0471 55.7792 8.75051 53.6024 8.75051C49.1283 8.75051 47.745 13.3036 47.5479 16.3101C47.5156 16.7854 47.5228 17.2626 47.5696 17.7367C46.9448 18.5 46.203 19.1499 45.4813 19.1499C44.7596 19.1499 44.3235 18.3566 44.5875 16.5251C44.8397 14.7768 45.0185 13.3319 45.1388 12.4853C45.6801 8.66218 40.922 8.76717 40.922 8.76717C40.922 8.76717 40.8703 6.5373 39.0375 6.5373C38.1003 6.5373 37.2683 7.27059 37.2683 8.65218C37.2739 9.03032 37.3716 9.40144 37.5529 9.73357C37.7342 10.0657 37.9937 10.3489 38.3091 10.5587C38.0786 12.5386 37.1547 19.1499 35.1015 19.1499C34.1826 19.1499 34.1191 18.15 34.1993 17.4483C34.3129 16.4701 34.4883 14.8168 34.5468 14.3902C34.7372 13.0036 32.4752 12.7236 32.2296 14.2635C31.979 15.8568 31.2957 19.1499 29.4379 19.1499C28.3136 19.1499 27.7221 17.73 27.8124 16.0218C27.9677 13.0919 29.5448 10.8554 31.4561 10.8554C32.111 10.8554 32.4585 11.5603 32.4585 11.5603C32.9597 12.652 34.9244 11.867 34.5401 10.5604C34.373 9.9871 33.7315 8.74551 31.5546 8.74551C27.0806 8.74551 25.6973 13.2986 25.5002 16.3051C25.4702 16.7525 25.4746 17.2016 25.5135 17.6483C24.8737 18.5233 24.1035 19.1482 23.3751 19.1482C22.7068 19.1482 22.2056 18.8149 22.3276 17.2934C22.3844 16.5867 23.203 11.7587 23.1479 10.8771C23.056 9.41714 22.3977 8.77051 20.7738 8.77051C19.45 8.7767 18.1802 9.29532 17.232 10.2171C17.232 10.2171 18.044 4.12411 18.1943 2.95417C18.3614 1.72924 16.0108 1.71591 15.8554 2.94417C15.7886 3.47748 15.1621 8.30387 14.5824 12.7619C13.2759 15.6718 10.6279 20.1582 6.70854 20.1582C-0.719221 20.1582 2.70898 3.87912 9.65559 3.87912C11.2845 3.87912 10.5561 6.49397 9.46514 8.08888C8.68828 9.22715 10.653 10.5371 11.7389 8.69551C14.7377 3.60747 12.21 1.70424 9.83435 1.70424C-0.490341 1.70424 -4.32284 22.4064 6.43288 22.4064C9.97302 22.4064 12.342 20.4065 13.8707 18.2533C13.7036 19.4766 13.6 20.3098 13.5783 20.4648C13.3962 21.7414 15.7702 21.6314 15.8955 20.5698C15.974 19.8882 16.3265 17.0317 16.6289 14.8518C16.796 13.6069 18.3163 11.3137 20.0521 11.3137C20.1443 11.319 20.2344 11.3433 20.3167 11.3852C20.399 11.427 20.4718 11.4853 20.5303 11.5566C20.5889 11.6278 20.632 11.7104 20.6569 11.7991C20.6819 11.8878 20.6881 11.9807 20.6753 12.072C20.6151 12.4786 19.8767 17.905 19.9268 18.7066C20.0672 20.9665 21.6743 21.4914 23.2047 21.4914C24.4176 21.4914 25.3866 20.9148 26.2119 20.0082C26.7548 20.9198 27.5935 21.4864 28.7179 21.4864C31.3057 21.4864 32.1962 19.6132 32.1962 19.6132C32.1962 19.6132 32.5052 21.4681 34.7339 21.4681C39.2447 21.4681 40.3022 13.5469 40.5294 10.9071C40.7917 10.9171 42.3889 11.0154 42.6512 11.907C42.9034 12.7686 42.1032 15.5301 42.0364 18.3733C42.003 19.8732 42.5493 21.4798 44.9082 21.4798C46.3467 21.4798 47.4777 20.8132 48.2947 20.0632C48.8376 20.9365 49.6629 21.4798 50.7656 21.4798C52.0386 21.4798 52.9007 21.0698 53.4487 20.6465C53.4119 20.8915 53.3768 21.1315 53.3434 21.3748C53.3434 21.3898 53.3434 21.4065 53.3434 21.4215C53.3434 21.3748 47.3892 25.7012 47.3892 29.7893C47.3892 31.3842 48.1243 32.4292 50.0021 32.4292C53.741 32.4292 54.8955 27.4144 55.4468 23.263C55.4735 23.0686 55.4986 22.8819 55.522 22.703C56.1067 22.2581 56.6513 21.8314 57.1793 21.4165C57.9561 20.8065 58.7062 20.2182 59.57 19.5832C59.6117 19.6499 59.6535 19.7182 59.6986 19.7815C60.4838 20.8815 61.6616 21.4614 63.1018 21.4614C65.8066 21.4614 68.3109 19.3749 70.1185 17.3334C70.3892 18.3333 70.8252 19.2982 71.5102 20.0482C71.9359 20.5143 72.4568 20.8842 73.0377 21.1328C73.6187 21.3815 74.2462 21.5032 74.8783 21.4898C77.4628 21.4898 79.2554 19.4166 80.1826 17.0067C80.9047 17.3441 81.6852 17.5399 82.4814 17.5833C82.6401 18.3897 82.9901 19.1463 83.5022 19.7899C84.1304 20.5582 85.3115 21.4731 87.3832 21.4731C89.4548 21.4731 91.483 20.3682 92.8563 19.4216C92.9231 19.5182 92.9899 19.6166 93.0618 19.7065C93.7083 20.5132 94.9262 21.4731 97.053 21.4731C100.792 21.4731 102.843 18.395 102.929 18.2633C103.013 18.1353 103.072 17.9919 103.101 17.8414C103.13 17.6908 103.128 17.5361 103.097 17.3859C103.066 17.2358 103.006 17.0932 102.92 16.9664C102.833 16.8396 102.723 16.7309 102.595 16.6467L102.598 16.6434ZM50.3262 30.0976C49.9754 30.0976 49.7365 29.8693 49.7365 29.431C49.7365 27.3928 52.9007 24.6063 52.9358 24.5979C52.5047 27.3394 51.3988 30.0976 50.3262 30.0976ZM64.3765 10.8771C64.477 10.8788 64.5734 10.917 64.6478 10.9845C64.7222 11.0519 64.7694 11.1441 64.7808 11.2437C64.9077 11.677 64.455 13.3836 61.0635 15.7701C61.2573 13.4936 62.6356 10.8771 64.3765 10.8771ZM75.2224 2.76418C76.2098 2.76418 75.3995 6.15066 72.257 10.8921C72.977 4.60741 74.0162 2.76418 75.2224 2.76418ZM87.8376 10.8771C88.3588 10.8771 88.3922 11.392 88.4173 11.577C88.5493 12.5503 87.6555 14.2735 84.7302 15.2635C85.0426 13.2019 86.3908 10.8771 87.8376 10.8771ZM97.3854 10.8771C97.7312 10.8771 97.9401 11.1187 98.027 11.4437C98.2091 12.1303 97.3169 13.8052 94.1978 15.7301C94.2663 13.5002 95.6078 10.8771 97.3854 10.8771Z" fill="white"/>
</svg>
