<svg width="186" height="328" viewBox="0 0 186 328" fill="none" xmlns="http://www.w3.org/2000/svg">
<path d="M84 87C111.028 82.6756 141.974 83.0808 167.556 92.5556C187.446 99.9224 187.156 120.435 183 137.889C180.42 148.727 173.197 154.491 164 160.111C147.985 169.898 132.556 180.176 115.889 189C94.2319 200.466 74.2736 214.848 50.1111 220.889C35.0474 224.655 18.5173 224.161 4 229" stroke="#646363" stroke-width="0.5" stroke-linecap="round" stroke-linejoin="round"/>
<path d="M0 19C25.3145 27.9345 46.6716 40.3076 65.1111 60.2222C87.1835 84.0605 96.4139 109.873 105.889 140.667C116.785 176.079 116.278 227.695 95.1111 259.444C82.6863 278.082 67.1121 300.827 47 312C34.2725 319.071 18.8016 327 4 327" stroke="#646363" stroke-width="0.5" stroke-linecap="round" stroke-linejoin="round"/>
<path d="M123.444 0.444467C116.652 7.23737 118.591 11.1942 107 16C109.818 16 118.62 17.502 117.444 20C115.665 23.7823 111.119 32.1372 117.444 26.4445C126.547 18.2523 131 47.6016 131 30C131 25.9958 129.861 20.5492 132.556 17.5556C139.031 10.3602 133.581 13.981 129 11.5556C126.863 10.4245 123.797 0.0922691 123.444 0.444467Z" stroke="#646363" stroke-width="0.5" stroke-linecap="round" stroke-linejoin="round"/>
</svg>
